G04 #@! TF.GenerationSoftware,KiCad,Pcbnew,(5.1.5-0-10_14)*
G04 #@! TF.CreationDate,2020-04-19T21:27:58+02:00*
G04 #@! TF.ProjectId,inuk-passive-led-shield,696e756b-2d70-4617-9373-6976652d6c65,rev?*
G04 #@! TF.SameCoordinates,Original*
G04 #@! TF.FileFunction,Legend,Bot*
G04 #@! TF.FilePolarity,Positive*
%FSLAX46Y46*%
G04 Gerber Fmt 4.6, Leading zero omitted, Abs format (unit mm)*
G04 Created by KiCad (PCBNEW (5.1.5-0-10_14)) date 2020-04-19 21:27:58*
%MOMM*%
%LPD*%
G04 APERTURE LIST*
%ADD10C,0.120000*%
G04 APERTURE END LIST*
D10*
X92300000Y-139700000D02*
X92300000Y-140970000D01*
X93570000Y-139700000D02*
X92300000Y-139700000D01*
X116810000Y-142012929D02*
X116810000Y-142410000D01*
X116050000Y-142012929D02*
X116050000Y-142410000D01*
X116810000Y-151070000D02*
X116810000Y-145070000D01*
X116050000Y-151070000D02*
X116810000Y-151070000D01*
X116050000Y-145070000D02*
X116050000Y-151070000D01*
X115160000Y-142410000D02*
X115160000Y-145070000D01*
X114270000Y-142012929D02*
X114270000Y-142410000D01*
X113510000Y-142012929D02*
X113510000Y-142410000D01*
X114270000Y-151070000D02*
X114270000Y-145070000D01*
X113510000Y-151070000D02*
X114270000Y-151070000D01*
X113510000Y-145070000D02*
X113510000Y-151070000D01*
X112620000Y-142410000D02*
X112620000Y-145070000D01*
X111730000Y-142012929D02*
X111730000Y-142410000D01*
X110970000Y-142012929D02*
X110970000Y-142410000D01*
X111730000Y-151070000D02*
X111730000Y-145070000D01*
X110970000Y-151070000D02*
X111730000Y-151070000D01*
X110970000Y-145070000D02*
X110970000Y-151070000D01*
X110080000Y-142410000D02*
X110080000Y-145070000D01*
X109190000Y-142012929D02*
X109190000Y-142410000D01*
X108430000Y-142012929D02*
X108430000Y-142410000D01*
X109190000Y-151070000D02*
X109190000Y-145070000D01*
X108430000Y-151070000D02*
X109190000Y-151070000D01*
X108430000Y-145070000D02*
X108430000Y-151070000D01*
X107540000Y-142410000D02*
X107540000Y-145070000D01*
X106650000Y-142012929D02*
X106650000Y-142410000D01*
X105890000Y-142012929D02*
X105890000Y-142410000D01*
X106650000Y-151070000D02*
X106650000Y-145070000D01*
X105890000Y-151070000D02*
X106650000Y-151070000D01*
X105890000Y-145070000D02*
X105890000Y-151070000D01*
X105000000Y-142410000D02*
X105000000Y-145070000D01*
X104110000Y-142012929D02*
X104110000Y-142410000D01*
X103350000Y-142012929D02*
X103350000Y-142410000D01*
X104110000Y-151070000D02*
X104110000Y-145070000D01*
X103350000Y-151070000D02*
X104110000Y-151070000D01*
X103350000Y-145070000D02*
X103350000Y-151070000D01*
X102460000Y-142410000D02*
X102460000Y-145070000D01*
X101570000Y-142012929D02*
X101570000Y-142410000D01*
X100810000Y-142012929D02*
X100810000Y-142410000D01*
X101570000Y-151070000D02*
X101570000Y-145070000D01*
X100810000Y-151070000D02*
X101570000Y-151070000D01*
X100810000Y-145070000D02*
X100810000Y-151070000D01*
X99920000Y-142410000D02*
X99920000Y-145070000D01*
X99030000Y-142012929D02*
X99030000Y-142410000D01*
X98270000Y-142012929D02*
X98270000Y-142410000D01*
X99030000Y-151070000D02*
X99030000Y-145070000D01*
X98270000Y-151070000D02*
X99030000Y-151070000D01*
X98270000Y-145070000D02*
X98270000Y-151070000D01*
X97380000Y-142410000D02*
X97380000Y-145070000D01*
X96490000Y-142012929D02*
X96490000Y-142410000D01*
X95730000Y-142012929D02*
X95730000Y-142410000D01*
X96490000Y-151070000D02*
X96490000Y-145070000D01*
X95730000Y-151070000D02*
X96490000Y-151070000D01*
X95730000Y-145070000D02*
X95730000Y-151070000D01*
X94840000Y-142410000D02*
X94840000Y-145070000D01*
X93950000Y-142080000D02*
X93950000Y-142410000D01*
X93190000Y-142080000D02*
X93190000Y-142410000D01*
X93850000Y-145070000D02*
X93850000Y-151070000D01*
X93730000Y-145070000D02*
X93730000Y-151070000D01*
X93610000Y-145070000D02*
X93610000Y-151070000D01*
X93490000Y-145070000D02*
X93490000Y-151070000D01*
X93370000Y-145070000D02*
X93370000Y-151070000D01*
X93250000Y-145070000D02*
X93250000Y-151070000D01*
X93950000Y-151070000D02*
X93950000Y-145070000D01*
X93190000Y-151070000D02*
X93950000Y-151070000D01*
X93190000Y-145070000D02*
X93190000Y-151070000D01*
X92240000Y-145070000D02*
X92240000Y-142410000D01*
X117760000Y-145070000D02*
X92240000Y-145070000D01*
X117760000Y-142410000D02*
X117760000Y-145070000D01*
X92240000Y-142410000D02*
X117760000Y-142410000D01*
M02*
