G04 #@! TF.GenerationSoftware,KiCad,Pcbnew,(5.1.5-0-10_14)*
G04 #@! TF.CreationDate,2020-04-19T21:27:58+02:00*
G04 #@! TF.ProjectId,inuk-passive-led-shield,696e756b-2d70-4617-9373-6976652d6c65,rev?*
G04 #@! TF.SameCoordinates,Original*
G04 #@! TF.FileFunction,Copper,L1,Top*
G04 #@! TF.FilePolarity,Positive*
%FSLAX46Y46*%
G04 Gerber Fmt 4.6, Leading zero omitted, Abs format (unit mm)*
G04 Created by KiCad (PCBNEW (5.1.5-0-10_14)) date 2020-04-19 21:27:58*
%MOMM*%
%LPD*%
G04 APERTURE LIST*
%ADD10C,0.350000*%
%ADD11C,0.100000*%
%ADD12C,0.800000*%
%ADD13C,6.400000*%
%ADD14C,5.700000*%
%ADD15O,1.700000X1.700000*%
%ADD16R,1.700000X1.700000*%
%ADD17C,0.800000*%
%ADD18C,1.400000*%
%ADD19C,0.500000*%
%ADD20C,0.254000*%
G04 APERTURE END LIST*
D10*
X141990000Y-122260000D02*
X142740000Y-120260000D01*
X142940000Y-121040000D02*
X143240000Y-122260000D01*
D11*
G36*
X143100000Y-121160000D02*
G01*
X142860000Y-121250000D01*
X142800000Y-121030000D01*
X142970000Y-120570000D01*
X143100000Y-121160000D01*
G37*
X143100000Y-121160000D02*
X142860000Y-121250000D01*
X142800000Y-121030000D01*
X142970000Y-120570000D01*
X143100000Y-121160000D01*
D10*
X141490000Y-120260000D02*
X141990000Y-122260000D01*
X140740000Y-122260000D02*
X141490000Y-120260000D01*
D12*
X61697056Y-138302944D03*
X60000000Y-137600000D03*
X58302944Y-138302944D03*
X57600000Y-140000000D03*
X58302944Y-141697056D03*
X60000000Y-142400000D03*
X61697056Y-141697056D03*
X62400000Y-140000000D03*
D13*
X60000000Y-140000000D03*
D12*
X151697056Y-138302944D03*
X150000000Y-137600000D03*
X148302944Y-138302944D03*
X147600000Y-140000000D03*
X148302944Y-141697056D03*
X150000000Y-142400000D03*
X151697056Y-141697056D03*
X152400000Y-140000000D03*
D13*
X150000000Y-140000000D03*
D12*
X151697056Y-121302944D03*
X150000000Y-120600000D03*
X148302944Y-121302944D03*
X147600000Y-123000000D03*
X148302944Y-124697056D03*
X150000000Y-125400000D03*
X151697056Y-124697056D03*
X152400000Y-123000000D03*
D13*
X150000000Y-123000000D03*
D12*
X61697056Y-121302944D03*
X60000000Y-120600000D03*
X58302944Y-121302944D03*
X57600000Y-123000000D03*
X58302944Y-124697056D03*
X60000000Y-125400000D03*
X61697056Y-124697056D03*
X62400000Y-123000000D03*
D13*
X60000000Y-123000000D03*
D14*
X135000000Y-130000000D03*
G04 #@! TA.AperFunction,SMDPad,CuDef*
D11*
G36*
X142636753Y-133818377D02*
G01*
X140727565Y-135727565D01*
X138252691Y-133252691D01*
X140161879Y-131343503D01*
X142636753Y-133818377D01*
G37*
G04 #@! TD.AperFunction*
G04 #@! TA.AperFunction,SMDPad,CuDef*
G36*
X131747309Y-126747309D02*
G01*
X129838121Y-128656497D01*
X127363247Y-126181623D01*
X129272435Y-124272435D01*
X131747309Y-126747309D01*
G37*
G04 #@! TD.AperFunction*
D14*
X120000000Y-130000000D03*
G04 #@! TA.AperFunction,SMDPad,CuDef*
D11*
G36*
X127636753Y-133818377D02*
G01*
X125727565Y-135727565D01*
X123252691Y-133252691D01*
X125161879Y-131343503D01*
X127636753Y-133818377D01*
G37*
G04 #@! TD.AperFunction*
G04 #@! TA.AperFunction,SMDPad,CuDef*
G36*
X116747309Y-126747309D02*
G01*
X114838121Y-128656497D01*
X112363247Y-126181623D01*
X114272435Y-124272435D01*
X116747309Y-126747309D01*
G37*
G04 #@! TD.AperFunction*
D14*
X105000000Y-130000000D03*
G04 #@! TA.AperFunction,SMDPad,CuDef*
D11*
G36*
X112636753Y-133818377D02*
G01*
X110727565Y-135727565D01*
X108252691Y-133252691D01*
X110161879Y-131343503D01*
X112636753Y-133818377D01*
G37*
G04 #@! TD.AperFunction*
G04 #@! TA.AperFunction,SMDPad,CuDef*
G36*
X101747309Y-126747309D02*
G01*
X99838121Y-128656497D01*
X97363247Y-126181623D01*
X99272435Y-124272435D01*
X101747309Y-126747309D01*
G37*
G04 #@! TD.AperFunction*
D14*
X90000000Y-130000000D03*
G04 #@! TA.AperFunction,SMDPad,CuDef*
D11*
G36*
X97636753Y-133818377D02*
G01*
X95727565Y-135727565D01*
X93252691Y-133252691D01*
X95161879Y-131343503D01*
X97636753Y-133818377D01*
G37*
G04 #@! TD.AperFunction*
G04 #@! TA.AperFunction,SMDPad,CuDef*
G36*
X86747309Y-126747309D02*
G01*
X84838121Y-128656497D01*
X82363247Y-126181623D01*
X84272435Y-124272435D01*
X86747309Y-126747309D01*
G37*
G04 #@! TD.AperFunction*
D14*
X75000000Y-130000000D03*
G04 #@! TA.AperFunction,SMDPad,CuDef*
D11*
G36*
X82636753Y-133818377D02*
G01*
X80727565Y-135727565D01*
X78252691Y-133252691D01*
X80161879Y-131343503D01*
X82636753Y-133818377D01*
G37*
G04 #@! TD.AperFunction*
G04 #@! TA.AperFunction,SMDPad,CuDef*
G36*
X71747309Y-126747309D02*
G01*
X69838121Y-128656497D01*
X67363247Y-126181623D01*
X69272435Y-124272435D01*
X71747309Y-126747309D01*
G37*
G04 #@! TD.AperFunction*
D15*
X81570000Y-120220000D03*
D16*
X79030000Y-120220000D03*
D15*
X116430000Y-140970000D03*
X113890000Y-140970000D03*
X111350000Y-140970000D03*
X108810000Y-140970000D03*
X106270000Y-140970000D03*
X103730000Y-140970000D03*
X101190000Y-140970000D03*
X98650000Y-140970000D03*
X96110000Y-140970000D03*
D16*
X93570000Y-140970000D03*
D15*
X96650000Y-120220000D03*
X94110000Y-120220000D03*
X91570000Y-120220000D03*
D16*
X89030000Y-120220000D03*
D12*
X88520000Y-130960000D03*
X91520000Y-128960000D03*
X90020000Y-127960000D03*
X90020000Y-131960000D03*
X91520000Y-130960000D03*
X88520000Y-128960000D03*
X90020000Y-129960000D03*
X133500000Y-131000000D03*
X136500000Y-129000000D03*
X135000000Y-128000000D03*
X135000000Y-132000000D03*
X136500000Y-131000000D03*
X133500000Y-129000000D03*
X135000000Y-130000000D03*
X118500000Y-131000000D03*
X121500000Y-129000000D03*
X120000000Y-128000000D03*
X120000000Y-132000000D03*
X121500000Y-131000000D03*
X118500000Y-129000000D03*
X120000000Y-130000000D03*
X103500000Y-131000000D03*
X106500000Y-129000000D03*
X105000000Y-128000000D03*
X105000000Y-132000000D03*
X106500000Y-131000000D03*
X103500000Y-129000000D03*
X105000000Y-130000000D03*
X75000000Y-131960000D03*
X75020000Y-127960000D03*
X75020000Y-129960000D03*
X73520000Y-130960000D03*
X76520000Y-130960000D03*
X76520000Y-128960000D03*
X73520000Y-128960000D03*
D17*
X80444722Y-133535534D02*
X80444722Y-141444722D01*
X80444722Y-141444722D02*
X83000000Y-144000000D01*
X103250000Y-144000000D02*
X106250000Y-141000000D01*
X83000000Y-144000000D02*
X103250000Y-144000000D01*
D18*
X103710000Y-141000000D02*
X101170000Y-141000000D01*
X100000000Y-138000000D02*
X90000000Y-138000000D01*
X90000000Y-138000000D02*
X82500000Y-130500000D01*
X101170000Y-139170000D02*
X100000000Y-138000000D01*
X101170000Y-141000000D02*
X101170000Y-139170000D01*
X83580940Y-127419060D02*
X82500000Y-128500000D01*
X84555278Y-126464466D02*
X83600684Y-127419060D01*
X83600684Y-127419060D02*
X83580940Y-127419060D01*
X82500000Y-130500000D02*
X82500000Y-128500000D01*
X84555278Y-126464466D02*
X86519744Y-124500000D01*
X97590812Y-124500000D02*
X99555278Y-126464466D01*
X82590812Y-124500000D02*
X84555278Y-126464466D01*
X71519744Y-124500000D02*
X82590812Y-124500000D01*
X69555278Y-126464466D02*
X71519744Y-124500000D01*
X99555278Y-126464466D02*
X101519744Y-124500000D01*
X112590812Y-124500000D02*
X114555278Y-126464466D01*
X101519744Y-124500000D02*
X112590812Y-124500000D01*
X114555278Y-126464466D02*
X116519744Y-124500000D01*
X127590812Y-124500000D02*
X129555278Y-126464466D01*
X116519744Y-124500000D02*
X127590812Y-124500000D01*
D19*
X91570000Y-122680000D02*
X89750000Y-124500000D01*
X91570000Y-120220000D02*
X91570000Y-122680000D01*
D18*
X89750000Y-124500000D02*
X97590812Y-124500000D01*
X86519744Y-124500000D02*
X89750000Y-124500000D01*
D17*
X108790000Y-139790000D02*
X108790000Y-141000000D01*
X105500000Y-136500000D02*
X108790000Y-139790000D01*
X100535534Y-133535534D02*
X103500000Y-136500000D01*
X103500000Y-136500000D02*
X105500000Y-136500000D01*
X95444722Y-133535534D02*
X100535534Y-133535534D01*
X111330000Y-134420812D02*
X110444722Y-133535534D01*
X111330000Y-141000000D02*
X111330000Y-134420812D01*
X113870000Y-139797919D02*
X115167919Y-138500000D01*
X113870000Y-141000000D02*
X113870000Y-139797919D01*
X120480256Y-138500000D02*
X125444722Y-133535534D01*
X115167919Y-138500000D02*
X120480256Y-138500000D01*
X132980256Y-141000000D02*
X140444722Y-133535534D01*
X116410000Y-141000000D02*
X132980256Y-141000000D01*
D19*
X92610000Y-118720000D02*
X94110000Y-120220000D01*
X79380000Y-118720000D02*
X92610000Y-118720000D01*
X79030000Y-119070000D02*
X79380000Y-118720000D01*
X79030000Y-120220000D02*
X79030000Y-119070000D01*
X81570000Y-120220000D02*
X89030000Y-120220000D01*
D20*
G36*
X150759192Y-118780578D02*
G01*
X151494389Y-118981705D01*
X152182351Y-119309846D01*
X152801331Y-119754628D01*
X153331761Y-120301988D01*
X153756884Y-120934639D01*
X154063251Y-121632561D01*
X154242499Y-122379183D01*
X154290000Y-123026030D01*
X154290001Y-139968370D01*
X154219422Y-140759193D01*
X154018295Y-141494389D01*
X153690152Y-142182355D01*
X153245374Y-142801328D01*
X152698012Y-143331761D01*
X152065362Y-143756883D01*
X151367439Y-144063251D01*
X150620819Y-144242499D01*
X149973970Y-144290000D01*
X104423710Y-144290000D01*
X106012829Y-142700881D01*
X147478724Y-142700881D01*
X147838912Y-143190548D01*
X148502882Y-143550849D01*
X149224385Y-143774694D01*
X149975695Y-143853480D01*
X150727938Y-143784178D01*
X151452208Y-143569452D01*
X152120670Y-143217555D01*
X152161088Y-143190548D01*
X152521276Y-142700881D01*
X150000000Y-140179605D01*
X147478724Y-142700881D01*
X106012829Y-142700881D01*
X106258711Y-142455000D01*
X106416260Y-142455000D01*
X106703158Y-142397932D01*
X106973411Y-142285990D01*
X107216632Y-142123475D01*
X107423475Y-141916632D01*
X107540000Y-141742240D01*
X107656525Y-141916632D01*
X107863368Y-142123475D01*
X108106589Y-142285990D01*
X108376842Y-142397932D01*
X108663740Y-142455000D01*
X108956260Y-142455000D01*
X109243158Y-142397932D01*
X109513411Y-142285990D01*
X109756632Y-142123475D01*
X109963475Y-141916632D01*
X110080000Y-141742240D01*
X110196525Y-141916632D01*
X110403368Y-142123475D01*
X110646589Y-142285990D01*
X110916842Y-142397932D01*
X111203740Y-142455000D01*
X111496260Y-142455000D01*
X111783158Y-142397932D01*
X112053411Y-142285990D01*
X112296632Y-142123475D01*
X112503475Y-141916632D01*
X112620000Y-141742240D01*
X112736525Y-141916632D01*
X112943368Y-142123475D01*
X113186589Y-142285990D01*
X113456842Y-142397932D01*
X113743740Y-142455000D01*
X114036260Y-142455000D01*
X114323158Y-142397932D01*
X114593411Y-142285990D01*
X114836632Y-142123475D01*
X115043475Y-141916632D01*
X115160000Y-141742240D01*
X115276525Y-141916632D01*
X115483368Y-142123475D01*
X115726589Y-142285990D01*
X115996842Y-142397932D01*
X116283740Y-142455000D01*
X116576260Y-142455000D01*
X116863158Y-142397932D01*
X117133411Y-142285990D01*
X117376632Y-142123475D01*
X117465107Y-142035000D01*
X132929428Y-142035000D01*
X132980256Y-142040006D01*
X133031084Y-142035000D01*
X133031094Y-142035000D01*
X133183151Y-142020024D01*
X133378249Y-141960841D01*
X133558053Y-141864734D01*
X133715652Y-141735396D01*
X133748063Y-141695903D01*
X135468271Y-139975695D01*
X146146520Y-139975695D01*
X146215822Y-140727938D01*
X146430548Y-141452208D01*
X146782445Y-142120670D01*
X146809452Y-142161088D01*
X147299119Y-142521276D01*
X149820395Y-140000000D01*
X150179605Y-140000000D01*
X152700881Y-142521276D01*
X153190548Y-142161088D01*
X153550849Y-141497118D01*
X153774694Y-140775615D01*
X153853480Y-140024305D01*
X153784178Y-139272062D01*
X153569452Y-138547792D01*
X153217555Y-137879330D01*
X153190548Y-137838912D01*
X152700881Y-137478724D01*
X150179605Y-140000000D01*
X149820395Y-140000000D01*
X147299119Y-137478724D01*
X146809452Y-137838912D01*
X146449151Y-138502882D01*
X146225306Y-139224385D01*
X146146520Y-139975695D01*
X135468271Y-139975695D01*
X138144847Y-137299119D01*
X147478724Y-137299119D01*
X150000000Y-139820395D01*
X152521276Y-137299119D01*
X152161088Y-136809452D01*
X151497118Y-136449151D01*
X150775615Y-136225306D01*
X150024305Y-136146520D01*
X149272062Y-136215822D01*
X148547792Y-136430548D01*
X147879330Y-136782445D01*
X147838912Y-136809452D01*
X147478724Y-137299119D01*
X138144847Y-137299119D01*
X139770798Y-135673168D01*
X140276380Y-136178750D01*
X140373071Y-136258102D01*
X140483385Y-136317067D01*
X140603083Y-136353377D01*
X140727565Y-136365637D01*
X140852047Y-136353377D01*
X140971745Y-136317067D01*
X141082059Y-136258102D01*
X141178750Y-136178750D01*
X143087938Y-134269562D01*
X143167290Y-134172871D01*
X143226255Y-134062557D01*
X143262565Y-133942859D01*
X143274825Y-133818377D01*
X143262565Y-133693895D01*
X143226255Y-133574197D01*
X143167290Y-133463883D01*
X143087938Y-133367192D01*
X140613064Y-130892318D01*
X140516373Y-130812966D01*
X140406059Y-130754001D01*
X140286361Y-130717691D01*
X140161879Y-130705431D01*
X140037397Y-130717691D01*
X139917699Y-130754001D01*
X139807385Y-130812966D01*
X139710694Y-130892318D01*
X137801506Y-132801506D01*
X137722154Y-132898197D01*
X137663189Y-133008511D01*
X137626879Y-133128209D01*
X137614619Y-133252691D01*
X137626879Y-133377173D01*
X137663189Y-133496871D01*
X137722154Y-133607185D01*
X137801506Y-133703876D01*
X138307088Y-134209458D01*
X132551546Y-139965000D01*
X117525107Y-139965000D01*
X117376632Y-139816525D01*
X117133411Y-139654010D01*
X116863158Y-139542068D01*
X116827625Y-139535000D01*
X120429428Y-139535000D01*
X120480256Y-139540006D01*
X120531084Y-139535000D01*
X120531094Y-139535000D01*
X120683151Y-139520024D01*
X120878249Y-139460841D01*
X121058053Y-139364734D01*
X121215652Y-139235396D01*
X121248063Y-139195903D01*
X124770798Y-135673168D01*
X125276380Y-136178750D01*
X125373071Y-136258102D01*
X125483385Y-136317067D01*
X125603083Y-136353377D01*
X125727565Y-136365637D01*
X125852047Y-136353377D01*
X125971745Y-136317067D01*
X126082059Y-136258102D01*
X126178750Y-136178750D01*
X128087938Y-134269562D01*
X128167290Y-134172871D01*
X128226255Y-134062557D01*
X128262565Y-133942859D01*
X128274825Y-133818377D01*
X128262565Y-133693895D01*
X128226255Y-133574197D01*
X128167290Y-133463883D01*
X128087938Y-133367192D01*
X125613064Y-130892318D01*
X125516373Y-130812966D01*
X125406059Y-130754001D01*
X125286361Y-130717691D01*
X125161879Y-130705431D01*
X125037397Y-130717691D01*
X124917699Y-130754001D01*
X124807385Y-130812966D01*
X124710694Y-130892318D01*
X122801506Y-132801506D01*
X122722154Y-132898197D01*
X122663189Y-133008511D01*
X122626879Y-133128209D01*
X122614619Y-133252691D01*
X122626879Y-133377173D01*
X122663189Y-133496871D01*
X122722154Y-133607185D01*
X122801506Y-133703876D01*
X123307088Y-134209458D01*
X120051546Y-137465000D01*
X115218754Y-137465000D01*
X115167919Y-137459993D01*
X115117084Y-137465000D01*
X115117081Y-137465000D01*
X114965024Y-137479976D01*
X114769926Y-137539159D01*
X114686228Y-137583896D01*
X114590121Y-137635266D01*
X114489947Y-137717477D01*
X114432523Y-137764604D01*
X114400116Y-137804092D01*
X113174092Y-139030117D01*
X113134605Y-139062523D01*
X113102198Y-139102011D01*
X113102197Y-139102012D01*
X113005266Y-139220122D01*
X112909160Y-139399926D01*
X112849977Y-139595024D01*
X112829994Y-139797919D01*
X112835001Y-139848756D01*
X112835001Y-139924892D01*
X112736525Y-140023368D01*
X112620000Y-140197760D01*
X112503475Y-140023368D01*
X112365000Y-139884893D01*
X112365000Y-134992500D01*
X113087938Y-134269562D01*
X113167290Y-134172871D01*
X113226255Y-134062557D01*
X113262565Y-133942859D01*
X113274825Y-133818377D01*
X113262565Y-133693895D01*
X113226255Y-133574197D01*
X113167290Y-133463883D01*
X113087938Y-133367192D01*
X110613064Y-130892318D01*
X110516373Y-130812966D01*
X110406059Y-130754001D01*
X110286361Y-130717691D01*
X110161879Y-130705431D01*
X110037397Y-130717691D01*
X109917699Y-130754001D01*
X109807385Y-130812966D01*
X109710694Y-130892318D01*
X107801506Y-132801506D01*
X107722154Y-132898197D01*
X107663189Y-133008511D01*
X107626879Y-133128209D01*
X107614619Y-133252691D01*
X107626879Y-133377173D01*
X107663189Y-133496871D01*
X107722154Y-133607185D01*
X107801506Y-133703876D01*
X110276380Y-136178750D01*
X110295001Y-136194032D01*
X110295000Y-139924893D01*
X110196525Y-140023368D01*
X110080000Y-140197760D01*
X109963475Y-140023368D01*
X109825000Y-139884893D01*
X109825000Y-139840835D01*
X109830007Y-139790000D01*
X109825000Y-139739162D01*
X109810024Y-139587105D01*
X109753243Y-139399926D01*
X109750841Y-139392006D01*
X109654734Y-139212202D01*
X109557803Y-139094092D01*
X109525396Y-139054604D01*
X109485908Y-139022197D01*
X106267807Y-135804097D01*
X106235396Y-135764604D01*
X106077797Y-135635266D01*
X105897993Y-135539159D01*
X105702895Y-135479976D01*
X105550838Y-135465000D01*
X105550828Y-135465000D01*
X105500000Y-135459994D01*
X105449172Y-135465000D01*
X103928711Y-135465000D01*
X101303341Y-132839631D01*
X101270930Y-132800138D01*
X101113331Y-132670800D01*
X100933527Y-132574693D01*
X100738429Y-132515510D01*
X100586372Y-132500534D01*
X100586362Y-132500534D01*
X100535534Y-132495528D01*
X100484706Y-132500534D01*
X97221280Y-132500534D01*
X95613064Y-130892318D01*
X95516373Y-130812966D01*
X95406059Y-130754001D01*
X95286361Y-130717691D01*
X95161879Y-130705431D01*
X95037397Y-130717691D01*
X94917699Y-130754001D01*
X94807385Y-130812966D01*
X94710694Y-130892318D01*
X92801506Y-132801506D01*
X92722154Y-132898197D01*
X92663189Y-133008511D01*
X92626879Y-133128209D01*
X92614619Y-133252691D01*
X92626879Y-133377173D01*
X92663189Y-133496871D01*
X92722154Y-133607185D01*
X92801506Y-133703876D01*
X95276380Y-136178750D01*
X95373071Y-136258102D01*
X95483385Y-136317067D01*
X95603083Y-136353377D01*
X95727565Y-136365637D01*
X95852047Y-136353377D01*
X95971745Y-136317067D01*
X96082059Y-136258102D01*
X96178750Y-136178750D01*
X97786966Y-134570534D01*
X100106824Y-134570534D01*
X102732196Y-137195907D01*
X102764604Y-137235396D01*
X102804092Y-137267803D01*
X102922202Y-137364734D01*
X102947916Y-137378478D01*
X103102007Y-137460841D01*
X103297105Y-137520024D01*
X103449162Y-137535000D01*
X103449171Y-137535000D01*
X103499999Y-137540006D01*
X103550827Y-137535000D01*
X105071290Y-137535000D01*
X107617725Y-140081436D01*
X107540000Y-140197760D01*
X107423475Y-140023368D01*
X107216632Y-139816525D01*
X106973411Y-139654010D01*
X106703158Y-139542068D01*
X106416260Y-139485000D01*
X106123740Y-139485000D01*
X105836842Y-139542068D01*
X105566589Y-139654010D01*
X105323368Y-139816525D01*
X105116525Y-140023368D01*
X105000000Y-140197760D01*
X104883475Y-140023368D01*
X104676632Y-139816525D01*
X104433411Y-139654010D01*
X104163158Y-139542068D01*
X103876260Y-139485000D01*
X103583740Y-139485000D01*
X103296842Y-139542068D01*
X103026589Y-139654010D01*
X103010141Y-139665000D01*
X102505000Y-139665000D01*
X102505000Y-139235579D01*
X102511459Y-139170000D01*
X102485683Y-138908294D01*
X102454933Y-138806925D01*
X102409347Y-138656646D01*
X102285382Y-138424725D01*
X102188309Y-138306441D01*
X102160359Y-138272383D01*
X102160357Y-138272381D01*
X102118555Y-138221445D01*
X102067618Y-138179643D01*
X100990365Y-137102391D01*
X100948555Y-137051445D01*
X100745275Y-136884618D01*
X100513354Y-136760653D01*
X100261706Y-136684317D01*
X100065579Y-136665000D01*
X100000000Y-136658541D01*
X99934421Y-136665000D01*
X90552975Y-136665000D01*
X84560863Y-130672888D01*
X86563395Y-130672888D01*
X86760702Y-131330407D01*
X87082494Y-131936799D01*
X87516404Y-132468761D01*
X88045757Y-132905850D01*
X88650210Y-133231269D01*
X89306535Y-133432512D01*
X89327112Y-133436605D01*
X89873000Y-133340699D01*
X89873000Y-130127000D01*
X90127000Y-130127000D01*
X90127000Y-133340699D01*
X90672888Y-133436605D01*
X91330407Y-133239298D01*
X91936799Y-132917506D01*
X92468761Y-132483596D01*
X92905850Y-131954243D01*
X93231269Y-131349790D01*
X93432512Y-130693465D01*
X93436605Y-130672888D01*
X101563395Y-130672888D01*
X101760702Y-131330407D01*
X102082494Y-131936799D01*
X102516404Y-132468761D01*
X103045757Y-132905850D01*
X103650210Y-133231269D01*
X104306535Y-133432512D01*
X104327112Y-133436605D01*
X104873000Y-133340699D01*
X104873000Y-130127000D01*
X105127000Y-130127000D01*
X105127000Y-133340699D01*
X105672888Y-133436605D01*
X106330407Y-133239298D01*
X106936799Y-132917506D01*
X107468761Y-132483596D01*
X107905850Y-131954243D01*
X108231269Y-131349790D01*
X108432512Y-130693465D01*
X108436605Y-130672888D01*
X116563395Y-130672888D01*
X116760702Y-131330407D01*
X117082494Y-131936799D01*
X117516404Y-132468761D01*
X118045757Y-132905850D01*
X118650210Y-133231269D01*
X119306535Y-133432512D01*
X119327112Y-133436605D01*
X119873000Y-133340699D01*
X119873000Y-130127000D01*
X120127000Y-130127000D01*
X120127000Y-133340699D01*
X120672888Y-133436605D01*
X121330407Y-133239298D01*
X121936799Y-132917506D01*
X122468761Y-132483596D01*
X122905850Y-131954243D01*
X123231269Y-131349790D01*
X123432512Y-130693465D01*
X123436605Y-130672888D01*
X131563395Y-130672888D01*
X131760702Y-131330407D01*
X132082494Y-131936799D01*
X132516404Y-132468761D01*
X133045757Y-132905850D01*
X133650210Y-133231269D01*
X134306535Y-133432512D01*
X134327112Y-133436605D01*
X134873000Y-133340699D01*
X134873000Y-130127000D01*
X135127000Y-130127000D01*
X135127000Y-133340699D01*
X135672888Y-133436605D01*
X136330407Y-133239298D01*
X136936799Y-132917506D01*
X137468761Y-132483596D01*
X137905850Y-131954243D01*
X138231269Y-131349790D01*
X138432512Y-130693465D01*
X138436605Y-130672888D01*
X138340699Y-130127000D01*
X135127000Y-130127000D01*
X134873000Y-130127000D01*
X131659301Y-130127000D01*
X131563395Y-130672888D01*
X123436605Y-130672888D01*
X123340699Y-130127000D01*
X120127000Y-130127000D01*
X119873000Y-130127000D01*
X116659301Y-130127000D01*
X116563395Y-130672888D01*
X108436605Y-130672888D01*
X108340699Y-130127000D01*
X105127000Y-130127000D01*
X104873000Y-130127000D01*
X101659301Y-130127000D01*
X101563395Y-130672888D01*
X93436605Y-130672888D01*
X93340699Y-130127000D01*
X90127000Y-130127000D01*
X89873000Y-130127000D01*
X86659301Y-130127000D01*
X86563395Y-130672888D01*
X84560863Y-130672888D01*
X83835000Y-129947026D01*
X83835000Y-129327112D01*
X86563395Y-129327112D01*
X86659301Y-129873000D01*
X89873000Y-129873000D01*
X89873000Y-126659301D01*
X90127000Y-126659301D01*
X90127000Y-129873000D01*
X93340699Y-129873000D01*
X93436605Y-129327112D01*
X101563395Y-129327112D01*
X101659301Y-129873000D01*
X104873000Y-129873000D01*
X104873000Y-126659301D01*
X105127000Y-126659301D01*
X105127000Y-129873000D01*
X108340699Y-129873000D01*
X108436605Y-129327112D01*
X116563395Y-129327112D01*
X116659301Y-129873000D01*
X119873000Y-129873000D01*
X119873000Y-126659301D01*
X120127000Y-126659301D01*
X120127000Y-129873000D01*
X123340699Y-129873000D01*
X123436605Y-129327112D01*
X131563395Y-129327112D01*
X131659301Y-129873000D01*
X134873000Y-129873000D01*
X134873000Y-126659301D01*
X135127000Y-126659301D01*
X135127000Y-129873000D01*
X138340699Y-129873000D01*
X138436605Y-129327112D01*
X138239298Y-128669593D01*
X137917506Y-128063201D01*
X137483596Y-127531239D01*
X136954243Y-127094150D01*
X136349790Y-126768731D01*
X135693465Y-126567488D01*
X135672888Y-126563395D01*
X135127000Y-126659301D01*
X134873000Y-126659301D01*
X134327112Y-126563395D01*
X133669593Y-126760702D01*
X133063201Y-127082494D01*
X132531239Y-127516404D01*
X132094150Y-128045757D01*
X131768731Y-128650210D01*
X131567488Y-129306535D01*
X131563395Y-129327112D01*
X123436605Y-129327112D01*
X123239298Y-128669593D01*
X122917506Y-128063201D01*
X122483596Y-127531239D01*
X121954243Y-127094150D01*
X121349790Y-126768731D01*
X120693465Y-126567488D01*
X120672888Y-126563395D01*
X120127000Y-126659301D01*
X119873000Y-126659301D01*
X119327112Y-126563395D01*
X118669593Y-126760702D01*
X118063201Y-127082494D01*
X117531239Y-127516404D01*
X117094150Y-128045757D01*
X116768731Y-128650210D01*
X116567488Y-129306535D01*
X116563395Y-129327112D01*
X108436605Y-129327112D01*
X108239298Y-128669593D01*
X107917506Y-128063201D01*
X107483596Y-127531239D01*
X106954243Y-127094150D01*
X106349790Y-126768731D01*
X105693465Y-126567488D01*
X105672888Y-126563395D01*
X105127000Y-126659301D01*
X104873000Y-126659301D01*
X104327112Y-126563395D01*
X103669593Y-126760702D01*
X103063201Y-127082494D01*
X102531239Y-127516404D01*
X102094150Y-128045757D01*
X101768731Y-128650210D01*
X101567488Y-129306535D01*
X101563395Y-129327112D01*
X93436605Y-129327112D01*
X93239298Y-128669593D01*
X92917506Y-128063201D01*
X92483596Y-127531239D01*
X91954243Y-127094150D01*
X91349790Y-126768731D01*
X90693465Y-126567488D01*
X90672888Y-126563395D01*
X90127000Y-126659301D01*
X89873000Y-126659301D01*
X89327112Y-126563395D01*
X88669593Y-126760702D01*
X88063201Y-127082494D01*
X87531239Y-127516404D01*
X87094150Y-128045757D01*
X86768731Y-128650210D01*
X86567488Y-129306535D01*
X86563395Y-129327112D01*
X83835000Y-129327112D01*
X83835000Y-129052974D01*
X84083614Y-128804360D01*
X84386936Y-129107682D01*
X84483627Y-129187034D01*
X84593941Y-129245999D01*
X84713639Y-129282309D01*
X84838121Y-129294569D01*
X84962603Y-129282309D01*
X85082301Y-129245999D01*
X85192615Y-129187034D01*
X85289306Y-129107682D01*
X87198494Y-127198494D01*
X87277846Y-127101803D01*
X87336811Y-126991489D01*
X87373121Y-126871791D01*
X87385381Y-126747309D01*
X87373121Y-126622827D01*
X87336811Y-126503129D01*
X87277846Y-126392815D01*
X87198494Y-126296124D01*
X86905044Y-126002674D01*
X87072719Y-125835000D01*
X96828503Y-125835000D01*
X96773745Y-125937443D01*
X96737435Y-126057141D01*
X96725175Y-126181623D01*
X96737435Y-126306105D01*
X96773745Y-126425803D01*
X96832710Y-126536117D01*
X96912062Y-126632808D01*
X99386936Y-129107682D01*
X99483627Y-129187034D01*
X99593941Y-129245999D01*
X99713639Y-129282309D01*
X99838121Y-129294569D01*
X99962603Y-129282309D01*
X100082301Y-129245999D01*
X100192615Y-129187034D01*
X100289306Y-129107682D01*
X102198494Y-127198494D01*
X102277846Y-127101803D01*
X102336811Y-126991489D01*
X102373121Y-126871791D01*
X102385381Y-126747309D01*
X102373121Y-126622827D01*
X102336811Y-126503129D01*
X102277846Y-126392815D01*
X102198494Y-126296124D01*
X101905044Y-126002674D01*
X102072719Y-125835000D01*
X111828503Y-125835000D01*
X111773745Y-125937443D01*
X111737435Y-126057141D01*
X111725175Y-126181623D01*
X111737435Y-126306105D01*
X111773745Y-126425803D01*
X111832710Y-126536117D01*
X111912062Y-126632808D01*
X114386936Y-129107682D01*
X114483627Y-129187034D01*
X114593941Y-129245999D01*
X114713639Y-129282309D01*
X114838121Y-129294569D01*
X114962603Y-129282309D01*
X115082301Y-129245999D01*
X115192615Y-129187034D01*
X115289306Y-129107682D01*
X117198494Y-127198494D01*
X117277846Y-127101803D01*
X117336811Y-126991489D01*
X117373121Y-126871791D01*
X117385381Y-126747309D01*
X117373121Y-126622827D01*
X117336811Y-126503129D01*
X117277846Y-126392815D01*
X117198494Y-126296124D01*
X116905044Y-126002674D01*
X117072719Y-125835000D01*
X126828503Y-125835000D01*
X126773745Y-125937443D01*
X126737435Y-126057141D01*
X126725175Y-126181623D01*
X126737435Y-126306105D01*
X126773745Y-126425803D01*
X126832710Y-126536117D01*
X126912062Y-126632808D01*
X129386936Y-129107682D01*
X129483627Y-129187034D01*
X129593941Y-129245999D01*
X129713639Y-129282309D01*
X129838121Y-129294569D01*
X129962603Y-129282309D01*
X130082301Y-129245999D01*
X130192615Y-129187034D01*
X130289306Y-129107682D01*
X132198494Y-127198494D01*
X132277846Y-127101803D01*
X132336811Y-126991489D01*
X132373121Y-126871791D01*
X132385381Y-126747309D01*
X132373121Y-126622827D01*
X132336811Y-126503129D01*
X132277846Y-126392815D01*
X132198494Y-126296124D01*
X131603251Y-125700881D01*
X147478724Y-125700881D01*
X147838912Y-126190548D01*
X148502882Y-126550849D01*
X149224385Y-126774694D01*
X149975695Y-126853480D01*
X150727938Y-126784178D01*
X151452208Y-126569452D01*
X152120670Y-126217555D01*
X152161088Y-126190548D01*
X152521276Y-125700881D01*
X150000000Y-123179605D01*
X147478724Y-125700881D01*
X131603251Y-125700881D01*
X129723620Y-123821250D01*
X129626929Y-123741898D01*
X129516615Y-123682933D01*
X129396917Y-123646623D01*
X129272435Y-123634363D01*
X129147953Y-123646623D01*
X129028255Y-123682933D01*
X128917941Y-123741898D01*
X128821250Y-123821250D01*
X128810643Y-123831857D01*
X128581178Y-123602392D01*
X128539367Y-123551445D01*
X128336087Y-123384618D01*
X128104166Y-123260653D01*
X127852518Y-123184317D01*
X127656391Y-123165000D01*
X127590812Y-123158541D01*
X127525233Y-123165000D01*
X116585319Y-123165000D01*
X116519743Y-123158541D01*
X116454167Y-123165000D01*
X116454165Y-123165000D01*
X116258038Y-123184317D01*
X116006390Y-123260653D01*
X115774469Y-123384618D01*
X115571189Y-123551445D01*
X115529383Y-123602387D01*
X115017070Y-124114700D01*
X114723620Y-123821250D01*
X114626929Y-123741898D01*
X114516615Y-123682933D01*
X114396917Y-123646623D01*
X114272435Y-123634363D01*
X114147953Y-123646623D01*
X114028255Y-123682933D01*
X113917941Y-123741898D01*
X113821250Y-123821250D01*
X113810643Y-123831857D01*
X113581178Y-123602392D01*
X113539367Y-123551445D01*
X113336087Y-123384618D01*
X113104166Y-123260653D01*
X112852518Y-123184317D01*
X112656391Y-123165000D01*
X112590812Y-123158541D01*
X112525233Y-123165000D01*
X101585319Y-123165000D01*
X101519743Y-123158541D01*
X101454167Y-123165000D01*
X101454165Y-123165000D01*
X101258038Y-123184317D01*
X101006390Y-123260653D01*
X100774469Y-123384618D01*
X100571189Y-123551445D01*
X100529383Y-123602387D01*
X100017070Y-124114700D01*
X99723620Y-123821250D01*
X99626929Y-123741898D01*
X99516615Y-123682933D01*
X99396917Y-123646623D01*
X99272435Y-123634363D01*
X99147953Y-123646623D01*
X99028255Y-123682933D01*
X98917941Y-123741898D01*
X98821250Y-123821250D01*
X98810643Y-123831857D01*
X98581178Y-123602392D01*
X98539367Y-123551445D01*
X98336087Y-123384618D01*
X98104166Y-123260653D01*
X97852518Y-123184317D01*
X97656391Y-123165000D01*
X97590812Y-123158541D01*
X97525233Y-123165000D01*
X92314253Y-123165000D01*
X92391589Y-123020314D01*
X92442195Y-122853490D01*
X92442916Y-122846165D01*
X92455000Y-122723477D01*
X92455000Y-122723469D01*
X92459281Y-122680000D01*
X92455000Y-122636531D01*
X92455000Y-122287609D01*
X139926550Y-122287609D01*
X139947567Y-122445775D01*
X139999035Y-122596802D01*
X140078980Y-122734885D01*
X140184327Y-122854719D01*
X140311028Y-122951698D01*
X140454214Y-123022096D01*
X140608384Y-123063207D01*
X140767609Y-123073450D01*
X140925775Y-123052433D01*
X141076802Y-123000965D01*
X141214885Y-122921020D01*
X141334719Y-122815673D01*
X141364822Y-122776344D01*
X141385565Y-122799251D01*
X141434327Y-122854719D01*
X141439100Y-122858372D01*
X141443130Y-122862823D01*
X141502429Y-122906845D01*
X141561028Y-122951698D01*
X141566412Y-122954345D01*
X141571241Y-122957930D01*
X141638009Y-122989546D01*
X141704214Y-123022096D01*
X141710018Y-123023644D01*
X141715448Y-123026215D01*
X141787040Y-123044182D01*
X141858384Y-123063207D01*
X141864382Y-123063593D01*
X141870204Y-123065054D01*
X141943932Y-123068710D01*
X142017609Y-123073450D01*
X142023560Y-123072659D01*
X142029564Y-123072957D01*
X142102642Y-123062151D01*
X142175775Y-123052433D01*
X142181458Y-123050496D01*
X142187404Y-123049617D01*
X142256913Y-123024782D01*
X142326802Y-123000965D01*
X142332005Y-122997953D01*
X142337658Y-122995933D01*
X142400988Y-122958014D01*
X142464885Y-122921020D01*
X142469395Y-122917055D01*
X142474551Y-122913968D01*
X142529289Y-122864402D01*
X142584719Y-122815673D01*
X142588369Y-122810904D01*
X142592823Y-122806871D01*
X142615268Y-122776636D01*
X142690806Y-122860707D01*
X142818551Y-122956308D01*
X142962491Y-123025149D01*
X143117097Y-123064586D01*
X143276425Y-123073103D01*
X143434354Y-123050373D01*
X143584814Y-122997270D01*
X143621164Y-122975695D01*
X146146520Y-122975695D01*
X146215822Y-123727938D01*
X146430548Y-124452208D01*
X146782445Y-125120670D01*
X146809452Y-125161088D01*
X147299119Y-125521276D01*
X149820395Y-123000000D01*
X150179605Y-123000000D01*
X152700881Y-125521276D01*
X153190548Y-125161088D01*
X153550849Y-124497118D01*
X153774694Y-123775615D01*
X153853480Y-123024305D01*
X153784178Y-122272062D01*
X153569452Y-121547792D01*
X153217555Y-120879330D01*
X153190548Y-120838912D01*
X152700881Y-120478724D01*
X150179605Y-123000000D01*
X149820395Y-123000000D01*
X147299119Y-120478724D01*
X146809452Y-120838912D01*
X146449151Y-121502882D01*
X146225306Y-122224385D01*
X146146520Y-122975695D01*
X143621164Y-122975695D01*
X143722022Y-122915834D01*
X143840707Y-122809194D01*
X143936308Y-122681449D01*
X144005149Y-122537508D01*
X144044586Y-122382902D01*
X144053103Y-122223574D01*
X144036069Y-122105221D01*
X143771889Y-121030888D01*
X143770946Y-121021957D01*
X143768954Y-121012603D01*
X143638954Y-120422603D01*
X143637297Y-120417511D01*
X143636579Y-120412213D01*
X143616637Y-120354025D01*
X143598770Y-120299119D01*
X147478724Y-120299119D01*
X150000000Y-122820395D01*
X152521276Y-120299119D01*
X152161088Y-119809452D01*
X151497118Y-119449151D01*
X150775615Y-119225306D01*
X150024305Y-119146520D01*
X149272062Y-119215822D01*
X148547792Y-119430548D01*
X147879330Y-119782445D01*
X147838912Y-119809452D01*
X147478724Y-120299119D01*
X143598770Y-120299119D01*
X143597584Y-120295476D01*
X143594971Y-120290806D01*
X143593237Y-120285746D01*
X143562365Y-120232527D01*
X143550697Y-120211671D01*
X143532434Y-120074225D01*
X143480965Y-119923198D01*
X143401020Y-119785115D01*
X143295673Y-119665281D01*
X143168972Y-119568302D01*
X143025786Y-119497904D01*
X142871617Y-119456793D01*
X142712390Y-119446550D01*
X142554224Y-119467566D01*
X142403197Y-119519035D01*
X142265114Y-119598980D01*
X142145280Y-119704327D01*
X142115178Y-119743655D01*
X142094420Y-119720731D01*
X142045673Y-119665281D01*
X142040904Y-119661630D01*
X142036871Y-119657177D01*
X141977569Y-119613153D01*
X141918972Y-119568302D01*
X141913585Y-119565654D01*
X141908758Y-119562070D01*
X141842031Y-119530473D01*
X141775786Y-119497904D01*
X141769978Y-119496355D01*
X141764552Y-119493786D01*
X141693011Y-119475831D01*
X141621617Y-119456793D01*
X141615616Y-119456407D01*
X141609795Y-119454946D01*
X141536070Y-119451290D01*
X141462390Y-119446550D01*
X141456439Y-119447341D01*
X141450436Y-119447043D01*
X141377403Y-119457842D01*
X141304224Y-119467566D01*
X141298535Y-119469505D01*
X141292596Y-119470383D01*
X141223136Y-119495200D01*
X141153197Y-119519035D01*
X141147993Y-119522048D01*
X141142342Y-119524067D01*
X141079065Y-119561955D01*
X141015114Y-119598980D01*
X141010598Y-119602950D01*
X141005449Y-119606033D01*
X140950764Y-119655550D01*
X140895280Y-119704327D01*
X140891627Y-119709099D01*
X140887177Y-119713129D01*
X140843185Y-119772388D01*
X140798301Y-119831028D01*
X140795651Y-119836419D01*
X140792070Y-119841242D01*
X140760500Y-119907912D01*
X140745544Y-119938333D01*
X140743444Y-119943934D01*
X140723786Y-119985448D01*
X140715510Y-120018424D01*
X139967602Y-122012848D01*
X139936793Y-122128384D01*
X139926550Y-122287609D01*
X92455000Y-122287609D01*
X92455000Y-121414656D01*
X92516632Y-121373475D01*
X92723475Y-121166632D01*
X92840000Y-120992240D01*
X92956525Y-121166632D01*
X93163368Y-121373475D01*
X93406589Y-121535990D01*
X93676842Y-121647932D01*
X93963740Y-121705000D01*
X94256260Y-121705000D01*
X94543158Y-121647932D01*
X94813411Y-121535990D01*
X95056632Y-121373475D01*
X95263475Y-121166632D01*
X95380000Y-120992240D01*
X95496525Y-121166632D01*
X95703368Y-121373475D01*
X95946589Y-121535990D01*
X96216842Y-121647932D01*
X96503740Y-121705000D01*
X96796260Y-121705000D01*
X97083158Y-121647932D01*
X97353411Y-121535990D01*
X97596632Y-121373475D01*
X97803475Y-121166632D01*
X97965990Y-120923411D01*
X98077932Y-120653158D01*
X98135000Y-120366260D01*
X98135000Y-120073740D01*
X98077932Y-119786842D01*
X97965990Y-119516589D01*
X97803475Y-119273368D01*
X97596632Y-119066525D01*
X97353411Y-118904010D01*
X97083158Y-118792068D01*
X96796260Y-118735000D01*
X96503740Y-118735000D01*
X96216842Y-118792068D01*
X95946589Y-118904010D01*
X95703368Y-119066525D01*
X95496525Y-119273368D01*
X95380000Y-119447760D01*
X95263475Y-119273368D01*
X95056632Y-119066525D01*
X94813411Y-118904010D01*
X94543158Y-118792068D01*
X94256260Y-118735000D01*
X93963740Y-118735000D01*
X93891040Y-118749461D01*
X93851578Y-118710000D01*
X149968382Y-118710000D01*
X150759192Y-118780578D01*
G37*
X150759192Y-118780578D02*
X151494389Y-118981705D01*
X152182351Y-119309846D01*
X152801331Y-119754628D01*
X153331761Y-120301988D01*
X153756884Y-120934639D01*
X154063251Y-121632561D01*
X154242499Y-122379183D01*
X154290000Y-123026030D01*
X154290001Y-139968370D01*
X154219422Y-140759193D01*
X154018295Y-141494389D01*
X153690152Y-142182355D01*
X153245374Y-142801328D01*
X152698012Y-143331761D01*
X152065362Y-143756883D01*
X151367439Y-144063251D01*
X150620819Y-144242499D01*
X149973970Y-144290000D01*
X104423710Y-144290000D01*
X106012829Y-142700881D01*
X147478724Y-142700881D01*
X147838912Y-143190548D01*
X148502882Y-143550849D01*
X149224385Y-143774694D01*
X149975695Y-143853480D01*
X150727938Y-143784178D01*
X151452208Y-143569452D01*
X152120670Y-143217555D01*
X152161088Y-143190548D01*
X152521276Y-142700881D01*
X150000000Y-140179605D01*
X147478724Y-142700881D01*
X106012829Y-142700881D01*
X106258711Y-142455000D01*
X106416260Y-142455000D01*
X106703158Y-142397932D01*
X106973411Y-142285990D01*
X107216632Y-142123475D01*
X107423475Y-141916632D01*
X107540000Y-141742240D01*
X107656525Y-141916632D01*
X107863368Y-142123475D01*
X108106589Y-142285990D01*
X108376842Y-142397932D01*
X108663740Y-142455000D01*
X108956260Y-142455000D01*
X109243158Y-142397932D01*
X109513411Y-142285990D01*
X109756632Y-142123475D01*
X109963475Y-141916632D01*
X110080000Y-141742240D01*
X110196525Y-141916632D01*
X110403368Y-142123475D01*
X110646589Y-142285990D01*
X110916842Y-142397932D01*
X111203740Y-142455000D01*
X111496260Y-142455000D01*
X111783158Y-142397932D01*
X112053411Y-142285990D01*
X112296632Y-142123475D01*
X112503475Y-141916632D01*
X112620000Y-141742240D01*
X112736525Y-141916632D01*
X112943368Y-142123475D01*
X113186589Y-142285990D01*
X113456842Y-142397932D01*
X113743740Y-142455000D01*
X114036260Y-142455000D01*
X114323158Y-142397932D01*
X114593411Y-142285990D01*
X114836632Y-142123475D01*
X115043475Y-141916632D01*
X115160000Y-141742240D01*
X115276525Y-141916632D01*
X115483368Y-142123475D01*
X115726589Y-142285990D01*
X115996842Y-142397932D01*
X116283740Y-142455000D01*
X116576260Y-142455000D01*
X116863158Y-142397932D01*
X117133411Y-142285990D01*
X117376632Y-142123475D01*
X117465107Y-142035000D01*
X132929428Y-142035000D01*
X132980256Y-142040006D01*
X133031084Y-142035000D01*
X133031094Y-142035000D01*
X133183151Y-142020024D01*
X133378249Y-141960841D01*
X133558053Y-141864734D01*
X133715652Y-141735396D01*
X133748063Y-141695903D01*
X135468271Y-139975695D01*
X146146520Y-139975695D01*
X146215822Y-140727938D01*
X146430548Y-141452208D01*
X146782445Y-142120670D01*
X146809452Y-142161088D01*
X147299119Y-142521276D01*
X149820395Y-140000000D01*
X150179605Y-140000000D01*
X152700881Y-142521276D01*
X153190548Y-142161088D01*
X153550849Y-141497118D01*
X153774694Y-140775615D01*
X153853480Y-140024305D01*
X153784178Y-139272062D01*
X153569452Y-138547792D01*
X153217555Y-137879330D01*
X153190548Y-137838912D01*
X152700881Y-137478724D01*
X150179605Y-140000000D01*
X149820395Y-140000000D01*
X147299119Y-137478724D01*
X146809452Y-137838912D01*
X146449151Y-138502882D01*
X146225306Y-139224385D01*
X146146520Y-139975695D01*
X135468271Y-139975695D01*
X138144847Y-137299119D01*
X147478724Y-137299119D01*
X150000000Y-139820395D01*
X152521276Y-137299119D01*
X152161088Y-136809452D01*
X151497118Y-136449151D01*
X150775615Y-136225306D01*
X150024305Y-136146520D01*
X149272062Y-136215822D01*
X148547792Y-136430548D01*
X147879330Y-136782445D01*
X147838912Y-136809452D01*
X147478724Y-137299119D01*
X138144847Y-137299119D01*
X139770798Y-135673168D01*
X140276380Y-136178750D01*
X140373071Y-136258102D01*
X140483385Y-136317067D01*
X140603083Y-136353377D01*
X140727565Y-136365637D01*
X140852047Y-136353377D01*
X140971745Y-136317067D01*
X141082059Y-136258102D01*
X141178750Y-136178750D01*
X143087938Y-134269562D01*
X143167290Y-134172871D01*
X143226255Y-134062557D01*
X143262565Y-133942859D01*
X143274825Y-133818377D01*
X143262565Y-133693895D01*
X143226255Y-133574197D01*
X143167290Y-133463883D01*
X143087938Y-133367192D01*
X140613064Y-130892318D01*
X140516373Y-130812966D01*
X140406059Y-130754001D01*
X140286361Y-130717691D01*
X140161879Y-130705431D01*
X140037397Y-130717691D01*
X139917699Y-130754001D01*
X139807385Y-130812966D01*
X139710694Y-130892318D01*
X137801506Y-132801506D01*
X137722154Y-132898197D01*
X137663189Y-133008511D01*
X137626879Y-133128209D01*
X137614619Y-133252691D01*
X137626879Y-133377173D01*
X137663189Y-133496871D01*
X137722154Y-133607185D01*
X137801506Y-133703876D01*
X138307088Y-134209458D01*
X132551546Y-139965000D01*
X117525107Y-139965000D01*
X117376632Y-139816525D01*
X117133411Y-139654010D01*
X116863158Y-139542068D01*
X116827625Y-139535000D01*
X120429428Y-139535000D01*
X120480256Y-139540006D01*
X120531084Y-139535000D01*
X120531094Y-139535000D01*
X120683151Y-139520024D01*
X120878249Y-139460841D01*
X121058053Y-139364734D01*
X121215652Y-139235396D01*
X121248063Y-139195903D01*
X124770798Y-135673168D01*
X125276380Y-136178750D01*
X125373071Y-136258102D01*
X125483385Y-136317067D01*
X125603083Y-136353377D01*
X125727565Y-136365637D01*
X125852047Y-136353377D01*
X125971745Y-136317067D01*
X126082059Y-136258102D01*
X126178750Y-136178750D01*
X128087938Y-134269562D01*
X128167290Y-134172871D01*
X128226255Y-134062557D01*
X128262565Y-133942859D01*
X128274825Y-133818377D01*
X128262565Y-133693895D01*
X128226255Y-133574197D01*
X128167290Y-133463883D01*
X128087938Y-133367192D01*
X125613064Y-130892318D01*
X125516373Y-130812966D01*
X125406059Y-130754001D01*
X125286361Y-130717691D01*
X125161879Y-130705431D01*
X125037397Y-130717691D01*
X124917699Y-130754001D01*
X124807385Y-130812966D01*
X124710694Y-130892318D01*
X122801506Y-132801506D01*
X122722154Y-132898197D01*
X122663189Y-133008511D01*
X122626879Y-133128209D01*
X122614619Y-133252691D01*
X122626879Y-133377173D01*
X122663189Y-133496871D01*
X122722154Y-133607185D01*
X122801506Y-133703876D01*
X123307088Y-134209458D01*
X120051546Y-137465000D01*
X115218754Y-137465000D01*
X115167919Y-137459993D01*
X115117084Y-137465000D01*
X115117081Y-137465000D01*
X114965024Y-137479976D01*
X114769926Y-137539159D01*
X114686228Y-137583896D01*
X114590121Y-137635266D01*
X114489947Y-137717477D01*
X114432523Y-137764604D01*
X114400116Y-137804092D01*
X113174092Y-139030117D01*
X113134605Y-139062523D01*
X113102198Y-139102011D01*
X113102197Y-139102012D01*
X113005266Y-139220122D01*
X112909160Y-139399926D01*
X112849977Y-139595024D01*
X112829994Y-139797919D01*
X112835001Y-139848756D01*
X112835001Y-139924892D01*
X112736525Y-140023368D01*
X112620000Y-140197760D01*
X112503475Y-140023368D01*
X112365000Y-139884893D01*
X112365000Y-134992500D01*
X113087938Y-134269562D01*
X113167290Y-134172871D01*
X113226255Y-134062557D01*
X113262565Y-133942859D01*
X113274825Y-133818377D01*
X113262565Y-133693895D01*
X113226255Y-133574197D01*
X113167290Y-133463883D01*
X113087938Y-133367192D01*
X110613064Y-130892318D01*
X110516373Y-130812966D01*
X110406059Y-130754001D01*
X110286361Y-130717691D01*
X110161879Y-130705431D01*
X110037397Y-130717691D01*
X109917699Y-130754001D01*
X109807385Y-130812966D01*
X109710694Y-130892318D01*
X107801506Y-132801506D01*
X107722154Y-132898197D01*
X107663189Y-133008511D01*
X107626879Y-133128209D01*
X107614619Y-133252691D01*
X107626879Y-133377173D01*
X107663189Y-133496871D01*
X107722154Y-133607185D01*
X107801506Y-133703876D01*
X110276380Y-136178750D01*
X110295001Y-136194032D01*
X110295000Y-139924893D01*
X110196525Y-140023368D01*
X110080000Y-140197760D01*
X109963475Y-140023368D01*
X109825000Y-139884893D01*
X109825000Y-139840835D01*
X109830007Y-139790000D01*
X109825000Y-139739162D01*
X109810024Y-139587105D01*
X109753243Y-139399926D01*
X109750841Y-139392006D01*
X109654734Y-139212202D01*
X109557803Y-139094092D01*
X109525396Y-139054604D01*
X109485908Y-139022197D01*
X106267807Y-135804097D01*
X106235396Y-135764604D01*
X106077797Y-135635266D01*
X105897993Y-135539159D01*
X105702895Y-135479976D01*
X105550838Y-135465000D01*
X105550828Y-135465000D01*
X105500000Y-135459994D01*
X105449172Y-135465000D01*
X103928711Y-135465000D01*
X101303341Y-132839631D01*
X101270930Y-132800138D01*
X101113331Y-132670800D01*
X100933527Y-132574693D01*
X100738429Y-132515510D01*
X100586372Y-132500534D01*
X100586362Y-132500534D01*
X100535534Y-132495528D01*
X100484706Y-132500534D01*
X97221280Y-132500534D01*
X95613064Y-130892318D01*
X95516373Y-130812966D01*
X95406059Y-130754001D01*
X95286361Y-130717691D01*
X95161879Y-130705431D01*
X95037397Y-130717691D01*
X94917699Y-130754001D01*
X94807385Y-130812966D01*
X94710694Y-130892318D01*
X92801506Y-132801506D01*
X92722154Y-132898197D01*
X92663189Y-133008511D01*
X92626879Y-133128209D01*
X92614619Y-133252691D01*
X92626879Y-133377173D01*
X92663189Y-133496871D01*
X92722154Y-133607185D01*
X92801506Y-133703876D01*
X95276380Y-136178750D01*
X95373071Y-136258102D01*
X95483385Y-136317067D01*
X95603083Y-136353377D01*
X95727565Y-136365637D01*
X95852047Y-136353377D01*
X95971745Y-136317067D01*
X96082059Y-136258102D01*
X96178750Y-136178750D01*
X97786966Y-134570534D01*
X100106824Y-134570534D01*
X102732196Y-137195907D01*
X102764604Y-137235396D01*
X102804092Y-137267803D01*
X102922202Y-137364734D01*
X102947916Y-137378478D01*
X103102007Y-137460841D01*
X103297105Y-137520024D01*
X103449162Y-137535000D01*
X103449171Y-137535000D01*
X103499999Y-137540006D01*
X103550827Y-137535000D01*
X105071290Y-137535000D01*
X107617725Y-140081436D01*
X107540000Y-140197760D01*
X107423475Y-140023368D01*
X107216632Y-139816525D01*
X106973411Y-139654010D01*
X106703158Y-139542068D01*
X106416260Y-139485000D01*
X106123740Y-139485000D01*
X105836842Y-139542068D01*
X105566589Y-139654010D01*
X105323368Y-139816525D01*
X105116525Y-140023368D01*
X105000000Y-140197760D01*
X104883475Y-140023368D01*
X104676632Y-139816525D01*
X104433411Y-139654010D01*
X104163158Y-139542068D01*
X103876260Y-139485000D01*
X103583740Y-139485000D01*
X103296842Y-139542068D01*
X103026589Y-139654010D01*
X103010141Y-139665000D01*
X102505000Y-139665000D01*
X102505000Y-139235579D01*
X102511459Y-139170000D01*
X102485683Y-138908294D01*
X102454933Y-138806925D01*
X102409347Y-138656646D01*
X102285382Y-138424725D01*
X102188309Y-138306441D01*
X102160359Y-138272383D01*
X102160357Y-138272381D01*
X102118555Y-138221445D01*
X102067618Y-138179643D01*
X100990365Y-137102391D01*
X100948555Y-137051445D01*
X100745275Y-136884618D01*
X100513354Y-136760653D01*
X100261706Y-136684317D01*
X100065579Y-136665000D01*
X100000000Y-136658541D01*
X99934421Y-136665000D01*
X90552975Y-136665000D01*
X84560863Y-130672888D01*
X86563395Y-130672888D01*
X86760702Y-131330407D01*
X87082494Y-131936799D01*
X87516404Y-132468761D01*
X88045757Y-132905850D01*
X88650210Y-133231269D01*
X89306535Y-133432512D01*
X89327112Y-133436605D01*
X89873000Y-133340699D01*
X89873000Y-130127000D01*
X90127000Y-130127000D01*
X90127000Y-133340699D01*
X90672888Y-133436605D01*
X91330407Y-133239298D01*
X91936799Y-132917506D01*
X92468761Y-132483596D01*
X92905850Y-131954243D01*
X93231269Y-131349790D01*
X93432512Y-130693465D01*
X93436605Y-130672888D01*
X101563395Y-130672888D01*
X101760702Y-131330407D01*
X102082494Y-131936799D01*
X102516404Y-132468761D01*
X103045757Y-132905850D01*
X103650210Y-133231269D01*
X104306535Y-133432512D01*
X104327112Y-133436605D01*
X104873000Y-133340699D01*
X104873000Y-130127000D01*
X105127000Y-130127000D01*
X105127000Y-133340699D01*
X105672888Y-133436605D01*
X106330407Y-133239298D01*
X106936799Y-132917506D01*
X107468761Y-132483596D01*
X107905850Y-131954243D01*
X108231269Y-131349790D01*
X108432512Y-130693465D01*
X108436605Y-130672888D01*
X116563395Y-130672888D01*
X116760702Y-131330407D01*
X117082494Y-131936799D01*
X117516404Y-132468761D01*
X118045757Y-132905850D01*
X118650210Y-133231269D01*
X119306535Y-133432512D01*
X119327112Y-133436605D01*
X119873000Y-133340699D01*
X119873000Y-130127000D01*
X120127000Y-130127000D01*
X120127000Y-133340699D01*
X120672888Y-133436605D01*
X121330407Y-133239298D01*
X121936799Y-132917506D01*
X122468761Y-132483596D01*
X122905850Y-131954243D01*
X123231269Y-131349790D01*
X123432512Y-130693465D01*
X123436605Y-130672888D01*
X131563395Y-130672888D01*
X131760702Y-131330407D01*
X132082494Y-131936799D01*
X132516404Y-132468761D01*
X133045757Y-132905850D01*
X133650210Y-133231269D01*
X134306535Y-133432512D01*
X134327112Y-133436605D01*
X134873000Y-133340699D01*
X134873000Y-130127000D01*
X135127000Y-130127000D01*
X135127000Y-133340699D01*
X135672888Y-133436605D01*
X136330407Y-133239298D01*
X136936799Y-132917506D01*
X137468761Y-132483596D01*
X137905850Y-131954243D01*
X138231269Y-131349790D01*
X138432512Y-130693465D01*
X138436605Y-130672888D01*
X138340699Y-130127000D01*
X135127000Y-130127000D01*
X134873000Y-130127000D01*
X131659301Y-130127000D01*
X131563395Y-130672888D01*
X123436605Y-130672888D01*
X123340699Y-130127000D01*
X120127000Y-130127000D01*
X119873000Y-130127000D01*
X116659301Y-130127000D01*
X116563395Y-130672888D01*
X108436605Y-130672888D01*
X108340699Y-130127000D01*
X105127000Y-130127000D01*
X104873000Y-130127000D01*
X101659301Y-130127000D01*
X101563395Y-130672888D01*
X93436605Y-130672888D01*
X93340699Y-130127000D01*
X90127000Y-130127000D01*
X89873000Y-130127000D01*
X86659301Y-130127000D01*
X86563395Y-130672888D01*
X84560863Y-130672888D01*
X83835000Y-129947026D01*
X83835000Y-129327112D01*
X86563395Y-129327112D01*
X86659301Y-129873000D01*
X89873000Y-129873000D01*
X89873000Y-126659301D01*
X90127000Y-126659301D01*
X90127000Y-129873000D01*
X93340699Y-129873000D01*
X93436605Y-129327112D01*
X101563395Y-129327112D01*
X101659301Y-129873000D01*
X104873000Y-129873000D01*
X104873000Y-126659301D01*
X105127000Y-126659301D01*
X105127000Y-129873000D01*
X108340699Y-129873000D01*
X108436605Y-129327112D01*
X116563395Y-129327112D01*
X116659301Y-129873000D01*
X119873000Y-129873000D01*
X119873000Y-126659301D01*
X120127000Y-126659301D01*
X120127000Y-129873000D01*
X123340699Y-129873000D01*
X123436605Y-129327112D01*
X131563395Y-129327112D01*
X131659301Y-129873000D01*
X134873000Y-129873000D01*
X134873000Y-126659301D01*
X135127000Y-126659301D01*
X135127000Y-129873000D01*
X138340699Y-129873000D01*
X138436605Y-129327112D01*
X138239298Y-128669593D01*
X137917506Y-128063201D01*
X137483596Y-127531239D01*
X136954243Y-127094150D01*
X136349790Y-126768731D01*
X135693465Y-126567488D01*
X135672888Y-126563395D01*
X135127000Y-126659301D01*
X134873000Y-126659301D01*
X134327112Y-126563395D01*
X133669593Y-126760702D01*
X133063201Y-127082494D01*
X132531239Y-127516404D01*
X132094150Y-128045757D01*
X131768731Y-128650210D01*
X131567488Y-129306535D01*
X131563395Y-129327112D01*
X123436605Y-129327112D01*
X123239298Y-128669593D01*
X122917506Y-128063201D01*
X122483596Y-127531239D01*
X121954243Y-127094150D01*
X121349790Y-126768731D01*
X120693465Y-126567488D01*
X120672888Y-126563395D01*
X120127000Y-126659301D01*
X119873000Y-126659301D01*
X119327112Y-126563395D01*
X118669593Y-126760702D01*
X118063201Y-127082494D01*
X117531239Y-127516404D01*
X117094150Y-128045757D01*
X116768731Y-128650210D01*
X116567488Y-129306535D01*
X116563395Y-129327112D01*
X108436605Y-129327112D01*
X108239298Y-128669593D01*
X107917506Y-128063201D01*
X107483596Y-127531239D01*
X106954243Y-127094150D01*
X106349790Y-126768731D01*
X105693465Y-126567488D01*
X105672888Y-126563395D01*
X105127000Y-126659301D01*
X104873000Y-126659301D01*
X104327112Y-126563395D01*
X103669593Y-126760702D01*
X103063201Y-127082494D01*
X102531239Y-127516404D01*
X102094150Y-128045757D01*
X101768731Y-128650210D01*
X101567488Y-129306535D01*
X101563395Y-129327112D01*
X93436605Y-129327112D01*
X93239298Y-128669593D01*
X92917506Y-128063201D01*
X92483596Y-127531239D01*
X91954243Y-127094150D01*
X91349790Y-126768731D01*
X90693465Y-126567488D01*
X90672888Y-126563395D01*
X90127000Y-126659301D01*
X89873000Y-126659301D01*
X89327112Y-126563395D01*
X88669593Y-126760702D01*
X88063201Y-127082494D01*
X87531239Y-127516404D01*
X87094150Y-128045757D01*
X86768731Y-128650210D01*
X86567488Y-129306535D01*
X86563395Y-129327112D01*
X83835000Y-129327112D01*
X83835000Y-129052974D01*
X84083614Y-128804360D01*
X84386936Y-129107682D01*
X84483627Y-129187034D01*
X84593941Y-129245999D01*
X84713639Y-129282309D01*
X84838121Y-129294569D01*
X84962603Y-129282309D01*
X85082301Y-129245999D01*
X85192615Y-129187034D01*
X85289306Y-129107682D01*
X87198494Y-127198494D01*
X87277846Y-127101803D01*
X87336811Y-126991489D01*
X87373121Y-126871791D01*
X87385381Y-126747309D01*
X87373121Y-126622827D01*
X87336811Y-126503129D01*
X87277846Y-126392815D01*
X87198494Y-126296124D01*
X86905044Y-126002674D01*
X87072719Y-125835000D01*
X96828503Y-125835000D01*
X96773745Y-125937443D01*
X96737435Y-126057141D01*
X96725175Y-126181623D01*
X96737435Y-126306105D01*
X96773745Y-126425803D01*
X96832710Y-126536117D01*
X96912062Y-126632808D01*
X99386936Y-129107682D01*
X99483627Y-129187034D01*
X99593941Y-129245999D01*
X99713639Y-129282309D01*
X99838121Y-129294569D01*
X99962603Y-129282309D01*
X100082301Y-129245999D01*
X100192615Y-129187034D01*
X100289306Y-129107682D01*
X102198494Y-127198494D01*
X102277846Y-127101803D01*
X102336811Y-126991489D01*
X102373121Y-126871791D01*
X102385381Y-126747309D01*
X102373121Y-126622827D01*
X102336811Y-126503129D01*
X102277846Y-126392815D01*
X102198494Y-126296124D01*
X101905044Y-126002674D01*
X102072719Y-125835000D01*
X111828503Y-125835000D01*
X111773745Y-125937443D01*
X111737435Y-126057141D01*
X111725175Y-126181623D01*
X111737435Y-126306105D01*
X111773745Y-126425803D01*
X111832710Y-126536117D01*
X111912062Y-126632808D01*
X114386936Y-129107682D01*
X114483627Y-129187034D01*
X114593941Y-129245999D01*
X114713639Y-129282309D01*
X114838121Y-129294569D01*
X114962603Y-129282309D01*
X115082301Y-129245999D01*
X115192615Y-129187034D01*
X115289306Y-129107682D01*
X117198494Y-127198494D01*
X117277846Y-127101803D01*
X117336811Y-126991489D01*
X117373121Y-126871791D01*
X117385381Y-126747309D01*
X117373121Y-126622827D01*
X117336811Y-126503129D01*
X117277846Y-126392815D01*
X117198494Y-126296124D01*
X116905044Y-126002674D01*
X117072719Y-125835000D01*
X126828503Y-125835000D01*
X126773745Y-125937443D01*
X126737435Y-126057141D01*
X126725175Y-126181623D01*
X126737435Y-126306105D01*
X126773745Y-126425803D01*
X126832710Y-126536117D01*
X126912062Y-126632808D01*
X129386936Y-129107682D01*
X129483627Y-129187034D01*
X129593941Y-129245999D01*
X129713639Y-129282309D01*
X129838121Y-129294569D01*
X129962603Y-129282309D01*
X130082301Y-129245999D01*
X130192615Y-129187034D01*
X130289306Y-129107682D01*
X132198494Y-127198494D01*
X132277846Y-127101803D01*
X132336811Y-126991489D01*
X132373121Y-126871791D01*
X132385381Y-126747309D01*
X132373121Y-126622827D01*
X132336811Y-126503129D01*
X132277846Y-126392815D01*
X132198494Y-126296124D01*
X131603251Y-125700881D01*
X147478724Y-125700881D01*
X147838912Y-126190548D01*
X148502882Y-126550849D01*
X149224385Y-126774694D01*
X149975695Y-126853480D01*
X150727938Y-126784178D01*
X151452208Y-126569452D01*
X152120670Y-126217555D01*
X152161088Y-126190548D01*
X152521276Y-125700881D01*
X150000000Y-123179605D01*
X147478724Y-125700881D01*
X131603251Y-125700881D01*
X129723620Y-123821250D01*
X129626929Y-123741898D01*
X129516615Y-123682933D01*
X129396917Y-123646623D01*
X129272435Y-123634363D01*
X129147953Y-123646623D01*
X129028255Y-123682933D01*
X128917941Y-123741898D01*
X128821250Y-123821250D01*
X128810643Y-123831857D01*
X128581178Y-123602392D01*
X128539367Y-123551445D01*
X128336087Y-123384618D01*
X128104166Y-123260653D01*
X127852518Y-123184317D01*
X127656391Y-123165000D01*
X127590812Y-123158541D01*
X127525233Y-123165000D01*
X116585319Y-123165000D01*
X116519743Y-123158541D01*
X116454167Y-123165000D01*
X116454165Y-123165000D01*
X116258038Y-123184317D01*
X116006390Y-123260653D01*
X115774469Y-123384618D01*
X115571189Y-123551445D01*
X115529383Y-123602387D01*
X115017070Y-124114700D01*
X114723620Y-123821250D01*
X114626929Y-123741898D01*
X114516615Y-123682933D01*
X114396917Y-123646623D01*
X114272435Y-123634363D01*
X114147953Y-123646623D01*
X114028255Y-123682933D01*
X113917941Y-123741898D01*
X113821250Y-123821250D01*
X113810643Y-123831857D01*
X113581178Y-123602392D01*
X113539367Y-123551445D01*
X113336087Y-123384618D01*
X113104166Y-123260653D01*
X112852518Y-123184317D01*
X112656391Y-123165000D01*
X112590812Y-123158541D01*
X112525233Y-123165000D01*
X101585319Y-123165000D01*
X101519743Y-123158541D01*
X101454167Y-123165000D01*
X101454165Y-123165000D01*
X101258038Y-123184317D01*
X101006390Y-123260653D01*
X100774469Y-123384618D01*
X100571189Y-123551445D01*
X100529383Y-123602387D01*
X100017070Y-124114700D01*
X99723620Y-123821250D01*
X99626929Y-123741898D01*
X99516615Y-123682933D01*
X99396917Y-123646623D01*
X99272435Y-123634363D01*
X99147953Y-123646623D01*
X99028255Y-123682933D01*
X98917941Y-123741898D01*
X98821250Y-123821250D01*
X98810643Y-123831857D01*
X98581178Y-123602392D01*
X98539367Y-123551445D01*
X98336087Y-123384618D01*
X98104166Y-123260653D01*
X97852518Y-123184317D01*
X97656391Y-123165000D01*
X97590812Y-123158541D01*
X97525233Y-123165000D01*
X92314253Y-123165000D01*
X92391589Y-123020314D01*
X92442195Y-122853490D01*
X92442916Y-122846165D01*
X92455000Y-122723477D01*
X92455000Y-122723469D01*
X92459281Y-122680000D01*
X92455000Y-122636531D01*
X92455000Y-122287609D01*
X139926550Y-122287609D01*
X139947567Y-122445775D01*
X139999035Y-122596802D01*
X140078980Y-122734885D01*
X140184327Y-122854719D01*
X140311028Y-122951698D01*
X140454214Y-123022096D01*
X140608384Y-123063207D01*
X140767609Y-123073450D01*
X140925775Y-123052433D01*
X141076802Y-123000965D01*
X141214885Y-122921020D01*
X141334719Y-122815673D01*
X141364822Y-122776344D01*
X141385565Y-122799251D01*
X141434327Y-122854719D01*
X141439100Y-122858372D01*
X141443130Y-122862823D01*
X141502429Y-122906845D01*
X141561028Y-122951698D01*
X141566412Y-122954345D01*
X141571241Y-122957930D01*
X141638009Y-122989546D01*
X141704214Y-123022096D01*
X141710018Y-123023644D01*
X141715448Y-123026215D01*
X141787040Y-123044182D01*
X141858384Y-123063207D01*
X141864382Y-123063593D01*
X141870204Y-123065054D01*
X141943932Y-123068710D01*
X142017609Y-123073450D01*
X142023560Y-123072659D01*
X142029564Y-123072957D01*
X142102642Y-123062151D01*
X142175775Y-123052433D01*
X142181458Y-123050496D01*
X142187404Y-123049617D01*
X142256913Y-123024782D01*
X142326802Y-123000965D01*
X142332005Y-122997953D01*
X142337658Y-122995933D01*
X142400988Y-122958014D01*
X142464885Y-122921020D01*
X142469395Y-122917055D01*
X142474551Y-122913968D01*
X142529289Y-122864402D01*
X142584719Y-122815673D01*
X142588369Y-122810904D01*
X142592823Y-122806871D01*
X142615268Y-122776636D01*
X142690806Y-122860707D01*
X142818551Y-122956308D01*
X142962491Y-123025149D01*
X143117097Y-123064586D01*
X143276425Y-123073103D01*
X143434354Y-123050373D01*
X143584814Y-122997270D01*
X143621164Y-122975695D01*
X146146520Y-122975695D01*
X146215822Y-123727938D01*
X146430548Y-124452208D01*
X146782445Y-125120670D01*
X146809452Y-125161088D01*
X147299119Y-125521276D01*
X149820395Y-123000000D01*
X150179605Y-123000000D01*
X152700881Y-125521276D01*
X153190548Y-125161088D01*
X153550849Y-124497118D01*
X153774694Y-123775615D01*
X153853480Y-123024305D01*
X153784178Y-122272062D01*
X153569452Y-121547792D01*
X153217555Y-120879330D01*
X153190548Y-120838912D01*
X152700881Y-120478724D01*
X150179605Y-123000000D01*
X149820395Y-123000000D01*
X147299119Y-120478724D01*
X146809452Y-120838912D01*
X146449151Y-121502882D01*
X146225306Y-122224385D01*
X146146520Y-122975695D01*
X143621164Y-122975695D01*
X143722022Y-122915834D01*
X143840707Y-122809194D01*
X143936308Y-122681449D01*
X144005149Y-122537508D01*
X144044586Y-122382902D01*
X144053103Y-122223574D01*
X144036069Y-122105221D01*
X143771889Y-121030888D01*
X143770946Y-121021957D01*
X143768954Y-121012603D01*
X143638954Y-120422603D01*
X143637297Y-120417511D01*
X143636579Y-120412213D01*
X143616637Y-120354025D01*
X143598770Y-120299119D01*
X147478724Y-120299119D01*
X150000000Y-122820395D01*
X152521276Y-120299119D01*
X152161088Y-119809452D01*
X151497118Y-119449151D01*
X150775615Y-119225306D01*
X150024305Y-119146520D01*
X149272062Y-119215822D01*
X148547792Y-119430548D01*
X147879330Y-119782445D01*
X147838912Y-119809452D01*
X147478724Y-120299119D01*
X143598770Y-120299119D01*
X143597584Y-120295476D01*
X143594971Y-120290806D01*
X143593237Y-120285746D01*
X143562365Y-120232527D01*
X143550697Y-120211671D01*
X143532434Y-120074225D01*
X143480965Y-119923198D01*
X143401020Y-119785115D01*
X143295673Y-119665281D01*
X143168972Y-119568302D01*
X143025786Y-119497904D01*
X142871617Y-119456793D01*
X142712390Y-119446550D01*
X142554224Y-119467566D01*
X142403197Y-119519035D01*
X142265114Y-119598980D01*
X142145280Y-119704327D01*
X142115178Y-119743655D01*
X142094420Y-119720731D01*
X142045673Y-119665281D01*
X142040904Y-119661630D01*
X142036871Y-119657177D01*
X141977569Y-119613153D01*
X141918972Y-119568302D01*
X141913585Y-119565654D01*
X141908758Y-119562070D01*
X141842031Y-119530473D01*
X141775786Y-119497904D01*
X141769978Y-119496355D01*
X141764552Y-119493786D01*
X141693011Y-119475831D01*
X141621617Y-119456793D01*
X141615616Y-119456407D01*
X141609795Y-119454946D01*
X141536070Y-119451290D01*
X141462390Y-119446550D01*
X141456439Y-119447341D01*
X141450436Y-119447043D01*
X141377403Y-119457842D01*
X141304224Y-119467566D01*
X141298535Y-119469505D01*
X141292596Y-119470383D01*
X141223136Y-119495200D01*
X141153197Y-119519035D01*
X141147993Y-119522048D01*
X141142342Y-119524067D01*
X141079065Y-119561955D01*
X141015114Y-119598980D01*
X141010598Y-119602950D01*
X141005449Y-119606033D01*
X140950764Y-119655550D01*
X140895280Y-119704327D01*
X140891627Y-119709099D01*
X140887177Y-119713129D01*
X140843185Y-119772388D01*
X140798301Y-119831028D01*
X140795651Y-119836419D01*
X140792070Y-119841242D01*
X140760500Y-119907912D01*
X140745544Y-119938333D01*
X140743444Y-119943934D01*
X140723786Y-119985448D01*
X140715510Y-120018424D01*
X139967602Y-122012848D01*
X139936793Y-122128384D01*
X139926550Y-122287609D01*
X92455000Y-122287609D01*
X92455000Y-121414656D01*
X92516632Y-121373475D01*
X92723475Y-121166632D01*
X92840000Y-120992240D01*
X92956525Y-121166632D01*
X93163368Y-121373475D01*
X93406589Y-121535990D01*
X93676842Y-121647932D01*
X93963740Y-121705000D01*
X94256260Y-121705000D01*
X94543158Y-121647932D01*
X94813411Y-121535990D01*
X95056632Y-121373475D01*
X95263475Y-121166632D01*
X95380000Y-120992240D01*
X95496525Y-121166632D01*
X95703368Y-121373475D01*
X95946589Y-121535990D01*
X96216842Y-121647932D01*
X96503740Y-121705000D01*
X96796260Y-121705000D01*
X97083158Y-121647932D01*
X97353411Y-121535990D01*
X97596632Y-121373475D01*
X97803475Y-121166632D01*
X97965990Y-120923411D01*
X98077932Y-120653158D01*
X98135000Y-120366260D01*
X98135000Y-120073740D01*
X98077932Y-119786842D01*
X97965990Y-119516589D01*
X97803475Y-119273368D01*
X97596632Y-119066525D01*
X97353411Y-118904010D01*
X97083158Y-118792068D01*
X96796260Y-118735000D01*
X96503740Y-118735000D01*
X96216842Y-118792068D01*
X95946589Y-118904010D01*
X95703368Y-119066525D01*
X95496525Y-119273368D01*
X95380000Y-119447760D01*
X95263475Y-119273368D01*
X95056632Y-119066525D01*
X94813411Y-118904010D01*
X94543158Y-118792068D01*
X94256260Y-118735000D01*
X93963740Y-118735000D01*
X93891040Y-118749461D01*
X93851578Y-118710000D01*
X149968382Y-118710000D01*
X150759192Y-118780578D01*
G36*
X78208412Y-118729687D02*
G01*
X78207732Y-118731928D01*
X78180000Y-118731928D01*
X78055518Y-118744188D01*
X77935820Y-118780498D01*
X77825506Y-118839463D01*
X77728815Y-118918815D01*
X77649463Y-119015506D01*
X77590498Y-119125820D01*
X77554188Y-119245518D01*
X77541928Y-119370000D01*
X77541928Y-121070000D01*
X77554188Y-121194482D01*
X77590498Y-121314180D01*
X77649463Y-121424494D01*
X77728815Y-121521185D01*
X77825506Y-121600537D01*
X77935820Y-121659502D01*
X78055518Y-121695812D01*
X78180000Y-121708072D01*
X79880000Y-121708072D01*
X80004482Y-121695812D01*
X80124180Y-121659502D01*
X80234494Y-121600537D01*
X80331185Y-121521185D01*
X80410537Y-121424494D01*
X80469502Y-121314180D01*
X80491513Y-121241620D01*
X80623368Y-121373475D01*
X80866589Y-121535990D01*
X81136842Y-121647932D01*
X81423740Y-121705000D01*
X81716260Y-121705000D01*
X82003158Y-121647932D01*
X82273411Y-121535990D01*
X82516632Y-121373475D01*
X82723475Y-121166632D01*
X82764656Y-121105000D01*
X87545375Y-121105000D01*
X87554188Y-121194482D01*
X87590498Y-121314180D01*
X87649463Y-121424494D01*
X87728815Y-121521185D01*
X87825506Y-121600537D01*
X87935820Y-121659502D01*
X88055518Y-121695812D01*
X88180000Y-121708072D01*
X89880000Y-121708072D01*
X90004482Y-121695812D01*
X90124180Y-121659502D01*
X90234494Y-121600537D01*
X90331185Y-121521185D01*
X90410537Y-121424494D01*
X90469502Y-121314180D01*
X90491513Y-121241620D01*
X90623368Y-121373475D01*
X90685000Y-121414656D01*
X90685001Y-122313420D01*
X89833422Y-123165000D01*
X86585319Y-123165000D01*
X86519743Y-123158541D01*
X86454167Y-123165000D01*
X86454165Y-123165000D01*
X86258038Y-123184317D01*
X86006390Y-123260653D01*
X85774469Y-123384618D01*
X85571189Y-123551445D01*
X85529383Y-123602387D01*
X85017070Y-124114700D01*
X84723620Y-123821250D01*
X84626929Y-123741898D01*
X84516615Y-123682933D01*
X84396917Y-123646623D01*
X84272435Y-123634363D01*
X84147953Y-123646623D01*
X84028255Y-123682933D01*
X83917941Y-123741898D01*
X83821250Y-123821250D01*
X83810643Y-123831857D01*
X83581178Y-123602392D01*
X83539367Y-123551445D01*
X83336087Y-123384618D01*
X83104166Y-123260653D01*
X82852518Y-123184317D01*
X82656391Y-123165000D01*
X82590812Y-123158541D01*
X82525233Y-123165000D01*
X71585319Y-123165000D01*
X71519743Y-123158541D01*
X71454167Y-123165000D01*
X71454165Y-123165000D01*
X71258038Y-123184317D01*
X71006390Y-123260653D01*
X70774469Y-123384618D01*
X70571189Y-123551445D01*
X70529383Y-123602387D01*
X70017070Y-124114700D01*
X69723620Y-123821250D01*
X69626929Y-123741898D01*
X69516615Y-123682933D01*
X69396917Y-123646623D01*
X69272435Y-123634363D01*
X69147953Y-123646623D01*
X69028255Y-123682933D01*
X68917941Y-123741898D01*
X68821250Y-123821250D01*
X66912062Y-125730438D01*
X66832710Y-125827129D01*
X66773745Y-125937443D01*
X66737435Y-126057141D01*
X66725175Y-126181623D01*
X66737435Y-126306105D01*
X66773745Y-126425803D01*
X66832710Y-126536117D01*
X66912062Y-126632808D01*
X69386936Y-129107682D01*
X69483627Y-129187034D01*
X69593941Y-129245999D01*
X69713639Y-129282309D01*
X69838121Y-129294569D01*
X69962603Y-129282309D01*
X70082301Y-129245999D01*
X70192615Y-129187034D01*
X70289306Y-129107682D01*
X72198494Y-127198494D01*
X72277846Y-127101803D01*
X72336811Y-126991489D01*
X72373121Y-126871791D01*
X72385381Y-126747309D01*
X72373121Y-126622827D01*
X72336811Y-126503129D01*
X72277846Y-126392815D01*
X72198494Y-126296124D01*
X71905044Y-126002674D01*
X72072719Y-125835000D01*
X81828503Y-125835000D01*
X81773745Y-125937443D01*
X81737435Y-126057141D01*
X81725175Y-126181623D01*
X81737435Y-126306105D01*
X81773745Y-126425803D01*
X81832710Y-126536117D01*
X81912062Y-126632808D01*
X82195640Y-126916386D01*
X81602387Y-127509639D01*
X81551446Y-127551445D01*
X81509642Y-127602384D01*
X81384618Y-127754726D01*
X81260654Y-127986646D01*
X81184317Y-128238295D01*
X81158541Y-128500000D01*
X81165001Y-128565588D01*
X81165000Y-130434421D01*
X81158541Y-130500000D01*
X81165000Y-130565578D01*
X81184317Y-130761705D01*
X81260653Y-131013353D01*
X81384618Y-131245274D01*
X81551445Y-131448555D01*
X81602392Y-131490366D01*
X89009639Y-138897614D01*
X89051445Y-138948555D01*
X89254725Y-139115382D01*
X89486646Y-139239347D01*
X89738294Y-139315683D01*
X89934421Y-139335000D01*
X90000000Y-139341459D01*
X90065579Y-139335000D01*
X99447025Y-139335000D01*
X99835000Y-139722975D01*
X99835000Y-140070549D01*
X99803475Y-140023368D01*
X99596632Y-139816525D01*
X99353411Y-139654010D01*
X99083158Y-139542068D01*
X98796260Y-139485000D01*
X98503740Y-139485000D01*
X98216842Y-139542068D01*
X97946589Y-139654010D01*
X97703368Y-139816525D01*
X97496525Y-140023368D01*
X97380000Y-140197760D01*
X97263475Y-140023368D01*
X97056632Y-139816525D01*
X96813411Y-139654010D01*
X96543158Y-139542068D01*
X96256260Y-139485000D01*
X95963740Y-139485000D01*
X95676842Y-139542068D01*
X95406589Y-139654010D01*
X95163368Y-139816525D01*
X95031513Y-139948380D01*
X95009502Y-139875820D01*
X94950537Y-139765506D01*
X94871185Y-139668815D01*
X94774494Y-139589463D01*
X94664180Y-139530498D01*
X94544482Y-139494188D01*
X94420000Y-139481928D01*
X92720000Y-139481928D01*
X92595518Y-139494188D01*
X92475820Y-139530498D01*
X92365506Y-139589463D01*
X92268815Y-139668815D01*
X92189463Y-139765506D01*
X92130498Y-139875820D01*
X92094188Y-139995518D01*
X92081928Y-140120000D01*
X92081928Y-141820000D01*
X92094188Y-141944482D01*
X92130498Y-142064180D01*
X92189463Y-142174494D01*
X92268815Y-142271185D01*
X92365506Y-142350537D01*
X92475820Y-142409502D01*
X92595518Y-142445812D01*
X92720000Y-142458072D01*
X94420000Y-142458072D01*
X94544482Y-142445812D01*
X94664180Y-142409502D01*
X94774494Y-142350537D01*
X94871185Y-142271185D01*
X94950537Y-142174494D01*
X95009502Y-142064180D01*
X95031513Y-141991620D01*
X95163368Y-142123475D01*
X95406589Y-142285990D01*
X95676842Y-142397932D01*
X95963740Y-142455000D01*
X96256260Y-142455000D01*
X96543158Y-142397932D01*
X96813411Y-142285990D01*
X97056632Y-142123475D01*
X97263475Y-141916632D01*
X97380000Y-141742240D01*
X97496525Y-141916632D01*
X97703368Y-142123475D01*
X97946589Y-142285990D01*
X98216842Y-142397932D01*
X98503740Y-142455000D01*
X98796260Y-142455000D01*
X99083158Y-142397932D01*
X99353411Y-142285990D01*
X99596632Y-142123475D01*
X99803475Y-141916632D01*
X99920000Y-141742240D01*
X100036525Y-141916632D01*
X100243368Y-142123475D01*
X100486589Y-142285990D01*
X100756842Y-142397932D01*
X101043740Y-142455000D01*
X101336260Y-142455000D01*
X101623158Y-142397932D01*
X101775090Y-142335000D01*
X103144910Y-142335000D01*
X103296842Y-142397932D01*
X103373174Y-142413116D01*
X102821290Y-142965000D01*
X83428711Y-142965000D01*
X81479722Y-141016012D01*
X81479722Y-135877778D01*
X83087938Y-134269562D01*
X83167290Y-134172871D01*
X83226255Y-134062557D01*
X83262565Y-133942859D01*
X83274825Y-133818377D01*
X83262565Y-133693895D01*
X83226255Y-133574197D01*
X83167290Y-133463883D01*
X83087938Y-133367192D01*
X80613064Y-130892318D01*
X80516373Y-130812966D01*
X80406059Y-130754001D01*
X80286361Y-130717691D01*
X80161879Y-130705431D01*
X80037397Y-130717691D01*
X79917699Y-130754001D01*
X79807385Y-130812966D01*
X79710694Y-130892318D01*
X77801506Y-132801506D01*
X77722154Y-132898197D01*
X77663189Y-133008511D01*
X77626879Y-133128209D01*
X77614619Y-133252691D01*
X77626879Y-133377173D01*
X77663189Y-133496871D01*
X77722154Y-133607185D01*
X77801506Y-133703876D01*
X79409722Y-135312092D01*
X79409723Y-141393884D01*
X79404716Y-141444722D01*
X79424699Y-141647617D01*
X79483882Y-141842715D01*
X79579988Y-142022519D01*
X79662841Y-142123475D01*
X79709327Y-142180118D01*
X79748814Y-142212524D01*
X81826289Y-144290000D01*
X60031618Y-144290000D01*
X59240807Y-144219422D01*
X58505611Y-144018295D01*
X57817645Y-143690152D01*
X57198672Y-143245374D01*
X56671020Y-142700881D01*
X57478724Y-142700881D01*
X57838912Y-143190548D01*
X58502882Y-143550849D01*
X59224385Y-143774694D01*
X59975695Y-143853480D01*
X60727938Y-143784178D01*
X61452208Y-143569452D01*
X62120670Y-143217555D01*
X62161088Y-143190548D01*
X62521276Y-142700881D01*
X60000000Y-140179605D01*
X57478724Y-142700881D01*
X56671020Y-142700881D01*
X56668239Y-142698012D01*
X56243117Y-142065362D01*
X55936749Y-141367439D01*
X55757501Y-140620819D01*
X55710127Y-139975695D01*
X56146520Y-139975695D01*
X56215822Y-140727938D01*
X56430548Y-141452208D01*
X56782445Y-142120670D01*
X56809452Y-142161088D01*
X57299119Y-142521276D01*
X59820395Y-140000000D01*
X60179605Y-140000000D01*
X62700881Y-142521276D01*
X63190548Y-142161088D01*
X63550849Y-141497118D01*
X63774694Y-140775615D01*
X63853480Y-140024305D01*
X63784178Y-139272062D01*
X63569452Y-138547792D01*
X63217555Y-137879330D01*
X63190548Y-137838912D01*
X62700881Y-137478724D01*
X60179605Y-140000000D01*
X59820395Y-140000000D01*
X57299119Y-137478724D01*
X56809452Y-137838912D01*
X56449151Y-138502882D01*
X56225306Y-139224385D01*
X56146520Y-139975695D01*
X55710127Y-139975695D01*
X55710000Y-139973970D01*
X55710000Y-137299119D01*
X57478724Y-137299119D01*
X60000000Y-139820395D01*
X62521276Y-137299119D01*
X62161088Y-136809452D01*
X61497118Y-136449151D01*
X60775615Y-136225306D01*
X60024305Y-136146520D01*
X59272062Y-136215822D01*
X58547792Y-136430548D01*
X57879330Y-136782445D01*
X57838912Y-136809452D01*
X57478724Y-137299119D01*
X55710000Y-137299119D01*
X55710000Y-130672888D01*
X71563395Y-130672888D01*
X71760702Y-131330407D01*
X72082494Y-131936799D01*
X72516404Y-132468761D01*
X73045757Y-132905850D01*
X73650210Y-133231269D01*
X74306535Y-133432512D01*
X74327112Y-133436605D01*
X74873000Y-133340699D01*
X74873000Y-130127000D01*
X75127000Y-130127000D01*
X75127000Y-133340699D01*
X75672888Y-133436605D01*
X76330407Y-133239298D01*
X76936799Y-132917506D01*
X77468761Y-132483596D01*
X77905850Y-131954243D01*
X78231269Y-131349790D01*
X78432512Y-130693465D01*
X78436605Y-130672888D01*
X78340699Y-130127000D01*
X75127000Y-130127000D01*
X74873000Y-130127000D01*
X71659301Y-130127000D01*
X71563395Y-130672888D01*
X55710000Y-130672888D01*
X55710000Y-129327112D01*
X71563395Y-129327112D01*
X71659301Y-129873000D01*
X74873000Y-129873000D01*
X74873000Y-126659301D01*
X75127000Y-126659301D01*
X75127000Y-129873000D01*
X78340699Y-129873000D01*
X78436605Y-129327112D01*
X78239298Y-128669593D01*
X77917506Y-128063201D01*
X77483596Y-127531239D01*
X76954243Y-127094150D01*
X76349790Y-126768731D01*
X75693465Y-126567488D01*
X75672888Y-126563395D01*
X75127000Y-126659301D01*
X74873000Y-126659301D01*
X74327112Y-126563395D01*
X73669593Y-126760702D01*
X73063201Y-127082494D01*
X72531239Y-127516404D01*
X72094150Y-128045757D01*
X71768731Y-128650210D01*
X71567488Y-129306535D01*
X71563395Y-129327112D01*
X55710000Y-129327112D01*
X55710000Y-125700881D01*
X57478724Y-125700881D01*
X57838912Y-126190548D01*
X58502882Y-126550849D01*
X59224385Y-126774694D01*
X59975695Y-126853480D01*
X60727938Y-126784178D01*
X61452208Y-126569452D01*
X62120670Y-126217555D01*
X62161088Y-126190548D01*
X62521276Y-125700881D01*
X60000000Y-123179605D01*
X57478724Y-125700881D01*
X55710000Y-125700881D01*
X55710000Y-123031618D01*
X55714991Y-122975695D01*
X56146520Y-122975695D01*
X56215822Y-123727938D01*
X56430548Y-124452208D01*
X56782445Y-125120670D01*
X56809452Y-125161088D01*
X57299119Y-125521276D01*
X59820395Y-123000000D01*
X60179605Y-123000000D01*
X62700881Y-125521276D01*
X63190548Y-125161088D01*
X63550849Y-124497118D01*
X63774694Y-123775615D01*
X63853480Y-123024305D01*
X63784178Y-122272062D01*
X63569452Y-121547792D01*
X63217555Y-120879330D01*
X63190548Y-120838912D01*
X62700881Y-120478724D01*
X60179605Y-123000000D01*
X59820395Y-123000000D01*
X57299119Y-120478724D01*
X56809452Y-120838912D01*
X56449151Y-121502882D01*
X56225306Y-122224385D01*
X56146520Y-122975695D01*
X55714991Y-122975695D01*
X55780578Y-122240808D01*
X55981705Y-121505611D01*
X56309846Y-120817649D01*
X56682447Y-120299119D01*
X57478724Y-120299119D01*
X60000000Y-122820395D01*
X62521276Y-120299119D01*
X62161088Y-119809452D01*
X61497118Y-119449151D01*
X60775615Y-119225306D01*
X60024305Y-119146520D01*
X59272062Y-119215822D01*
X58547792Y-119430548D01*
X57879330Y-119782445D01*
X57838912Y-119809452D01*
X57478724Y-120299119D01*
X56682447Y-120299119D01*
X56754628Y-120198669D01*
X57301988Y-119668239D01*
X57934639Y-119243116D01*
X58632561Y-118936749D01*
X59379183Y-118757501D01*
X60026030Y-118710000D01*
X78218935Y-118710000D01*
X78208412Y-118729687D01*
G37*
X78208412Y-118729687D02*
X78207732Y-118731928D01*
X78180000Y-118731928D01*
X78055518Y-118744188D01*
X77935820Y-118780498D01*
X77825506Y-118839463D01*
X77728815Y-118918815D01*
X77649463Y-119015506D01*
X77590498Y-119125820D01*
X77554188Y-119245518D01*
X77541928Y-119370000D01*
X77541928Y-121070000D01*
X77554188Y-121194482D01*
X77590498Y-121314180D01*
X77649463Y-121424494D01*
X77728815Y-121521185D01*
X77825506Y-121600537D01*
X77935820Y-121659502D01*
X78055518Y-121695812D01*
X78180000Y-121708072D01*
X79880000Y-121708072D01*
X80004482Y-121695812D01*
X80124180Y-121659502D01*
X80234494Y-121600537D01*
X80331185Y-121521185D01*
X80410537Y-121424494D01*
X80469502Y-121314180D01*
X80491513Y-121241620D01*
X80623368Y-121373475D01*
X80866589Y-121535990D01*
X81136842Y-121647932D01*
X81423740Y-121705000D01*
X81716260Y-121705000D01*
X82003158Y-121647932D01*
X82273411Y-121535990D01*
X82516632Y-121373475D01*
X82723475Y-121166632D01*
X82764656Y-121105000D01*
X87545375Y-121105000D01*
X87554188Y-121194482D01*
X87590498Y-121314180D01*
X87649463Y-121424494D01*
X87728815Y-121521185D01*
X87825506Y-121600537D01*
X87935820Y-121659502D01*
X88055518Y-121695812D01*
X88180000Y-121708072D01*
X89880000Y-121708072D01*
X90004482Y-121695812D01*
X90124180Y-121659502D01*
X90234494Y-121600537D01*
X90331185Y-121521185D01*
X90410537Y-121424494D01*
X90469502Y-121314180D01*
X90491513Y-121241620D01*
X90623368Y-121373475D01*
X90685000Y-121414656D01*
X90685001Y-122313420D01*
X89833422Y-123165000D01*
X86585319Y-123165000D01*
X86519743Y-123158541D01*
X86454167Y-123165000D01*
X86454165Y-123165000D01*
X86258038Y-123184317D01*
X86006390Y-123260653D01*
X85774469Y-123384618D01*
X85571189Y-123551445D01*
X85529383Y-123602387D01*
X85017070Y-124114700D01*
X84723620Y-123821250D01*
X84626929Y-123741898D01*
X84516615Y-123682933D01*
X84396917Y-123646623D01*
X84272435Y-123634363D01*
X84147953Y-123646623D01*
X84028255Y-123682933D01*
X83917941Y-123741898D01*
X83821250Y-123821250D01*
X83810643Y-123831857D01*
X83581178Y-123602392D01*
X83539367Y-123551445D01*
X83336087Y-123384618D01*
X83104166Y-123260653D01*
X82852518Y-123184317D01*
X82656391Y-123165000D01*
X82590812Y-123158541D01*
X82525233Y-123165000D01*
X71585319Y-123165000D01*
X71519743Y-123158541D01*
X71454167Y-123165000D01*
X71454165Y-123165000D01*
X71258038Y-123184317D01*
X71006390Y-123260653D01*
X70774469Y-123384618D01*
X70571189Y-123551445D01*
X70529383Y-123602387D01*
X70017070Y-124114700D01*
X69723620Y-123821250D01*
X69626929Y-123741898D01*
X69516615Y-123682933D01*
X69396917Y-123646623D01*
X69272435Y-123634363D01*
X69147953Y-123646623D01*
X69028255Y-123682933D01*
X68917941Y-123741898D01*
X68821250Y-123821250D01*
X66912062Y-125730438D01*
X66832710Y-125827129D01*
X66773745Y-125937443D01*
X66737435Y-126057141D01*
X66725175Y-126181623D01*
X66737435Y-126306105D01*
X66773745Y-126425803D01*
X66832710Y-126536117D01*
X66912062Y-126632808D01*
X69386936Y-129107682D01*
X69483627Y-129187034D01*
X69593941Y-129245999D01*
X69713639Y-129282309D01*
X69838121Y-129294569D01*
X69962603Y-129282309D01*
X70082301Y-129245999D01*
X70192615Y-129187034D01*
X70289306Y-129107682D01*
X72198494Y-127198494D01*
X72277846Y-127101803D01*
X72336811Y-126991489D01*
X72373121Y-126871791D01*
X72385381Y-126747309D01*
X72373121Y-126622827D01*
X72336811Y-126503129D01*
X72277846Y-126392815D01*
X72198494Y-126296124D01*
X71905044Y-126002674D01*
X72072719Y-125835000D01*
X81828503Y-125835000D01*
X81773745Y-125937443D01*
X81737435Y-126057141D01*
X81725175Y-126181623D01*
X81737435Y-126306105D01*
X81773745Y-126425803D01*
X81832710Y-126536117D01*
X81912062Y-126632808D01*
X82195640Y-126916386D01*
X81602387Y-127509639D01*
X81551446Y-127551445D01*
X81509642Y-127602384D01*
X81384618Y-127754726D01*
X81260654Y-127986646D01*
X81184317Y-128238295D01*
X81158541Y-128500000D01*
X81165001Y-128565588D01*
X81165000Y-130434421D01*
X81158541Y-130500000D01*
X81165000Y-130565578D01*
X81184317Y-130761705D01*
X81260653Y-131013353D01*
X81384618Y-131245274D01*
X81551445Y-131448555D01*
X81602392Y-131490366D01*
X89009639Y-138897614D01*
X89051445Y-138948555D01*
X89254725Y-139115382D01*
X89486646Y-139239347D01*
X89738294Y-139315683D01*
X89934421Y-139335000D01*
X90000000Y-139341459D01*
X90065579Y-139335000D01*
X99447025Y-139335000D01*
X99835000Y-139722975D01*
X99835000Y-140070549D01*
X99803475Y-140023368D01*
X99596632Y-139816525D01*
X99353411Y-139654010D01*
X99083158Y-139542068D01*
X98796260Y-139485000D01*
X98503740Y-139485000D01*
X98216842Y-139542068D01*
X97946589Y-139654010D01*
X97703368Y-139816525D01*
X97496525Y-140023368D01*
X97380000Y-140197760D01*
X97263475Y-140023368D01*
X97056632Y-139816525D01*
X96813411Y-139654010D01*
X96543158Y-139542068D01*
X96256260Y-139485000D01*
X95963740Y-139485000D01*
X95676842Y-139542068D01*
X95406589Y-139654010D01*
X95163368Y-139816525D01*
X95031513Y-139948380D01*
X95009502Y-139875820D01*
X94950537Y-139765506D01*
X94871185Y-139668815D01*
X94774494Y-139589463D01*
X94664180Y-139530498D01*
X94544482Y-139494188D01*
X94420000Y-139481928D01*
X92720000Y-139481928D01*
X92595518Y-139494188D01*
X92475820Y-139530498D01*
X92365506Y-139589463D01*
X92268815Y-139668815D01*
X92189463Y-139765506D01*
X92130498Y-139875820D01*
X92094188Y-139995518D01*
X92081928Y-140120000D01*
X92081928Y-141820000D01*
X92094188Y-141944482D01*
X92130498Y-142064180D01*
X92189463Y-142174494D01*
X92268815Y-142271185D01*
X92365506Y-142350537D01*
X92475820Y-142409502D01*
X92595518Y-142445812D01*
X92720000Y-142458072D01*
X94420000Y-142458072D01*
X94544482Y-142445812D01*
X94664180Y-142409502D01*
X94774494Y-142350537D01*
X94871185Y-142271185D01*
X94950537Y-142174494D01*
X95009502Y-142064180D01*
X95031513Y-141991620D01*
X95163368Y-142123475D01*
X95406589Y-142285990D01*
X95676842Y-142397932D01*
X95963740Y-142455000D01*
X96256260Y-142455000D01*
X96543158Y-142397932D01*
X96813411Y-142285990D01*
X97056632Y-142123475D01*
X97263475Y-141916632D01*
X97380000Y-141742240D01*
X97496525Y-141916632D01*
X97703368Y-142123475D01*
X97946589Y-142285990D01*
X98216842Y-142397932D01*
X98503740Y-142455000D01*
X98796260Y-142455000D01*
X99083158Y-142397932D01*
X99353411Y-142285990D01*
X99596632Y-142123475D01*
X99803475Y-141916632D01*
X99920000Y-141742240D01*
X100036525Y-141916632D01*
X100243368Y-142123475D01*
X100486589Y-142285990D01*
X100756842Y-142397932D01*
X101043740Y-142455000D01*
X101336260Y-142455000D01*
X101623158Y-142397932D01*
X101775090Y-142335000D01*
X103144910Y-142335000D01*
X103296842Y-142397932D01*
X103373174Y-142413116D01*
X102821290Y-142965000D01*
X83428711Y-142965000D01*
X81479722Y-141016012D01*
X81479722Y-135877778D01*
X83087938Y-134269562D01*
X83167290Y-134172871D01*
X83226255Y-134062557D01*
X83262565Y-133942859D01*
X83274825Y-133818377D01*
X83262565Y-133693895D01*
X83226255Y-133574197D01*
X83167290Y-133463883D01*
X83087938Y-133367192D01*
X80613064Y-130892318D01*
X80516373Y-130812966D01*
X80406059Y-130754001D01*
X80286361Y-130717691D01*
X80161879Y-130705431D01*
X80037397Y-130717691D01*
X79917699Y-130754001D01*
X79807385Y-130812966D01*
X79710694Y-130892318D01*
X77801506Y-132801506D01*
X77722154Y-132898197D01*
X77663189Y-133008511D01*
X77626879Y-133128209D01*
X77614619Y-133252691D01*
X77626879Y-133377173D01*
X77663189Y-133496871D01*
X77722154Y-133607185D01*
X77801506Y-133703876D01*
X79409722Y-135312092D01*
X79409723Y-141393884D01*
X79404716Y-141444722D01*
X79424699Y-141647617D01*
X79483882Y-141842715D01*
X79579988Y-142022519D01*
X79662841Y-142123475D01*
X79709327Y-142180118D01*
X79748814Y-142212524D01*
X81826289Y-144290000D01*
X60031618Y-144290000D01*
X59240807Y-144219422D01*
X58505611Y-144018295D01*
X57817645Y-143690152D01*
X57198672Y-143245374D01*
X56671020Y-142700881D01*
X57478724Y-142700881D01*
X57838912Y-143190548D01*
X58502882Y-143550849D01*
X59224385Y-143774694D01*
X59975695Y-143853480D01*
X60727938Y-143784178D01*
X61452208Y-143569452D01*
X62120670Y-143217555D01*
X62161088Y-143190548D01*
X62521276Y-142700881D01*
X60000000Y-140179605D01*
X57478724Y-142700881D01*
X56671020Y-142700881D01*
X56668239Y-142698012D01*
X56243117Y-142065362D01*
X55936749Y-141367439D01*
X55757501Y-140620819D01*
X55710127Y-139975695D01*
X56146520Y-139975695D01*
X56215822Y-140727938D01*
X56430548Y-141452208D01*
X56782445Y-142120670D01*
X56809452Y-142161088D01*
X57299119Y-142521276D01*
X59820395Y-140000000D01*
X60179605Y-140000000D01*
X62700881Y-142521276D01*
X63190548Y-142161088D01*
X63550849Y-141497118D01*
X63774694Y-140775615D01*
X63853480Y-140024305D01*
X63784178Y-139272062D01*
X63569452Y-138547792D01*
X63217555Y-137879330D01*
X63190548Y-137838912D01*
X62700881Y-137478724D01*
X60179605Y-140000000D01*
X59820395Y-140000000D01*
X57299119Y-137478724D01*
X56809452Y-137838912D01*
X56449151Y-138502882D01*
X56225306Y-139224385D01*
X56146520Y-139975695D01*
X55710127Y-139975695D01*
X55710000Y-139973970D01*
X55710000Y-137299119D01*
X57478724Y-137299119D01*
X60000000Y-139820395D01*
X62521276Y-137299119D01*
X62161088Y-136809452D01*
X61497118Y-136449151D01*
X60775615Y-136225306D01*
X60024305Y-136146520D01*
X59272062Y-136215822D01*
X58547792Y-136430548D01*
X57879330Y-136782445D01*
X57838912Y-136809452D01*
X57478724Y-137299119D01*
X55710000Y-137299119D01*
X55710000Y-130672888D01*
X71563395Y-130672888D01*
X71760702Y-131330407D01*
X72082494Y-131936799D01*
X72516404Y-132468761D01*
X73045757Y-132905850D01*
X73650210Y-133231269D01*
X74306535Y-133432512D01*
X74327112Y-133436605D01*
X74873000Y-133340699D01*
X74873000Y-130127000D01*
X75127000Y-130127000D01*
X75127000Y-133340699D01*
X75672888Y-133436605D01*
X76330407Y-133239298D01*
X76936799Y-132917506D01*
X77468761Y-132483596D01*
X77905850Y-131954243D01*
X78231269Y-131349790D01*
X78432512Y-130693465D01*
X78436605Y-130672888D01*
X78340699Y-130127000D01*
X75127000Y-130127000D01*
X74873000Y-130127000D01*
X71659301Y-130127000D01*
X71563395Y-130672888D01*
X55710000Y-130672888D01*
X55710000Y-129327112D01*
X71563395Y-129327112D01*
X71659301Y-129873000D01*
X74873000Y-129873000D01*
X74873000Y-126659301D01*
X75127000Y-126659301D01*
X75127000Y-129873000D01*
X78340699Y-129873000D01*
X78436605Y-129327112D01*
X78239298Y-128669593D01*
X77917506Y-128063201D01*
X77483596Y-127531239D01*
X76954243Y-127094150D01*
X76349790Y-126768731D01*
X75693465Y-126567488D01*
X75672888Y-126563395D01*
X75127000Y-126659301D01*
X74873000Y-126659301D01*
X74327112Y-126563395D01*
X73669593Y-126760702D01*
X73063201Y-127082494D01*
X72531239Y-127516404D01*
X72094150Y-128045757D01*
X71768731Y-128650210D01*
X71567488Y-129306535D01*
X71563395Y-129327112D01*
X55710000Y-129327112D01*
X55710000Y-125700881D01*
X57478724Y-125700881D01*
X57838912Y-126190548D01*
X58502882Y-126550849D01*
X59224385Y-126774694D01*
X59975695Y-126853480D01*
X60727938Y-126784178D01*
X61452208Y-126569452D01*
X62120670Y-126217555D01*
X62161088Y-126190548D01*
X62521276Y-125700881D01*
X60000000Y-123179605D01*
X57478724Y-125700881D01*
X55710000Y-125700881D01*
X55710000Y-123031618D01*
X55714991Y-122975695D01*
X56146520Y-122975695D01*
X56215822Y-123727938D01*
X56430548Y-124452208D01*
X56782445Y-125120670D01*
X56809452Y-125161088D01*
X57299119Y-125521276D01*
X59820395Y-123000000D01*
X60179605Y-123000000D01*
X62700881Y-125521276D01*
X63190548Y-125161088D01*
X63550849Y-124497118D01*
X63774694Y-123775615D01*
X63853480Y-123024305D01*
X63784178Y-122272062D01*
X63569452Y-121547792D01*
X63217555Y-120879330D01*
X63190548Y-120838912D01*
X62700881Y-120478724D01*
X60179605Y-123000000D01*
X59820395Y-123000000D01*
X57299119Y-120478724D01*
X56809452Y-120838912D01*
X56449151Y-121502882D01*
X56225306Y-122224385D01*
X56146520Y-122975695D01*
X55714991Y-122975695D01*
X55780578Y-122240808D01*
X55981705Y-121505611D01*
X56309846Y-120817649D01*
X56682447Y-120299119D01*
X57478724Y-120299119D01*
X60000000Y-122820395D01*
X62521276Y-120299119D01*
X62161088Y-119809452D01*
X61497118Y-119449151D01*
X60775615Y-119225306D01*
X60024305Y-119146520D01*
X59272062Y-119215822D01*
X58547792Y-119430548D01*
X57879330Y-119782445D01*
X57838912Y-119809452D01*
X57478724Y-120299119D01*
X56682447Y-120299119D01*
X56754628Y-120198669D01*
X57301988Y-119668239D01*
X57934639Y-119243116D01*
X58632561Y-118936749D01*
X59379183Y-118757501D01*
X60026030Y-118710000D01*
X78218935Y-118710000D01*
X78208412Y-118729687D01*
M02*
