M48
; DRILL file {KiCad (5.1.5-0-10_14)} date 2020 April 19, Sunday 21:28:02
; FORMAT={-:-/ absolute / metric / decimal}
; #@! TF.CreationDate,2020-04-19T21:28:02+02:00
; #@! TF.GenerationSoftware,Kicad,Pcbnew,(5.1.5-0-10_14)
; #@! TF.FileFunction,Plated,1,2,PTH
FMAT,2
METRIC
T1C0.400
T2C0.500
T3C1.000
T4C3.200
%
G90
G05
T1
X73.52Y-128.96
X73.52Y-130.96
X75.0Y-131.96
X75.02Y-127.96
X75.02Y-129.96
X76.52Y-128.96
X76.52Y-130.96
X88.52Y-128.96
X88.52Y-130.96
X90.02Y-127.96
X90.02Y-129.96
X90.02Y-131.96
X91.52Y-128.96
X91.52Y-130.96
X103.5Y-129.0
X103.5Y-131.0
X105.0Y-128.0
X105.0Y-130.0
X105.0Y-132.0
X106.5Y-129.0
X106.5Y-131.0
X118.5Y-129.0
X118.5Y-131.0
X120.0Y-128.0
X120.0Y-130.0
X120.0Y-132.0
X121.5Y-129.0
X121.5Y-131.0
X133.5Y-129.0
X133.5Y-131.0
X135.0Y-128.0
X135.0Y-130.0
X135.0Y-132.0
X136.5Y-129.0
X136.5Y-131.0
T2
X147.6Y-140.0
X148.303Y-138.303
X148.303Y-141.697
X150.0Y-137.6
X150.0Y-142.4
X151.697Y-138.303
X151.697Y-141.697
X152.4Y-140.0
X147.6Y-123.0
X148.303Y-121.303
X148.303Y-124.697
X150.0Y-120.6
X150.0Y-125.4
X151.697Y-121.303
X151.697Y-124.697
X152.4Y-123.0
X57.6Y-123.0
X58.303Y-121.303
X58.303Y-124.697
X60.0Y-120.6
X60.0Y-125.4
X61.697Y-121.303
X61.697Y-124.697
X62.4Y-123.0
X57.6Y-140.0
X58.303Y-138.303
X58.303Y-141.697
X60.0Y-137.6
X60.0Y-142.4
X61.697Y-138.303
X61.697Y-141.697
X62.4Y-140.0
T3
X79.03Y-120.22
X81.57Y-120.22
X93.57Y-140.97
X96.11Y-140.97
X98.65Y-140.97
X101.19Y-140.97
X103.73Y-140.97
X106.27Y-140.97
X108.81Y-140.97
X111.35Y-140.97
X113.89Y-140.97
X116.43Y-140.97
X89.03Y-120.22
X91.57Y-120.22
X94.11Y-120.22
X96.65Y-120.22
T4
X150.0Y-140.0
X150.0Y-123.0
X60.0Y-123.0
X60.0Y-140.0
T0
M30
