G04 #@! TF.GenerationSoftware,KiCad,Pcbnew,(5.1.5-0-10_14)*
G04 #@! TF.CreationDate,2020-04-19T21:27:58+02:00*
G04 #@! TF.ProjectId,inuk-passive-led-shield,696e756b-2d70-4617-9373-6976652d6c65,rev?*
G04 #@! TF.SameCoordinates,Original*
G04 #@! TF.FileFunction,Soldermask,Top*
G04 #@! TF.FilePolarity,Negative*
%FSLAX46Y46*%
G04 Gerber Fmt 4.6, Leading zero omitted, Abs format (unit mm)*
G04 Created by KiCad (PCBNEW (5.1.5-0-10_14)) date 2020-04-19 21:27:58*
%MOMM*%
%LPD*%
G04 APERTURE LIST*
%ADD10C,0.150000*%
%ADD11C,0.350000*%
%ADD12C,0.100000*%
%ADD13C,1.200000*%
%ADD14C,6.800000*%
%ADD15C,6.100000*%
%ADD16O,2.100000X2.100000*%
%ADD17R,2.100000X2.100000*%
G04 APERTURE END LIST*
D10*
X121440476Y-122302380D02*
X121107142Y-121826190D01*
X120869047Y-122302380D02*
X120869047Y-121302380D01*
X121250000Y-121302380D01*
X121345238Y-121350000D01*
X121392857Y-121397619D01*
X121440476Y-121492857D01*
X121440476Y-121635714D01*
X121392857Y-121730952D01*
X121345238Y-121778571D01*
X121250000Y-121826190D01*
X120869047Y-121826190D01*
X122250000Y-122254761D02*
X122154761Y-122302380D01*
X121964285Y-122302380D01*
X121869047Y-122254761D01*
X121821428Y-122159523D01*
X121821428Y-121778571D01*
X121869047Y-121683333D01*
X121964285Y-121635714D01*
X122154761Y-121635714D01*
X122250000Y-121683333D01*
X122297619Y-121778571D01*
X122297619Y-121873809D01*
X121821428Y-121969047D01*
X122630952Y-121635714D02*
X122869047Y-122302380D01*
X123107142Y-121635714D01*
X123488095Y-122207142D02*
X123535714Y-122254761D01*
X123488095Y-122302380D01*
X123440476Y-122254761D01*
X123488095Y-122207142D01*
X123488095Y-122302380D01*
X123488095Y-121683333D02*
X123535714Y-121730952D01*
X123488095Y-121778571D01*
X123440476Y-121730952D01*
X123488095Y-121683333D01*
X123488095Y-121778571D01*
X125250000Y-122302380D02*
X124678571Y-122302380D01*
X124964285Y-122302380D02*
X124964285Y-121302380D01*
X124869047Y-121445238D01*
X124773809Y-121540476D01*
X124678571Y-121588095D01*
X125678571Y-122207142D02*
X125726190Y-122254761D01*
X125678571Y-122302380D01*
X125630952Y-122254761D01*
X125678571Y-122207142D01*
X125678571Y-122302380D01*
X126345238Y-121302380D02*
X126440476Y-121302380D01*
X126535714Y-121350000D01*
X126583333Y-121397619D01*
X126630952Y-121492857D01*
X126678571Y-121683333D01*
X126678571Y-121921428D01*
X126630952Y-122111904D01*
X126583333Y-122207142D01*
X126535714Y-122254761D01*
X126440476Y-122302380D01*
X126345238Y-122302380D01*
X126250000Y-122254761D01*
X126202380Y-122207142D01*
X126154761Y-122111904D01*
X126107142Y-121921428D01*
X126107142Y-121683333D01*
X126154761Y-121492857D01*
X126202380Y-121397619D01*
X126250000Y-121350000D01*
X126345238Y-121302380D01*
X120904761Y-120552380D02*
X120904761Y-119552380D01*
X121380952Y-119885714D02*
X121380952Y-120552380D01*
X121380952Y-119980952D02*
X121428571Y-119933333D01*
X121523809Y-119885714D01*
X121666666Y-119885714D01*
X121761904Y-119933333D01*
X121809523Y-120028571D01*
X121809523Y-120552380D01*
X122714285Y-119885714D02*
X122714285Y-120552380D01*
X122285714Y-119885714D02*
X122285714Y-120409523D01*
X122333333Y-120504761D01*
X122428571Y-120552380D01*
X122571428Y-120552380D01*
X122666666Y-120504761D01*
X122714285Y-120457142D01*
X123190476Y-120552380D02*
X123190476Y-119552380D01*
X123285714Y-120171428D02*
X123571428Y-120552380D01*
X123571428Y-119885714D02*
X123190476Y-120266666D01*
X124761904Y-119885714D02*
X124761904Y-120885714D01*
X124761904Y-119933333D02*
X124857142Y-119885714D01*
X125047619Y-119885714D01*
X125142857Y-119933333D01*
X125190476Y-119980952D01*
X125238095Y-120076190D01*
X125238095Y-120361904D01*
X125190476Y-120457142D01*
X125142857Y-120504761D01*
X125047619Y-120552380D01*
X124857142Y-120552380D01*
X124761904Y-120504761D01*
X126095238Y-120552380D02*
X126095238Y-120028571D01*
X126047619Y-119933333D01*
X125952380Y-119885714D01*
X125761904Y-119885714D01*
X125666666Y-119933333D01*
X126095238Y-120504761D02*
X126000000Y-120552380D01*
X125761904Y-120552380D01*
X125666666Y-120504761D01*
X125619047Y-120409523D01*
X125619047Y-120314285D01*
X125666666Y-120219047D01*
X125761904Y-120171428D01*
X126000000Y-120171428D01*
X126095238Y-120123809D01*
X126523809Y-120504761D02*
X126619047Y-120552380D01*
X126809523Y-120552380D01*
X126904761Y-120504761D01*
X126952380Y-120409523D01*
X126952380Y-120361904D01*
X126904761Y-120266666D01*
X126809523Y-120219047D01*
X126666666Y-120219047D01*
X126571428Y-120171428D01*
X126523809Y-120076190D01*
X126523809Y-120028571D01*
X126571428Y-119933333D01*
X126666666Y-119885714D01*
X126809523Y-119885714D01*
X126904761Y-119933333D01*
X127333333Y-120504761D02*
X127428571Y-120552380D01*
X127619047Y-120552380D01*
X127714285Y-120504761D01*
X127761904Y-120409523D01*
X127761904Y-120361904D01*
X127714285Y-120266666D01*
X127619047Y-120219047D01*
X127476190Y-120219047D01*
X127380952Y-120171428D01*
X127333333Y-120076190D01*
X127333333Y-120028571D01*
X127380952Y-119933333D01*
X127476190Y-119885714D01*
X127619047Y-119885714D01*
X127714285Y-119933333D01*
X128190476Y-120552380D02*
X128190476Y-119885714D01*
X128190476Y-119552380D02*
X128142857Y-119600000D01*
X128190476Y-119647619D01*
X128238095Y-119600000D01*
X128190476Y-119552380D01*
X128190476Y-119647619D01*
X128571428Y-119885714D02*
X128809523Y-120552380D01*
X129047619Y-119885714D01*
X129809523Y-120504761D02*
X129714285Y-120552380D01*
X129523809Y-120552380D01*
X129428571Y-120504761D01*
X129380952Y-120409523D01*
X129380952Y-120028571D01*
X129428571Y-119933333D01*
X129523809Y-119885714D01*
X129714285Y-119885714D01*
X129809523Y-119933333D01*
X129857142Y-120028571D01*
X129857142Y-120123809D01*
X129380952Y-120219047D01*
X131190476Y-120552380D02*
X131095238Y-120504761D01*
X131047619Y-120409523D01*
X131047619Y-119552380D01*
X131952380Y-120504761D02*
X131857142Y-120552380D01*
X131666666Y-120552380D01*
X131571428Y-120504761D01*
X131523809Y-120409523D01*
X131523809Y-120028571D01*
X131571428Y-119933333D01*
X131666666Y-119885714D01*
X131857142Y-119885714D01*
X131952380Y-119933333D01*
X132000000Y-120028571D01*
X132000000Y-120123809D01*
X131523809Y-120219047D01*
X132857142Y-120552380D02*
X132857142Y-119552380D01*
X132857142Y-120504761D02*
X132761904Y-120552380D01*
X132571428Y-120552380D01*
X132476190Y-120504761D01*
X132428571Y-120457142D01*
X132380952Y-120361904D01*
X132380952Y-120076190D01*
X132428571Y-119980952D01*
X132476190Y-119933333D01*
X132571428Y-119885714D01*
X132761904Y-119885714D01*
X132857142Y-119933333D01*
X134047619Y-120504761D02*
X134142857Y-120552380D01*
X134333333Y-120552380D01*
X134428571Y-120504761D01*
X134476190Y-120409523D01*
X134476190Y-120361904D01*
X134428571Y-120266666D01*
X134333333Y-120219047D01*
X134190476Y-120219047D01*
X134095238Y-120171428D01*
X134047619Y-120076190D01*
X134047619Y-120028571D01*
X134095238Y-119933333D01*
X134190476Y-119885714D01*
X134333333Y-119885714D01*
X134428571Y-119933333D01*
X134904761Y-120552380D02*
X134904761Y-119552380D01*
X135333333Y-120552380D02*
X135333333Y-120028571D01*
X135285714Y-119933333D01*
X135190476Y-119885714D01*
X135047619Y-119885714D01*
X134952380Y-119933333D01*
X134904761Y-119980952D01*
X135809523Y-120552380D02*
X135809523Y-119885714D01*
X135809523Y-119552380D02*
X135761904Y-119600000D01*
X135809523Y-119647619D01*
X135857142Y-119600000D01*
X135809523Y-119552380D01*
X135809523Y-119647619D01*
X136666666Y-120504761D02*
X136571428Y-120552380D01*
X136380952Y-120552380D01*
X136285714Y-120504761D01*
X136238095Y-120409523D01*
X136238095Y-120028571D01*
X136285714Y-119933333D01*
X136380952Y-119885714D01*
X136571428Y-119885714D01*
X136666666Y-119933333D01*
X136714285Y-120028571D01*
X136714285Y-120123809D01*
X136238095Y-120219047D01*
X137285714Y-120552380D02*
X137190476Y-120504761D01*
X137142857Y-120409523D01*
X137142857Y-119552380D01*
X138095238Y-120552380D02*
X138095238Y-119552380D01*
X138095238Y-120504761D02*
X138000000Y-120552380D01*
X137809523Y-120552380D01*
X137714285Y-120504761D01*
X137666666Y-120457142D01*
X137619047Y-120361904D01*
X137619047Y-120076190D01*
X137666666Y-119980952D01*
X137714285Y-119933333D01*
X137809523Y-119885714D01*
X138000000Y-119885714D01*
X138095238Y-119933333D01*
D11*
X140740000Y-122260000D02*
X141490000Y-120260000D01*
D12*
G36*
X143100000Y-121160000D02*
G01*
X142860000Y-121250000D01*
X142800000Y-121030000D01*
X142970000Y-120570000D01*
X143100000Y-121160000D01*
G37*
X143100000Y-121160000D02*
X142860000Y-121250000D01*
X142800000Y-121030000D01*
X142970000Y-120570000D01*
X143100000Y-121160000D01*
D11*
X141490000Y-120260000D02*
X141990000Y-122260000D01*
X141990000Y-122260000D02*
X142740000Y-120260000D01*
X142940000Y-121040000D02*
X143240000Y-122260000D01*
D13*
X61697056Y-138302944D03*
X60000000Y-137600000D03*
X58302944Y-138302944D03*
X57600000Y-140000000D03*
X58302944Y-141697056D03*
X60000000Y-142400000D03*
X61697056Y-141697056D03*
X62400000Y-140000000D03*
D14*
X60000000Y-140000000D03*
D13*
X151697056Y-138302944D03*
X150000000Y-137600000D03*
X148302944Y-138302944D03*
X147600000Y-140000000D03*
X148302944Y-141697056D03*
X150000000Y-142400000D03*
X151697056Y-141697056D03*
X152400000Y-140000000D03*
D14*
X150000000Y-140000000D03*
D13*
X151697056Y-121302944D03*
X150000000Y-120600000D03*
X148302944Y-121302944D03*
X147600000Y-123000000D03*
X148302944Y-124697056D03*
X150000000Y-125400000D03*
X151697056Y-124697056D03*
X152400000Y-123000000D03*
D14*
X150000000Y-123000000D03*
D13*
X61697056Y-121302944D03*
X60000000Y-120600000D03*
X58302944Y-121302944D03*
X57600000Y-123000000D03*
X58302944Y-124697056D03*
X60000000Y-125400000D03*
X61697056Y-124697056D03*
X62400000Y-123000000D03*
D14*
X60000000Y-123000000D03*
D15*
X135000000Y-130000000D03*
D12*
G36*
X142919596Y-133818377D02*
G01*
X140727565Y-136010408D01*
X137969848Y-133252691D01*
X140161879Y-131060660D01*
X142919596Y-133818377D01*
G37*
G36*
X132030152Y-126747309D02*
G01*
X129838121Y-128939340D01*
X127080404Y-126181623D01*
X129272435Y-123989592D01*
X132030152Y-126747309D01*
G37*
D15*
X120000000Y-130000000D03*
D12*
G36*
X127919596Y-133818377D02*
G01*
X125727565Y-136010408D01*
X122969848Y-133252691D01*
X125161879Y-131060660D01*
X127919596Y-133818377D01*
G37*
G36*
X117030152Y-126747309D02*
G01*
X114838121Y-128939340D01*
X112080404Y-126181623D01*
X114272435Y-123989592D01*
X117030152Y-126747309D01*
G37*
D15*
X105000000Y-130000000D03*
D12*
G36*
X112919596Y-133818377D02*
G01*
X110727565Y-136010408D01*
X107969848Y-133252691D01*
X110161879Y-131060660D01*
X112919596Y-133818377D01*
G37*
G36*
X102030152Y-126747309D02*
G01*
X99838121Y-128939340D01*
X97080404Y-126181623D01*
X99272435Y-123989592D01*
X102030152Y-126747309D01*
G37*
D15*
X90000000Y-130000000D03*
D12*
G36*
X97919596Y-133818377D02*
G01*
X95727565Y-136010408D01*
X92969848Y-133252691D01*
X95161879Y-131060660D01*
X97919596Y-133818377D01*
G37*
G36*
X87030152Y-126747309D02*
G01*
X84838121Y-128939340D01*
X82080404Y-126181623D01*
X84272435Y-123989592D01*
X87030152Y-126747309D01*
G37*
D15*
X75000000Y-130000000D03*
D12*
G36*
X82919596Y-133818377D02*
G01*
X80727565Y-136010408D01*
X77969848Y-133252691D01*
X80161879Y-131060660D01*
X82919596Y-133818377D01*
G37*
G36*
X72030152Y-126747309D02*
G01*
X69838121Y-128939340D01*
X67080404Y-126181623D01*
X69272435Y-123989592D01*
X72030152Y-126747309D01*
G37*
D16*
X81570000Y-120220000D03*
D17*
X79030000Y-120220000D03*
D16*
X116430000Y-140970000D03*
X113890000Y-140970000D03*
X111350000Y-140970000D03*
X108810000Y-140970000D03*
X106270000Y-140970000D03*
X103730000Y-140970000D03*
X101190000Y-140970000D03*
X98650000Y-140970000D03*
X96110000Y-140970000D03*
D17*
X93570000Y-140970000D03*
D16*
X96650000Y-120220000D03*
X94110000Y-120220000D03*
X91570000Y-120220000D03*
D17*
X89030000Y-120220000D03*
M02*
