G04 #@! TF.GenerationSoftware,KiCad,Pcbnew,(5.1.5-0-10_14)*
G04 #@! TF.CreationDate,2020-04-19T21:27:58+02:00*
G04 #@! TF.ProjectId,inuk-passive-led-shield,696e756b-2d70-4617-9373-6976652d6c65,rev?*
G04 #@! TF.SameCoordinates,Original*
G04 #@! TF.FileFunction,Legend,Top*
G04 #@! TF.FilePolarity,Positive*
%FSLAX46Y46*%
G04 Gerber Fmt 4.6, Leading zero omitted, Abs format (unit mm)*
G04 Created by KiCad (PCBNEW (5.1.5-0-10_14)) date 2020-04-19 21:27:58*
%MOMM*%
%LPD*%
G04 APERTURE LIST*
%ADD10C,0.200000*%
%ADD11C,0.150000*%
%ADD12C,0.120000*%
G04 APERTURE END LIST*
D10*
X78500000Y-125078571D02*
X77785714Y-125078571D01*
X77785714Y-123578571D01*
X79000000Y-125078571D02*
X79000000Y-123578571D01*
X80500000Y-123650000D02*
X80357142Y-123578571D01*
X80142857Y-123578571D01*
X79928571Y-123650000D01*
X79785714Y-123792857D01*
X79714285Y-123935714D01*
X79642857Y-124221428D01*
X79642857Y-124435714D01*
X79714285Y-124721428D01*
X79785714Y-124864285D01*
X79928571Y-125007142D01*
X80142857Y-125078571D01*
X80285714Y-125078571D01*
X80500000Y-125007142D01*
X80571428Y-124935714D01*
X80571428Y-124435714D01*
X80285714Y-124435714D01*
X81214285Y-125078571D02*
X81214285Y-123578571D01*
X81214285Y-124292857D02*
X82071428Y-124292857D01*
X82071428Y-125078571D02*
X82071428Y-123578571D01*
X82571428Y-123578571D02*
X83428571Y-123578571D01*
X83000000Y-125078571D02*
X83000000Y-123578571D01*
X90678571Y-125078571D02*
X90678571Y-123578571D01*
X91178571Y-124650000D01*
X91678571Y-123578571D01*
X91678571Y-125078571D01*
X92392857Y-125078571D02*
X92392857Y-123578571D01*
X93035714Y-125007142D02*
X93250000Y-125078571D01*
X93607142Y-125078571D01*
X93750000Y-125007142D01*
X93821428Y-124935714D01*
X93892857Y-124792857D01*
X93892857Y-124650000D01*
X93821428Y-124507142D01*
X93750000Y-124435714D01*
X93607142Y-124364285D01*
X93321428Y-124292857D01*
X93178571Y-124221428D01*
X93107142Y-124150000D01*
X93035714Y-124007142D01*
X93035714Y-123864285D01*
X93107142Y-123721428D01*
X93178571Y-123650000D01*
X93321428Y-123578571D01*
X93678571Y-123578571D01*
X93892857Y-123650000D01*
X95392857Y-124935714D02*
X95321428Y-125007142D01*
X95107142Y-125078571D01*
X94964285Y-125078571D01*
X94750000Y-125007142D01*
X94607142Y-124864285D01*
X94535714Y-124721428D01*
X94464285Y-124435714D01*
X94464285Y-124221428D01*
X94535714Y-123935714D01*
X94607142Y-123792857D01*
X94750000Y-123650000D01*
X94964285Y-123578571D01*
X95107142Y-123578571D01*
X95321428Y-123650000D01*
X95392857Y-123721428D01*
X103000000Y-137278571D02*
X102285714Y-137278571D01*
X102285714Y-135778571D01*
X103500000Y-137278571D02*
X103500000Y-135778571D01*
X105000000Y-135850000D02*
X104857142Y-135778571D01*
X104642857Y-135778571D01*
X104428571Y-135850000D01*
X104285714Y-135992857D01*
X104214285Y-136135714D01*
X104142857Y-136421428D01*
X104142857Y-136635714D01*
X104214285Y-136921428D01*
X104285714Y-137064285D01*
X104428571Y-137207142D01*
X104642857Y-137278571D01*
X104785714Y-137278571D01*
X105000000Y-137207142D01*
X105071428Y-137135714D01*
X105071428Y-136635714D01*
X104785714Y-136635714D01*
X105714285Y-137278571D02*
X105714285Y-135778571D01*
X105714285Y-136492857D02*
X106571428Y-136492857D01*
X106571428Y-137278571D02*
X106571428Y-135778571D01*
X107071428Y-135778571D02*
X107928571Y-135778571D01*
X107500000Y-137278571D02*
X107500000Y-135778571D01*
D11*
X78179761Y-122863095D02*
X78272619Y-122894047D01*
X78427380Y-122894047D01*
X78489285Y-122863095D01*
X78520238Y-122832142D01*
X78551190Y-122770238D01*
X78551190Y-122708333D01*
X78520238Y-122646428D01*
X78489285Y-122615476D01*
X78427380Y-122584523D01*
X78303571Y-122553571D01*
X78241666Y-122522619D01*
X78210714Y-122491666D01*
X78179761Y-122429761D01*
X78179761Y-122367857D01*
X78210714Y-122305952D01*
X78241666Y-122275000D01*
X78303571Y-122244047D01*
X78458333Y-122244047D01*
X78551190Y-122275000D01*
X78829761Y-122553571D02*
X79046428Y-122553571D01*
X79139285Y-122894047D02*
X78829761Y-122894047D01*
X78829761Y-122244047D01*
X79139285Y-122244047D01*
X79417857Y-122894047D02*
X79417857Y-122244047D01*
X79789285Y-122894047D01*
X79789285Y-122244047D01*
X81254761Y-122275000D02*
X81192857Y-122244047D01*
X81100000Y-122244047D01*
X81007142Y-122275000D01*
X80945238Y-122336904D01*
X80914285Y-122398809D01*
X80883333Y-122522619D01*
X80883333Y-122615476D01*
X80914285Y-122739285D01*
X80945238Y-122801190D01*
X81007142Y-122863095D01*
X81100000Y-122894047D01*
X81161904Y-122894047D01*
X81254761Y-122863095D01*
X81285714Y-122832142D01*
X81285714Y-122615476D01*
X81161904Y-122615476D01*
X81564285Y-122894047D02*
X81564285Y-122244047D01*
X81935714Y-122894047D01*
X81935714Y-122244047D01*
X82245238Y-122894047D02*
X82245238Y-122244047D01*
X82400000Y-122244047D01*
X82492857Y-122275000D01*
X82554761Y-122336904D01*
X82585714Y-122398809D01*
X82616666Y-122522619D01*
X82616666Y-122615476D01*
X82585714Y-122739285D01*
X82554761Y-122801190D01*
X82492857Y-122863095D01*
X82400000Y-122894047D01*
X82245238Y-122894047D01*
X96504761Y-122275000D02*
X96442857Y-122244047D01*
X96350000Y-122244047D01*
X96257142Y-122275000D01*
X96195238Y-122336904D01*
X96164285Y-122398809D01*
X96133333Y-122522619D01*
X96133333Y-122615476D01*
X96164285Y-122739285D01*
X96195238Y-122801190D01*
X96257142Y-122863095D01*
X96350000Y-122894047D01*
X96411904Y-122894047D01*
X96504761Y-122863095D01*
X96535714Y-122832142D01*
X96535714Y-122615476D01*
X96411904Y-122615476D01*
X96814285Y-122894047D02*
X96814285Y-122244047D01*
X97185714Y-122894047D01*
X97185714Y-122244047D01*
X97495238Y-122894047D02*
X97495238Y-122244047D01*
X97650000Y-122244047D01*
X97742857Y-122275000D01*
X97804761Y-122336904D01*
X97835714Y-122398809D01*
X97866666Y-122522619D01*
X97866666Y-122615476D01*
X97835714Y-122739285D01*
X97804761Y-122801190D01*
X97742857Y-122863095D01*
X97650000Y-122894047D01*
X97495238Y-122894047D01*
X93429761Y-122863095D02*
X93522619Y-122894047D01*
X93677380Y-122894047D01*
X93739285Y-122863095D01*
X93770238Y-122832142D01*
X93801190Y-122770238D01*
X93801190Y-122708333D01*
X93770238Y-122646428D01*
X93739285Y-122615476D01*
X93677380Y-122584523D01*
X93553571Y-122553571D01*
X93491666Y-122522619D01*
X93460714Y-122491666D01*
X93429761Y-122429761D01*
X93429761Y-122367857D01*
X93460714Y-122305952D01*
X93491666Y-122275000D01*
X93553571Y-122244047D01*
X93708333Y-122244047D01*
X93801190Y-122275000D01*
X94079761Y-122553571D02*
X94296428Y-122553571D01*
X94389285Y-122894047D02*
X94079761Y-122894047D01*
X94079761Y-122244047D01*
X94389285Y-122244047D01*
X94667857Y-122894047D02*
X94667857Y-122244047D01*
X95039285Y-122894047D01*
X95039285Y-122244047D01*
X90532142Y-122244047D02*
X90748809Y-122894047D01*
X90965476Y-122244047D01*
X91398809Y-122553571D02*
X91491666Y-122584523D01*
X91522619Y-122615476D01*
X91553571Y-122677380D01*
X91553571Y-122770238D01*
X91522619Y-122832142D01*
X91491666Y-122863095D01*
X91429761Y-122894047D01*
X91182142Y-122894047D01*
X91182142Y-122244047D01*
X91398809Y-122244047D01*
X91460714Y-122275000D01*
X91491666Y-122305952D01*
X91522619Y-122367857D01*
X91522619Y-122429761D01*
X91491666Y-122491666D01*
X91460714Y-122522619D01*
X91398809Y-122553571D01*
X91182142Y-122553571D01*
X91801190Y-122708333D02*
X92110714Y-122708333D01*
X91739285Y-122894047D02*
X91955952Y-122244047D01*
X92172619Y-122894047D01*
X92296428Y-122244047D02*
X92667857Y-122244047D01*
X92482142Y-122894047D02*
X92482142Y-122244047D01*
X88195238Y-122244047D02*
X88597619Y-122244047D01*
X88380952Y-122491666D01*
X88473809Y-122491666D01*
X88535714Y-122522619D01*
X88566666Y-122553571D01*
X88597619Y-122615476D01*
X88597619Y-122770238D01*
X88566666Y-122832142D01*
X88535714Y-122863095D01*
X88473809Y-122894047D01*
X88288095Y-122894047D01*
X88226190Y-122863095D01*
X88195238Y-122832142D01*
X88783333Y-122244047D02*
X89000000Y-122894047D01*
X89216666Y-122244047D01*
X89371428Y-122244047D02*
X89773809Y-122244047D01*
X89557142Y-122491666D01*
X89650000Y-122491666D01*
X89711904Y-122522619D01*
X89742857Y-122553571D01*
X89773809Y-122615476D01*
X89773809Y-122770238D01*
X89742857Y-122832142D01*
X89711904Y-122863095D01*
X89650000Y-122894047D01*
X89464285Y-122894047D01*
X89402380Y-122863095D01*
X89371428Y-122832142D01*
X115896428Y-138844047D02*
X115586904Y-138844047D01*
X115586904Y-138194047D01*
X116113095Y-138844047D02*
X116113095Y-138194047D01*
X116546428Y-138194047D02*
X116670238Y-138194047D01*
X116732142Y-138225000D01*
X116794047Y-138286904D01*
X116825000Y-138410714D01*
X116825000Y-138627380D01*
X116794047Y-138751190D01*
X116732142Y-138813095D01*
X116670238Y-138844047D01*
X116546428Y-138844047D01*
X116484523Y-138813095D01*
X116422619Y-138751190D01*
X116391666Y-138627380D01*
X116391666Y-138410714D01*
X116422619Y-138286904D01*
X116484523Y-138225000D01*
X116546428Y-138194047D01*
X117413095Y-138194047D02*
X117103571Y-138194047D01*
X117072619Y-138503571D01*
X117103571Y-138472619D01*
X117165476Y-138441666D01*
X117320238Y-138441666D01*
X117382142Y-138472619D01*
X117413095Y-138503571D01*
X117444047Y-138565476D01*
X117444047Y-138720238D01*
X117413095Y-138782142D01*
X117382142Y-138813095D01*
X117320238Y-138844047D01*
X117165476Y-138844047D01*
X117103571Y-138813095D01*
X117072619Y-138782142D01*
X113396428Y-138844047D02*
X113086904Y-138844047D01*
X113086904Y-138194047D01*
X113613095Y-138844047D02*
X113613095Y-138194047D01*
X114046428Y-138194047D02*
X114170238Y-138194047D01*
X114232142Y-138225000D01*
X114294047Y-138286904D01*
X114325000Y-138410714D01*
X114325000Y-138627380D01*
X114294047Y-138751190D01*
X114232142Y-138813095D01*
X114170238Y-138844047D01*
X114046428Y-138844047D01*
X113984523Y-138813095D01*
X113922619Y-138751190D01*
X113891666Y-138627380D01*
X113891666Y-138410714D01*
X113922619Y-138286904D01*
X113984523Y-138225000D01*
X114046428Y-138194047D01*
X114882142Y-138410714D02*
X114882142Y-138844047D01*
X114727380Y-138163095D02*
X114572619Y-138627380D01*
X114975000Y-138627380D01*
X110646428Y-138844047D02*
X110336904Y-138844047D01*
X110336904Y-138194047D01*
X110863095Y-138844047D02*
X110863095Y-138194047D01*
X111296428Y-138194047D02*
X111420238Y-138194047D01*
X111482142Y-138225000D01*
X111544047Y-138286904D01*
X111575000Y-138410714D01*
X111575000Y-138627380D01*
X111544047Y-138751190D01*
X111482142Y-138813095D01*
X111420238Y-138844047D01*
X111296428Y-138844047D01*
X111234523Y-138813095D01*
X111172619Y-138751190D01*
X111141666Y-138627380D01*
X111141666Y-138410714D01*
X111172619Y-138286904D01*
X111234523Y-138225000D01*
X111296428Y-138194047D01*
X111791666Y-138194047D02*
X112194047Y-138194047D01*
X111977380Y-138441666D01*
X112070238Y-138441666D01*
X112132142Y-138472619D01*
X112163095Y-138503571D01*
X112194047Y-138565476D01*
X112194047Y-138720238D01*
X112163095Y-138782142D01*
X112132142Y-138813095D01*
X112070238Y-138844047D01*
X111884523Y-138844047D01*
X111822619Y-138813095D01*
X111791666Y-138782142D01*
X108146428Y-138844047D02*
X107836904Y-138844047D01*
X107836904Y-138194047D01*
X108363095Y-138844047D02*
X108363095Y-138194047D01*
X108796428Y-138194047D02*
X108920238Y-138194047D01*
X108982142Y-138225000D01*
X109044047Y-138286904D01*
X109075000Y-138410714D01*
X109075000Y-138627380D01*
X109044047Y-138751190D01*
X108982142Y-138813095D01*
X108920238Y-138844047D01*
X108796428Y-138844047D01*
X108734523Y-138813095D01*
X108672619Y-138751190D01*
X108641666Y-138627380D01*
X108641666Y-138410714D01*
X108672619Y-138286904D01*
X108734523Y-138225000D01*
X108796428Y-138194047D01*
X109322619Y-138255952D02*
X109353571Y-138225000D01*
X109415476Y-138194047D01*
X109570238Y-138194047D01*
X109632142Y-138225000D01*
X109663095Y-138255952D01*
X109694047Y-138317857D01*
X109694047Y-138379761D01*
X109663095Y-138472619D01*
X109291666Y-138844047D01*
X109694047Y-138844047D01*
X105646428Y-138844047D02*
X105336904Y-138844047D01*
X105336904Y-138194047D01*
X105863095Y-138844047D02*
X105863095Y-138194047D01*
X106296428Y-138194047D02*
X106420238Y-138194047D01*
X106482142Y-138225000D01*
X106544047Y-138286904D01*
X106575000Y-138410714D01*
X106575000Y-138627380D01*
X106544047Y-138751190D01*
X106482142Y-138813095D01*
X106420238Y-138844047D01*
X106296428Y-138844047D01*
X106234523Y-138813095D01*
X106172619Y-138751190D01*
X106141666Y-138627380D01*
X106141666Y-138410714D01*
X106172619Y-138286904D01*
X106234523Y-138225000D01*
X106296428Y-138194047D01*
X107194047Y-138844047D02*
X106822619Y-138844047D01*
X107008333Y-138844047D02*
X107008333Y-138194047D01*
X106946428Y-138286904D01*
X106884523Y-138348809D01*
X106822619Y-138379761D01*
X101432142Y-138194047D02*
X101648809Y-138844047D01*
X101865476Y-138194047D01*
X102298809Y-138503571D02*
X102391666Y-138534523D01*
X102422619Y-138565476D01*
X102453571Y-138627380D01*
X102453571Y-138720238D01*
X102422619Y-138782142D01*
X102391666Y-138813095D01*
X102329761Y-138844047D01*
X102082142Y-138844047D01*
X102082142Y-138194047D01*
X102298809Y-138194047D01*
X102360714Y-138225000D01*
X102391666Y-138255952D01*
X102422619Y-138317857D01*
X102422619Y-138379761D01*
X102391666Y-138441666D01*
X102360714Y-138472619D01*
X102298809Y-138503571D01*
X102082142Y-138503571D01*
X102701190Y-138658333D02*
X103010714Y-138658333D01*
X102639285Y-138844047D02*
X102855952Y-138194047D01*
X103072619Y-138844047D01*
X103196428Y-138194047D02*
X103567857Y-138194047D01*
X103382142Y-138844047D02*
X103382142Y-138194047D01*
X98254761Y-138225000D02*
X98192857Y-138194047D01*
X98100000Y-138194047D01*
X98007142Y-138225000D01*
X97945238Y-138286904D01*
X97914285Y-138348809D01*
X97883333Y-138472619D01*
X97883333Y-138565476D01*
X97914285Y-138689285D01*
X97945238Y-138751190D01*
X98007142Y-138813095D01*
X98100000Y-138844047D01*
X98161904Y-138844047D01*
X98254761Y-138813095D01*
X98285714Y-138782142D01*
X98285714Y-138565476D01*
X98161904Y-138565476D01*
X98564285Y-138844047D02*
X98564285Y-138194047D01*
X98935714Y-138844047D01*
X98935714Y-138194047D01*
X99245238Y-138844047D02*
X99245238Y-138194047D01*
X99400000Y-138194047D01*
X99492857Y-138225000D01*
X99554761Y-138286904D01*
X99585714Y-138348809D01*
X99616666Y-138472619D01*
X99616666Y-138565476D01*
X99585714Y-138689285D01*
X99554761Y-138751190D01*
X99492857Y-138813095D01*
X99400000Y-138844047D01*
X99245238Y-138844047D01*
X95429761Y-138813095D02*
X95522619Y-138844047D01*
X95677380Y-138844047D01*
X95739285Y-138813095D01*
X95770238Y-138782142D01*
X95801190Y-138720238D01*
X95801190Y-138658333D01*
X95770238Y-138596428D01*
X95739285Y-138565476D01*
X95677380Y-138534523D01*
X95553571Y-138503571D01*
X95491666Y-138472619D01*
X95460714Y-138441666D01*
X95429761Y-138379761D01*
X95429761Y-138317857D01*
X95460714Y-138255952D01*
X95491666Y-138225000D01*
X95553571Y-138194047D01*
X95708333Y-138194047D01*
X95801190Y-138225000D01*
X96079761Y-138503571D02*
X96296428Y-138503571D01*
X96389285Y-138844047D02*
X96079761Y-138844047D01*
X96079761Y-138194047D01*
X96389285Y-138194047D01*
X96667857Y-138844047D02*
X96667857Y-138194047D01*
X97039285Y-138844047D01*
X97039285Y-138194047D01*
X92695238Y-138194047D02*
X93097619Y-138194047D01*
X92880952Y-138441666D01*
X92973809Y-138441666D01*
X93035714Y-138472619D01*
X93066666Y-138503571D01*
X93097619Y-138565476D01*
X93097619Y-138720238D01*
X93066666Y-138782142D01*
X93035714Y-138813095D01*
X92973809Y-138844047D01*
X92788095Y-138844047D01*
X92726190Y-138813095D01*
X92695238Y-138782142D01*
X93283333Y-138194047D02*
X93500000Y-138844047D01*
X93716666Y-138194047D01*
X93871428Y-138194047D02*
X94273809Y-138194047D01*
X94057142Y-138441666D01*
X94150000Y-138441666D01*
X94211904Y-138472619D01*
X94242857Y-138503571D01*
X94273809Y-138565476D01*
X94273809Y-138720238D01*
X94242857Y-138782142D01*
X94211904Y-138813095D01*
X94150000Y-138844047D01*
X93964285Y-138844047D01*
X93902380Y-138813095D01*
X93871428Y-138782142D01*
D12*
X139300000Y-130000000D02*
G75*
G03X139300000Y-130000000I-4300000J0D01*
G01*
X138053287Y-133232892D02*
X140747364Y-135926969D01*
X140747364Y-135926969D02*
X142812823Y-133861510D01*
X142812823Y-133861510D02*
X139400325Y-130449013D01*
X124300000Y-130000000D02*
G75*
G03X124300000Y-130000000I-4300000J0D01*
G01*
X123053287Y-133232892D02*
X125747364Y-135926969D01*
X125747364Y-135926969D02*
X127812823Y-133861510D01*
X127812823Y-133861510D02*
X124400325Y-130449013D01*
X109300000Y-130000000D02*
G75*
G03X109300000Y-130000000I-4300000J0D01*
G01*
X108053287Y-133232892D02*
X110747364Y-135926969D01*
X110747364Y-135926969D02*
X112812823Y-133861510D01*
X112812823Y-133861510D02*
X109400325Y-130449013D01*
X94300000Y-130000000D02*
G75*
G03X94300000Y-130000000I-4300000J0D01*
G01*
X93053287Y-133232892D02*
X95747364Y-135926969D01*
X95747364Y-135926969D02*
X97812823Y-133861510D01*
X97812823Y-133861510D02*
X94400325Y-130449013D01*
X79300000Y-130000000D02*
G75*
G03X79300000Y-130000000I-4300000J0D01*
G01*
X78053287Y-133232892D02*
X80747364Y-135926969D01*
X80747364Y-135926969D02*
X82812823Y-133861510D01*
X82812823Y-133861510D02*
X79400325Y-130449013D01*
X77700000Y-121550000D02*
X77700000Y-120220000D01*
X79030000Y-121550000D02*
X77700000Y-121550000D01*
X80300000Y-121550000D02*
X80300000Y-118890000D01*
X80300000Y-118890000D02*
X82900000Y-118890000D01*
X80300000Y-121550000D02*
X82900000Y-121550000D01*
X82900000Y-121550000D02*
X82900000Y-118890000D01*
X87700000Y-121550000D02*
X87700000Y-120220000D01*
X89030000Y-121550000D02*
X87700000Y-121550000D01*
X90300000Y-121550000D02*
X90300000Y-118890000D01*
X90300000Y-118890000D02*
X97980000Y-118890000D01*
X90300000Y-121550000D02*
X97980000Y-121550000D01*
X97980000Y-121550000D02*
X97980000Y-118890000D01*
D11*
X141658206Y-131297969D02*
X142365312Y-130590862D01*
X142533671Y-130759221D01*
X142601015Y-130893908D01*
X142601015Y-131028595D01*
X142567343Y-131129610D01*
X142466328Y-131297969D01*
X142365312Y-131398984D01*
X142196954Y-131500000D01*
X142095938Y-131533671D01*
X141961251Y-131533671D01*
X141826564Y-131466328D01*
X141658206Y-131297969D01*
X143409137Y-131634687D02*
X143072419Y-131297969D01*
X142702030Y-131601015D01*
X142769374Y-131601015D01*
X142870389Y-131634687D01*
X143038748Y-131803045D01*
X143072419Y-131904061D01*
X143072419Y-131971404D01*
X143038748Y-132072419D01*
X142870389Y-132240778D01*
X142769374Y-132274450D01*
X142702030Y-132274450D01*
X142601015Y-132240778D01*
X142432656Y-132072419D01*
X142398984Y-131971404D01*
X142398984Y-131904061D01*
X126658206Y-131297969D02*
X127365312Y-130590862D01*
X127533671Y-130759221D01*
X127601015Y-130893908D01*
X127601015Y-131028595D01*
X127567343Y-131129610D01*
X127466328Y-131297969D01*
X127365312Y-131398984D01*
X127196954Y-131500000D01*
X127095938Y-131533671D01*
X126961251Y-131533671D01*
X126826564Y-131466328D01*
X126658206Y-131297969D01*
X128139763Y-131836717D02*
X127668358Y-132308122D01*
X128240778Y-131398984D02*
X127567343Y-131735702D01*
X128005076Y-132173435D01*
X111658206Y-131297969D02*
X112365312Y-130590862D01*
X112533671Y-130759221D01*
X112601015Y-130893908D01*
X112601015Y-131028595D01*
X112567343Y-131129610D01*
X112466328Y-131297969D01*
X112365312Y-131398984D01*
X112196954Y-131500000D01*
X112095938Y-131533671D01*
X111961251Y-131533671D01*
X111826564Y-131466328D01*
X111658206Y-131297969D01*
X113005076Y-131230625D02*
X113442809Y-131668358D01*
X112937732Y-131702030D01*
X113038748Y-131803045D01*
X113072419Y-131904061D01*
X113072419Y-131971404D01*
X113038748Y-132072419D01*
X112870389Y-132240778D01*
X112769374Y-132274450D01*
X112702030Y-132274450D01*
X112601015Y-132240778D01*
X112398984Y-132038748D01*
X112365312Y-131937732D01*
X112365312Y-131870389D01*
X96658206Y-131297969D02*
X97365312Y-130590862D01*
X97533671Y-130759221D01*
X97601015Y-130893908D01*
X97601015Y-131028595D01*
X97567343Y-131129610D01*
X97466328Y-131297969D01*
X97365312Y-131398984D01*
X97196954Y-131500000D01*
X97095938Y-131533671D01*
X96961251Y-131533671D01*
X96826564Y-131466328D01*
X96658206Y-131297969D01*
X97971404Y-131331641D02*
X98038748Y-131331641D01*
X98139763Y-131365312D01*
X98308122Y-131533671D01*
X98341793Y-131634687D01*
X98341793Y-131702030D01*
X98308122Y-131803045D01*
X98240778Y-131870389D01*
X98106091Y-131937732D01*
X97297969Y-131937732D01*
X97735702Y-132375465D01*
X81658206Y-131297969D02*
X82365312Y-130590862D01*
X82533671Y-130759221D01*
X82601015Y-130893908D01*
X82601015Y-131028595D01*
X82567343Y-131129610D01*
X82466328Y-131297969D01*
X82365312Y-131398984D01*
X82196954Y-131500000D01*
X82095938Y-131533671D01*
X81961251Y-131533671D01*
X81826564Y-131466328D01*
X81658206Y-131297969D01*
X82735702Y-132375465D02*
X82331641Y-131971404D01*
X82533671Y-132173435D02*
X83240778Y-131466328D01*
X83072419Y-131500000D01*
X82937732Y-131500000D01*
X82836717Y-131466328D01*
X75696666Y-119672380D02*
X75696666Y-120386666D01*
X75649047Y-120529523D01*
X75553809Y-120624761D01*
X75410952Y-120672380D01*
X75315714Y-120672380D01*
X76077619Y-119672380D02*
X76696666Y-119672380D01*
X76363333Y-120053333D01*
X76506190Y-120053333D01*
X76601428Y-120100952D01*
X76649047Y-120148571D01*
X76696666Y-120243809D01*
X76696666Y-120481904D01*
X76649047Y-120577142D01*
X76601428Y-120624761D01*
X76506190Y-120672380D01*
X76220476Y-120672380D01*
X76125238Y-120624761D01*
X76077619Y-120577142D01*
X89686666Y-140422380D02*
X89686666Y-141136666D01*
X89639047Y-141279523D01*
X89543809Y-141374761D01*
X89400952Y-141422380D01*
X89305714Y-141422380D01*
X90115238Y-140517619D02*
X90162857Y-140470000D01*
X90258095Y-140422380D01*
X90496190Y-140422380D01*
X90591428Y-140470000D01*
X90639047Y-140517619D01*
X90686666Y-140612857D01*
X90686666Y-140708095D01*
X90639047Y-140850952D01*
X90067619Y-141422380D01*
X90686666Y-141422380D01*
X85696666Y-119722380D02*
X85696666Y-120436666D01*
X85649047Y-120579523D01*
X85553809Y-120674761D01*
X85410952Y-120722380D01*
X85315714Y-120722380D01*
X86696666Y-120722380D02*
X86125238Y-120722380D01*
X86410952Y-120722380D02*
X86410952Y-119722380D01*
X86315714Y-119865238D01*
X86220476Y-119960476D01*
X86125238Y-120008095D01*
M02*
