G04 #@! TF.GenerationSoftware,KiCad,Pcbnew,(5.1.5-0-10_14)*
G04 #@! TF.CreationDate,2020-04-19T21:27:58+02:00*
G04 #@! TF.ProjectId,inuk-passive-led-shield,696e756b-2d70-4617-9373-6976652d6c65,rev?*
G04 #@! TF.SameCoordinates,Original*
G04 #@! TF.FileFunction,Copper,L2,Bot*
G04 #@! TF.FilePolarity,Positive*
%FSLAX46Y46*%
G04 Gerber Fmt 4.6, Leading zero omitted, Abs format (unit mm)*
G04 Created by KiCad (PCBNEW (5.1.5-0-10_14)) date 2020-04-19 21:27:58*
%MOMM*%
%LPD*%
G04 APERTURE LIST*
%ADD10C,0.800000*%
%ADD11C,6.400000*%
%ADD12O,1.700000X1.700000*%
%ADD13R,1.700000X1.700000*%
%ADD14C,0.500000*%
%ADD15C,0.254000*%
G04 APERTURE END LIST*
D10*
X61697056Y-138302944D03*
X60000000Y-137600000D03*
X58302944Y-138302944D03*
X57600000Y-140000000D03*
X58302944Y-141697056D03*
X60000000Y-142400000D03*
X61697056Y-141697056D03*
X62400000Y-140000000D03*
D11*
X60000000Y-140000000D03*
D10*
X151697056Y-138302944D03*
X150000000Y-137600000D03*
X148302944Y-138302944D03*
X147600000Y-140000000D03*
X148302944Y-141697056D03*
X150000000Y-142400000D03*
X151697056Y-141697056D03*
X152400000Y-140000000D03*
D11*
X150000000Y-140000000D03*
D10*
X151697056Y-121302944D03*
X150000000Y-120600000D03*
X148302944Y-121302944D03*
X147600000Y-123000000D03*
X148302944Y-124697056D03*
X150000000Y-125400000D03*
X151697056Y-124697056D03*
X152400000Y-123000000D03*
D11*
X150000000Y-123000000D03*
D10*
X61697056Y-121302944D03*
X60000000Y-120600000D03*
X58302944Y-121302944D03*
X57600000Y-123000000D03*
X58302944Y-124697056D03*
X60000000Y-125400000D03*
X61697056Y-124697056D03*
X62400000Y-123000000D03*
D11*
X60000000Y-123000000D03*
D12*
X81570000Y-120220000D03*
D13*
X79030000Y-120220000D03*
D12*
X116430000Y-140970000D03*
X113890000Y-140970000D03*
X111350000Y-140970000D03*
X108810000Y-140970000D03*
X106270000Y-140970000D03*
X103730000Y-140970000D03*
X101190000Y-140970000D03*
X98650000Y-140970000D03*
X96110000Y-140970000D03*
D13*
X93570000Y-140970000D03*
D12*
X96650000Y-120220000D03*
X94110000Y-120220000D03*
X91570000Y-120220000D03*
D13*
X89030000Y-120220000D03*
D10*
X88520000Y-130960000D03*
X91520000Y-128960000D03*
X90020000Y-127960000D03*
X90020000Y-131960000D03*
X91520000Y-130960000D03*
X88520000Y-128960000D03*
X90020000Y-129960000D03*
X133500000Y-131000000D03*
X136500000Y-129000000D03*
X135000000Y-128000000D03*
X135000000Y-132000000D03*
X136500000Y-131000000D03*
X133500000Y-129000000D03*
X135000000Y-130000000D03*
X118500000Y-131000000D03*
X121500000Y-129000000D03*
X120000000Y-128000000D03*
X120000000Y-132000000D03*
X121500000Y-131000000D03*
X118500000Y-129000000D03*
X120000000Y-130000000D03*
X103500000Y-131000000D03*
X106500000Y-129000000D03*
X105000000Y-128000000D03*
X105000000Y-132000000D03*
X106500000Y-131000000D03*
X103500000Y-129000000D03*
X105000000Y-130000000D03*
X75000000Y-131960000D03*
X75020000Y-127960000D03*
X75020000Y-129960000D03*
X73520000Y-130960000D03*
X76520000Y-130960000D03*
X76520000Y-128960000D03*
X73520000Y-128960000D03*
D14*
X98650000Y-122220000D02*
X96650000Y-120220000D01*
X98650000Y-140970000D02*
X98650000Y-122220000D01*
X97500000Y-139580000D02*
X96110000Y-140970000D01*
X97500000Y-123500000D02*
X97500000Y-139580000D01*
X94220000Y-120220000D02*
X97500000Y-123500000D01*
X94110000Y-120220000D02*
X94220000Y-120220000D01*
X89030000Y-120780000D02*
X89030000Y-120220000D01*
X93570000Y-138930000D02*
X93570000Y-140970000D01*
X96500000Y-136000000D02*
X93570000Y-138930000D01*
X89030000Y-120220000D02*
X89030000Y-121570000D01*
X96500000Y-125000000D02*
X96500000Y-136000000D01*
X89030000Y-121570000D02*
X89710000Y-122250000D01*
X93750000Y-122250000D02*
X96500000Y-125000000D01*
X89710000Y-122250000D02*
X93750000Y-122250000D01*
D15*
G36*
X150759192Y-118780578D02*
G01*
X151494389Y-118981705D01*
X152182351Y-119309846D01*
X152801331Y-119754628D01*
X153331761Y-120301988D01*
X153756884Y-120934639D01*
X154063251Y-121632561D01*
X154242499Y-122379183D01*
X154290000Y-123026030D01*
X154290001Y-139968370D01*
X154219422Y-140759193D01*
X154018295Y-141494389D01*
X153690152Y-142182355D01*
X153245374Y-142801328D01*
X152698012Y-143331761D01*
X152065362Y-143756883D01*
X151367439Y-144063251D01*
X150620819Y-144242499D01*
X149973970Y-144290000D01*
X60031618Y-144290000D01*
X59240807Y-144219422D01*
X58505611Y-144018295D01*
X57817645Y-143690152D01*
X57198672Y-143245374D01*
X56671020Y-142700881D01*
X57478724Y-142700881D01*
X57838912Y-143190548D01*
X58502882Y-143550849D01*
X59224385Y-143774694D01*
X59975695Y-143853480D01*
X60727938Y-143784178D01*
X61452208Y-143569452D01*
X62120670Y-143217555D01*
X62161088Y-143190548D01*
X62521276Y-142700881D01*
X147478724Y-142700881D01*
X147838912Y-143190548D01*
X148502882Y-143550849D01*
X149224385Y-143774694D01*
X149975695Y-143853480D01*
X150727938Y-143784178D01*
X151452208Y-143569452D01*
X152120670Y-143217555D01*
X152161088Y-143190548D01*
X152521276Y-142700881D01*
X150000000Y-140179605D01*
X147478724Y-142700881D01*
X62521276Y-142700881D01*
X60000000Y-140179605D01*
X57478724Y-142700881D01*
X56671020Y-142700881D01*
X56668239Y-142698012D01*
X56243117Y-142065362D01*
X55936749Y-141367439D01*
X55757501Y-140620819D01*
X55710127Y-139975695D01*
X56146520Y-139975695D01*
X56215822Y-140727938D01*
X56430548Y-141452208D01*
X56782445Y-142120670D01*
X56809452Y-142161088D01*
X57299119Y-142521276D01*
X59820395Y-140000000D01*
X60179605Y-140000000D01*
X62700881Y-142521276D01*
X63190548Y-142161088D01*
X63550849Y-141497118D01*
X63774694Y-140775615D01*
X63853480Y-140024305D01*
X63784178Y-139272062D01*
X63569452Y-138547792D01*
X63217555Y-137879330D01*
X63190548Y-137838912D01*
X62700881Y-137478724D01*
X60179605Y-140000000D01*
X59820395Y-140000000D01*
X57299119Y-137478724D01*
X56809452Y-137838912D01*
X56449151Y-138502882D01*
X56225306Y-139224385D01*
X56146520Y-139975695D01*
X55710127Y-139975695D01*
X55710000Y-139973970D01*
X55710000Y-137299119D01*
X57478724Y-137299119D01*
X60000000Y-139820395D01*
X62521276Y-137299119D01*
X62161088Y-136809452D01*
X61497118Y-136449151D01*
X60775615Y-136225306D01*
X60024305Y-136146520D01*
X59272062Y-136215822D01*
X58547792Y-136430548D01*
X57879330Y-136782445D01*
X57838912Y-136809452D01*
X57478724Y-137299119D01*
X55710000Y-137299119D01*
X55710000Y-125700881D01*
X57478724Y-125700881D01*
X57838912Y-126190548D01*
X58502882Y-126550849D01*
X59224385Y-126774694D01*
X59975695Y-126853480D01*
X60727938Y-126784178D01*
X61452208Y-126569452D01*
X62120670Y-126217555D01*
X62161088Y-126190548D01*
X62521276Y-125700881D01*
X60000000Y-123179605D01*
X57478724Y-125700881D01*
X55710000Y-125700881D01*
X55710000Y-123031618D01*
X55714991Y-122975695D01*
X56146520Y-122975695D01*
X56215822Y-123727938D01*
X56430548Y-124452208D01*
X56782445Y-125120670D01*
X56809452Y-125161088D01*
X57299119Y-125521276D01*
X59820395Y-123000000D01*
X60179605Y-123000000D01*
X62700881Y-125521276D01*
X63190548Y-125161088D01*
X63550849Y-124497118D01*
X63774694Y-123775615D01*
X63853480Y-123024305D01*
X63784178Y-122272062D01*
X63569452Y-121547792D01*
X63217555Y-120879330D01*
X63190548Y-120838912D01*
X62700881Y-120478724D01*
X60179605Y-123000000D01*
X59820395Y-123000000D01*
X57299119Y-120478724D01*
X56809452Y-120838912D01*
X56449151Y-121502882D01*
X56225306Y-122224385D01*
X56146520Y-122975695D01*
X55714991Y-122975695D01*
X55780578Y-122240808D01*
X55981705Y-121505611D01*
X56309846Y-120817649D01*
X56682447Y-120299119D01*
X57478724Y-120299119D01*
X60000000Y-122820395D01*
X62521276Y-120299119D01*
X62161088Y-119809452D01*
X61497118Y-119449151D01*
X61241997Y-119370000D01*
X77541928Y-119370000D01*
X77541928Y-121070000D01*
X77554188Y-121194482D01*
X77590498Y-121314180D01*
X77649463Y-121424494D01*
X77728815Y-121521185D01*
X77825506Y-121600537D01*
X77935820Y-121659502D01*
X78055518Y-121695812D01*
X78180000Y-121708072D01*
X79880000Y-121708072D01*
X80004482Y-121695812D01*
X80124180Y-121659502D01*
X80234494Y-121600537D01*
X80331185Y-121521185D01*
X80410537Y-121424494D01*
X80469502Y-121314180D01*
X80491513Y-121241620D01*
X80623368Y-121373475D01*
X80866589Y-121535990D01*
X81136842Y-121647932D01*
X81423740Y-121705000D01*
X81716260Y-121705000D01*
X82003158Y-121647932D01*
X82273411Y-121535990D01*
X82516632Y-121373475D01*
X82723475Y-121166632D01*
X82885990Y-120923411D01*
X82997932Y-120653158D01*
X83055000Y-120366260D01*
X83055000Y-120073740D01*
X82997932Y-119786842D01*
X82885990Y-119516589D01*
X82788043Y-119370000D01*
X87541928Y-119370000D01*
X87541928Y-121070000D01*
X87554188Y-121194482D01*
X87590498Y-121314180D01*
X87649463Y-121424494D01*
X87728815Y-121521185D01*
X87825506Y-121600537D01*
X87935820Y-121659502D01*
X88055518Y-121695812D01*
X88154065Y-121705518D01*
X88157805Y-121743490D01*
X88208412Y-121910313D01*
X88290590Y-122064059D01*
X88373468Y-122165046D01*
X88373471Y-122165049D01*
X88401184Y-122198817D01*
X88434951Y-122226529D01*
X89053470Y-122845049D01*
X89081183Y-122878817D01*
X89114951Y-122906530D01*
X89114953Y-122906532D01*
X89151938Y-122936885D01*
X89215941Y-122989411D01*
X89369687Y-123071589D01*
X89536510Y-123122195D01*
X89666523Y-123135000D01*
X89666533Y-123135000D01*
X89709999Y-123139281D01*
X89753465Y-123135000D01*
X93383422Y-123135000D01*
X95615000Y-125366579D01*
X95615001Y-135633420D01*
X92974956Y-138273466D01*
X92941183Y-138301183D01*
X92830589Y-138435942D01*
X92748411Y-138589688D01*
X92697805Y-138756511D01*
X92685000Y-138886524D01*
X92685000Y-138886531D01*
X92680719Y-138930000D01*
X92685000Y-138973469D01*
X92685000Y-139485375D01*
X92595518Y-139494188D01*
X92475820Y-139530498D01*
X92365506Y-139589463D01*
X92268815Y-139668815D01*
X92189463Y-139765506D01*
X92130498Y-139875820D01*
X92094188Y-139995518D01*
X92081928Y-140120000D01*
X92081928Y-141820000D01*
X92094188Y-141944482D01*
X92130498Y-142064180D01*
X92189463Y-142174494D01*
X92268815Y-142271185D01*
X92365506Y-142350537D01*
X92475820Y-142409502D01*
X92595518Y-142445812D01*
X92720000Y-142458072D01*
X94420000Y-142458072D01*
X94544482Y-142445812D01*
X94664180Y-142409502D01*
X94774494Y-142350537D01*
X94871185Y-142271185D01*
X94950537Y-142174494D01*
X95009502Y-142064180D01*
X95031513Y-141991620D01*
X95163368Y-142123475D01*
X95406589Y-142285990D01*
X95676842Y-142397932D01*
X95963740Y-142455000D01*
X96256260Y-142455000D01*
X96543158Y-142397932D01*
X96813411Y-142285990D01*
X97056632Y-142123475D01*
X97263475Y-141916632D01*
X97380000Y-141742240D01*
X97496525Y-141916632D01*
X97703368Y-142123475D01*
X97946589Y-142285990D01*
X98216842Y-142397932D01*
X98503740Y-142455000D01*
X98796260Y-142455000D01*
X99083158Y-142397932D01*
X99353411Y-142285990D01*
X99596632Y-142123475D01*
X99803475Y-141916632D01*
X99920000Y-141742240D01*
X100036525Y-141916632D01*
X100243368Y-142123475D01*
X100486589Y-142285990D01*
X100756842Y-142397932D01*
X101043740Y-142455000D01*
X101336260Y-142455000D01*
X101623158Y-142397932D01*
X101893411Y-142285990D01*
X102136632Y-142123475D01*
X102343475Y-141916632D01*
X102460000Y-141742240D01*
X102576525Y-141916632D01*
X102783368Y-142123475D01*
X103026589Y-142285990D01*
X103296842Y-142397932D01*
X103583740Y-142455000D01*
X103876260Y-142455000D01*
X104163158Y-142397932D01*
X104433411Y-142285990D01*
X104676632Y-142123475D01*
X104883475Y-141916632D01*
X105000000Y-141742240D01*
X105116525Y-141916632D01*
X105323368Y-142123475D01*
X105566589Y-142285990D01*
X105836842Y-142397932D01*
X106123740Y-142455000D01*
X106416260Y-142455000D01*
X106703158Y-142397932D01*
X106973411Y-142285990D01*
X107216632Y-142123475D01*
X107423475Y-141916632D01*
X107540000Y-141742240D01*
X107656525Y-141916632D01*
X107863368Y-142123475D01*
X108106589Y-142285990D01*
X108376842Y-142397932D01*
X108663740Y-142455000D01*
X108956260Y-142455000D01*
X109243158Y-142397932D01*
X109513411Y-142285990D01*
X109756632Y-142123475D01*
X109963475Y-141916632D01*
X110080000Y-141742240D01*
X110196525Y-141916632D01*
X110403368Y-142123475D01*
X110646589Y-142285990D01*
X110916842Y-142397932D01*
X111203740Y-142455000D01*
X111496260Y-142455000D01*
X111783158Y-142397932D01*
X112053411Y-142285990D01*
X112296632Y-142123475D01*
X112503475Y-141916632D01*
X112620000Y-141742240D01*
X112736525Y-141916632D01*
X112943368Y-142123475D01*
X113186589Y-142285990D01*
X113456842Y-142397932D01*
X113743740Y-142455000D01*
X114036260Y-142455000D01*
X114323158Y-142397932D01*
X114593411Y-142285990D01*
X114836632Y-142123475D01*
X115043475Y-141916632D01*
X115160000Y-141742240D01*
X115276525Y-141916632D01*
X115483368Y-142123475D01*
X115726589Y-142285990D01*
X115996842Y-142397932D01*
X116283740Y-142455000D01*
X116576260Y-142455000D01*
X116863158Y-142397932D01*
X117133411Y-142285990D01*
X117376632Y-142123475D01*
X117583475Y-141916632D01*
X117745990Y-141673411D01*
X117857932Y-141403158D01*
X117915000Y-141116260D01*
X117915000Y-140823740D01*
X117857932Y-140536842D01*
X117745990Y-140266589D01*
X117583475Y-140023368D01*
X117535802Y-139975695D01*
X146146520Y-139975695D01*
X146215822Y-140727938D01*
X146430548Y-141452208D01*
X146782445Y-142120670D01*
X146809452Y-142161088D01*
X147299119Y-142521276D01*
X149820395Y-140000000D01*
X150179605Y-140000000D01*
X152700881Y-142521276D01*
X153190548Y-142161088D01*
X153550849Y-141497118D01*
X153774694Y-140775615D01*
X153853480Y-140024305D01*
X153784178Y-139272062D01*
X153569452Y-138547792D01*
X153217555Y-137879330D01*
X153190548Y-137838912D01*
X152700881Y-137478724D01*
X150179605Y-140000000D01*
X149820395Y-140000000D01*
X147299119Y-137478724D01*
X146809452Y-137838912D01*
X146449151Y-138502882D01*
X146225306Y-139224385D01*
X146146520Y-139975695D01*
X117535802Y-139975695D01*
X117376632Y-139816525D01*
X117133411Y-139654010D01*
X116863158Y-139542068D01*
X116576260Y-139485000D01*
X116283740Y-139485000D01*
X115996842Y-139542068D01*
X115726589Y-139654010D01*
X115483368Y-139816525D01*
X115276525Y-140023368D01*
X115160000Y-140197760D01*
X115043475Y-140023368D01*
X114836632Y-139816525D01*
X114593411Y-139654010D01*
X114323158Y-139542068D01*
X114036260Y-139485000D01*
X113743740Y-139485000D01*
X113456842Y-139542068D01*
X113186589Y-139654010D01*
X112943368Y-139816525D01*
X112736525Y-140023368D01*
X112620000Y-140197760D01*
X112503475Y-140023368D01*
X112296632Y-139816525D01*
X112053411Y-139654010D01*
X111783158Y-139542068D01*
X111496260Y-139485000D01*
X111203740Y-139485000D01*
X110916842Y-139542068D01*
X110646589Y-139654010D01*
X110403368Y-139816525D01*
X110196525Y-140023368D01*
X110080000Y-140197760D01*
X109963475Y-140023368D01*
X109756632Y-139816525D01*
X109513411Y-139654010D01*
X109243158Y-139542068D01*
X108956260Y-139485000D01*
X108663740Y-139485000D01*
X108376842Y-139542068D01*
X108106589Y-139654010D01*
X107863368Y-139816525D01*
X107656525Y-140023368D01*
X107540000Y-140197760D01*
X107423475Y-140023368D01*
X107216632Y-139816525D01*
X106973411Y-139654010D01*
X106703158Y-139542068D01*
X106416260Y-139485000D01*
X106123740Y-139485000D01*
X105836842Y-139542068D01*
X105566589Y-139654010D01*
X105323368Y-139816525D01*
X105116525Y-140023368D01*
X105000000Y-140197760D01*
X104883475Y-140023368D01*
X104676632Y-139816525D01*
X104433411Y-139654010D01*
X104163158Y-139542068D01*
X103876260Y-139485000D01*
X103583740Y-139485000D01*
X103296842Y-139542068D01*
X103026589Y-139654010D01*
X102783368Y-139816525D01*
X102576525Y-140023368D01*
X102460000Y-140197760D01*
X102343475Y-140023368D01*
X102136632Y-139816525D01*
X101893411Y-139654010D01*
X101623158Y-139542068D01*
X101336260Y-139485000D01*
X101043740Y-139485000D01*
X100756842Y-139542068D01*
X100486589Y-139654010D01*
X100243368Y-139816525D01*
X100036525Y-140023368D01*
X99920000Y-140197760D01*
X99803475Y-140023368D01*
X99596632Y-139816525D01*
X99535000Y-139775344D01*
X99535000Y-137299119D01*
X147478724Y-137299119D01*
X150000000Y-139820395D01*
X152521276Y-137299119D01*
X152161088Y-136809452D01*
X151497118Y-136449151D01*
X150775615Y-136225306D01*
X150024305Y-136146520D01*
X149272062Y-136215822D01*
X148547792Y-136430548D01*
X147879330Y-136782445D01*
X147838912Y-136809452D01*
X147478724Y-137299119D01*
X99535000Y-137299119D01*
X99535000Y-125700881D01*
X147478724Y-125700881D01*
X147838912Y-126190548D01*
X148502882Y-126550849D01*
X149224385Y-126774694D01*
X149975695Y-126853480D01*
X150727938Y-126784178D01*
X151452208Y-126569452D01*
X152120670Y-126217555D01*
X152161088Y-126190548D01*
X152521276Y-125700881D01*
X150000000Y-123179605D01*
X147478724Y-125700881D01*
X99535000Y-125700881D01*
X99535000Y-122975695D01*
X146146520Y-122975695D01*
X146215822Y-123727938D01*
X146430548Y-124452208D01*
X146782445Y-125120670D01*
X146809452Y-125161088D01*
X147299119Y-125521276D01*
X149820395Y-123000000D01*
X150179605Y-123000000D01*
X152700881Y-125521276D01*
X153190548Y-125161088D01*
X153550849Y-124497118D01*
X153774694Y-123775615D01*
X153853480Y-123024305D01*
X153784178Y-122272062D01*
X153569452Y-121547792D01*
X153217555Y-120879330D01*
X153190548Y-120838912D01*
X152700881Y-120478724D01*
X150179605Y-123000000D01*
X149820395Y-123000000D01*
X147299119Y-120478724D01*
X146809452Y-120838912D01*
X146449151Y-121502882D01*
X146225306Y-122224385D01*
X146146520Y-122975695D01*
X99535000Y-122975695D01*
X99535000Y-122263465D01*
X99539281Y-122219999D01*
X99535000Y-122176533D01*
X99535000Y-122176523D01*
X99522195Y-122046510D01*
X99471589Y-121879687D01*
X99389411Y-121725941D01*
X99342912Y-121669282D01*
X99306532Y-121624953D01*
X99306530Y-121624951D01*
X99278817Y-121591183D01*
X99245049Y-121563470D01*
X98120539Y-120438960D01*
X98135000Y-120366260D01*
X98135000Y-120299119D01*
X147478724Y-120299119D01*
X150000000Y-122820395D01*
X152521276Y-120299119D01*
X152161088Y-119809452D01*
X151497118Y-119449151D01*
X150775615Y-119225306D01*
X150024305Y-119146520D01*
X149272062Y-119215822D01*
X148547792Y-119430548D01*
X147879330Y-119782445D01*
X147838912Y-119809452D01*
X147478724Y-120299119D01*
X98135000Y-120299119D01*
X98135000Y-120073740D01*
X98077932Y-119786842D01*
X97965990Y-119516589D01*
X97803475Y-119273368D01*
X97596632Y-119066525D01*
X97353411Y-118904010D01*
X97083158Y-118792068D01*
X96796260Y-118735000D01*
X96503740Y-118735000D01*
X96216842Y-118792068D01*
X95946589Y-118904010D01*
X95703368Y-119066525D01*
X95496525Y-119273368D01*
X95380000Y-119447760D01*
X95263475Y-119273368D01*
X95056632Y-119066525D01*
X94813411Y-118904010D01*
X94543158Y-118792068D01*
X94256260Y-118735000D01*
X93963740Y-118735000D01*
X93676842Y-118792068D01*
X93406589Y-118904010D01*
X93163368Y-119066525D01*
X92956525Y-119273368D01*
X92840000Y-119447760D01*
X92723475Y-119273368D01*
X92516632Y-119066525D01*
X92273411Y-118904010D01*
X92003158Y-118792068D01*
X91716260Y-118735000D01*
X91423740Y-118735000D01*
X91136842Y-118792068D01*
X90866589Y-118904010D01*
X90623368Y-119066525D01*
X90491513Y-119198380D01*
X90469502Y-119125820D01*
X90410537Y-119015506D01*
X90331185Y-118918815D01*
X90234494Y-118839463D01*
X90124180Y-118780498D01*
X90004482Y-118744188D01*
X89880000Y-118731928D01*
X88180000Y-118731928D01*
X88055518Y-118744188D01*
X87935820Y-118780498D01*
X87825506Y-118839463D01*
X87728815Y-118918815D01*
X87649463Y-119015506D01*
X87590498Y-119125820D01*
X87554188Y-119245518D01*
X87541928Y-119370000D01*
X82788043Y-119370000D01*
X82723475Y-119273368D01*
X82516632Y-119066525D01*
X82273411Y-118904010D01*
X82003158Y-118792068D01*
X81716260Y-118735000D01*
X81423740Y-118735000D01*
X81136842Y-118792068D01*
X80866589Y-118904010D01*
X80623368Y-119066525D01*
X80491513Y-119198380D01*
X80469502Y-119125820D01*
X80410537Y-119015506D01*
X80331185Y-118918815D01*
X80234494Y-118839463D01*
X80124180Y-118780498D01*
X80004482Y-118744188D01*
X79880000Y-118731928D01*
X78180000Y-118731928D01*
X78055518Y-118744188D01*
X77935820Y-118780498D01*
X77825506Y-118839463D01*
X77728815Y-118918815D01*
X77649463Y-119015506D01*
X77590498Y-119125820D01*
X77554188Y-119245518D01*
X77541928Y-119370000D01*
X61241997Y-119370000D01*
X60775615Y-119225306D01*
X60024305Y-119146520D01*
X59272062Y-119215822D01*
X58547792Y-119430548D01*
X57879330Y-119782445D01*
X57838912Y-119809452D01*
X57478724Y-120299119D01*
X56682447Y-120299119D01*
X56754628Y-120198669D01*
X57301988Y-119668239D01*
X57934639Y-119243116D01*
X58632561Y-118936749D01*
X59379183Y-118757501D01*
X60026030Y-118710000D01*
X149968382Y-118710000D01*
X150759192Y-118780578D01*
G37*
X150759192Y-118780578D02*
X151494389Y-118981705D01*
X152182351Y-119309846D01*
X152801331Y-119754628D01*
X153331761Y-120301988D01*
X153756884Y-120934639D01*
X154063251Y-121632561D01*
X154242499Y-122379183D01*
X154290000Y-123026030D01*
X154290001Y-139968370D01*
X154219422Y-140759193D01*
X154018295Y-141494389D01*
X153690152Y-142182355D01*
X153245374Y-142801328D01*
X152698012Y-143331761D01*
X152065362Y-143756883D01*
X151367439Y-144063251D01*
X150620819Y-144242499D01*
X149973970Y-144290000D01*
X60031618Y-144290000D01*
X59240807Y-144219422D01*
X58505611Y-144018295D01*
X57817645Y-143690152D01*
X57198672Y-143245374D01*
X56671020Y-142700881D01*
X57478724Y-142700881D01*
X57838912Y-143190548D01*
X58502882Y-143550849D01*
X59224385Y-143774694D01*
X59975695Y-143853480D01*
X60727938Y-143784178D01*
X61452208Y-143569452D01*
X62120670Y-143217555D01*
X62161088Y-143190548D01*
X62521276Y-142700881D01*
X147478724Y-142700881D01*
X147838912Y-143190548D01*
X148502882Y-143550849D01*
X149224385Y-143774694D01*
X149975695Y-143853480D01*
X150727938Y-143784178D01*
X151452208Y-143569452D01*
X152120670Y-143217555D01*
X152161088Y-143190548D01*
X152521276Y-142700881D01*
X150000000Y-140179605D01*
X147478724Y-142700881D01*
X62521276Y-142700881D01*
X60000000Y-140179605D01*
X57478724Y-142700881D01*
X56671020Y-142700881D01*
X56668239Y-142698012D01*
X56243117Y-142065362D01*
X55936749Y-141367439D01*
X55757501Y-140620819D01*
X55710127Y-139975695D01*
X56146520Y-139975695D01*
X56215822Y-140727938D01*
X56430548Y-141452208D01*
X56782445Y-142120670D01*
X56809452Y-142161088D01*
X57299119Y-142521276D01*
X59820395Y-140000000D01*
X60179605Y-140000000D01*
X62700881Y-142521276D01*
X63190548Y-142161088D01*
X63550849Y-141497118D01*
X63774694Y-140775615D01*
X63853480Y-140024305D01*
X63784178Y-139272062D01*
X63569452Y-138547792D01*
X63217555Y-137879330D01*
X63190548Y-137838912D01*
X62700881Y-137478724D01*
X60179605Y-140000000D01*
X59820395Y-140000000D01*
X57299119Y-137478724D01*
X56809452Y-137838912D01*
X56449151Y-138502882D01*
X56225306Y-139224385D01*
X56146520Y-139975695D01*
X55710127Y-139975695D01*
X55710000Y-139973970D01*
X55710000Y-137299119D01*
X57478724Y-137299119D01*
X60000000Y-139820395D01*
X62521276Y-137299119D01*
X62161088Y-136809452D01*
X61497118Y-136449151D01*
X60775615Y-136225306D01*
X60024305Y-136146520D01*
X59272062Y-136215822D01*
X58547792Y-136430548D01*
X57879330Y-136782445D01*
X57838912Y-136809452D01*
X57478724Y-137299119D01*
X55710000Y-137299119D01*
X55710000Y-125700881D01*
X57478724Y-125700881D01*
X57838912Y-126190548D01*
X58502882Y-126550849D01*
X59224385Y-126774694D01*
X59975695Y-126853480D01*
X60727938Y-126784178D01*
X61452208Y-126569452D01*
X62120670Y-126217555D01*
X62161088Y-126190548D01*
X62521276Y-125700881D01*
X60000000Y-123179605D01*
X57478724Y-125700881D01*
X55710000Y-125700881D01*
X55710000Y-123031618D01*
X55714991Y-122975695D01*
X56146520Y-122975695D01*
X56215822Y-123727938D01*
X56430548Y-124452208D01*
X56782445Y-125120670D01*
X56809452Y-125161088D01*
X57299119Y-125521276D01*
X59820395Y-123000000D01*
X60179605Y-123000000D01*
X62700881Y-125521276D01*
X63190548Y-125161088D01*
X63550849Y-124497118D01*
X63774694Y-123775615D01*
X63853480Y-123024305D01*
X63784178Y-122272062D01*
X63569452Y-121547792D01*
X63217555Y-120879330D01*
X63190548Y-120838912D01*
X62700881Y-120478724D01*
X60179605Y-123000000D01*
X59820395Y-123000000D01*
X57299119Y-120478724D01*
X56809452Y-120838912D01*
X56449151Y-121502882D01*
X56225306Y-122224385D01*
X56146520Y-122975695D01*
X55714991Y-122975695D01*
X55780578Y-122240808D01*
X55981705Y-121505611D01*
X56309846Y-120817649D01*
X56682447Y-120299119D01*
X57478724Y-120299119D01*
X60000000Y-122820395D01*
X62521276Y-120299119D01*
X62161088Y-119809452D01*
X61497118Y-119449151D01*
X61241997Y-119370000D01*
X77541928Y-119370000D01*
X77541928Y-121070000D01*
X77554188Y-121194482D01*
X77590498Y-121314180D01*
X77649463Y-121424494D01*
X77728815Y-121521185D01*
X77825506Y-121600537D01*
X77935820Y-121659502D01*
X78055518Y-121695812D01*
X78180000Y-121708072D01*
X79880000Y-121708072D01*
X80004482Y-121695812D01*
X80124180Y-121659502D01*
X80234494Y-121600537D01*
X80331185Y-121521185D01*
X80410537Y-121424494D01*
X80469502Y-121314180D01*
X80491513Y-121241620D01*
X80623368Y-121373475D01*
X80866589Y-121535990D01*
X81136842Y-121647932D01*
X81423740Y-121705000D01*
X81716260Y-121705000D01*
X82003158Y-121647932D01*
X82273411Y-121535990D01*
X82516632Y-121373475D01*
X82723475Y-121166632D01*
X82885990Y-120923411D01*
X82997932Y-120653158D01*
X83055000Y-120366260D01*
X83055000Y-120073740D01*
X82997932Y-119786842D01*
X82885990Y-119516589D01*
X82788043Y-119370000D01*
X87541928Y-119370000D01*
X87541928Y-121070000D01*
X87554188Y-121194482D01*
X87590498Y-121314180D01*
X87649463Y-121424494D01*
X87728815Y-121521185D01*
X87825506Y-121600537D01*
X87935820Y-121659502D01*
X88055518Y-121695812D01*
X88154065Y-121705518D01*
X88157805Y-121743490D01*
X88208412Y-121910313D01*
X88290590Y-122064059D01*
X88373468Y-122165046D01*
X88373471Y-122165049D01*
X88401184Y-122198817D01*
X88434951Y-122226529D01*
X89053470Y-122845049D01*
X89081183Y-122878817D01*
X89114951Y-122906530D01*
X89114953Y-122906532D01*
X89151938Y-122936885D01*
X89215941Y-122989411D01*
X89369687Y-123071589D01*
X89536510Y-123122195D01*
X89666523Y-123135000D01*
X89666533Y-123135000D01*
X89709999Y-123139281D01*
X89753465Y-123135000D01*
X93383422Y-123135000D01*
X95615000Y-125366579D01*
X95615001Y-135633420D01*
X92974956Y-138273466D01*
X92941183Y-138301183D01*
X92830589Y-138435942D01*
X92748411Y-138589688D01*
X92697805Y-138756511D01*
X92685000Y-138886524D01*
X92685000Y-138886531D01*
X92680719Y-138930000D01*
X92685000Y-138973469D01*
X92685000Y-139485375D01*
X92595518Y-139494188D01*
X92475820Y-139530498D01*
X92365506Y-139589463D01*
X92268815Y-139668815D01*
X92189463Y-139765506D01*
X92130498Y-139875820D01*
X92094188Y-139995518D01*
X92081928Y-140120000D01*
X92081928Y-141820000D01*
X92094188Y-141944482D01*
X92130498Y-142064180D01*
X92189463Y-142174494D01*
X92268815Y-142271185D01*
X92365506Y-142350537D01*
X92475820Y-142409502D01*
X92595518Y-142445812D01*
X92720000Y-142458072D01*
X94420000Y-142458072D01*
X94544482Y-142445812D01*
X94664180Y-142409502D01*
X94774494Y-142350537D01*
X94871185Y-142271185D01*
X94950537Y-142174494D01*
X95009502Y-142064180D01*
X95031513Y-141991620D01*
X95163368Y-142123475D01*
X95406589Y-142285990D01*
X95676842Y-142397932D01*
X95963740Y-142455000D01*
X96256260Y-142455000D01*
X96543158Y-142397932D01*
X96813411Y-142285990D01*
X97056632Y-142123475D01*
X97263475Y-141916632D01*
X97380000Y-141742240D01*
X97496525Y-141916632D01*
X97703368Y-142123475D01*
X97946589Y-142285990D01*
X98216842Y-142397932D01*
X98503740Y-142455000D01*
X98796260Y-142455000D01*
X99083158Y-142397932D01*
X99353411Y-142285990D01*
X99596632Y-142123475D01*
X99803475Y-141916632D01*
X99920000Y-141742240D01*
X100036525Y-141916632D01*
X100243368Y-142123475D01*
X100486589Y-142285990D01*
X100756842Y-142397932D01*
X101043740Y-142455000D01*
X101336260Y-142455000D01*
X101623158Y-142397932D01*
X101893411Y-142285990D01*
X102136632Y-142123475D01*
X102343475Y-141916632D01*
X102460000Y-141742240D01*
X102576525Y-141916632D01*
X102783368Y-142123475D01*
X103026589Y-142285990D01*
X103296842Y-142397932D01*
X103583740Y-142455000D01*
X103876260Y-142455000D01*
X104163158Y-142397932D01*
X104433411Y-142285990D01*
X104676632Y-142123475D01*
X104883475Y-141916632D01*
X105000000Y-141742240D01*
X105116525Y-141916632D01*
X105323368Y-142123475D01*
X105566589Y-142285990D01*
X105836842Y-142397932D01*
X106123740Y-142455000D01*
X106416260Y-142455000D01*
X106703158Y-142397932D01*
X106973411Y-142285990D01*
X107216632Y-142123475D01*
X107423475Y-141916632D01*
X107540000Y-141742240D01*
X107656525Y-141916632D01*
X107863368Y-142123475D01*
X108106589Y-142285990D01*
X108376842Y-142397932D01*
X108663740Y-142455000D01*
X108956260Y-142455000D01*
X109243158Y-142397932D01*
X109513411Y-142285990D01*
X109756632Y-142123475D01*
X109963475Y-141916632D01*
X110080000Y-141742240D01*
X110196525Y-141916632D01*
X110403368Y-142123475D01*
X110646589Y-142285990D01*
X110916842Y-142397932D01*
X111203740Y-142455000D01*
X111496260Y-142455000D01*
X111783158Y-142397932D01*
X112053411Y-142285990D01*
X112296632Y-142123475D01*
X112503475Y-141916632D01*
X112620000Y-141742240D01*
X112736525Y-141916632D01*
X112943368Y-142123475D01*
X113186589Y-142285990D01*
X113456842Y-142397932D01*
X113743740Y-142455000D01*
X114036260Y-142455000D01*
X114323158Y-142397932D01*
X114593411Y-142285990D01*
X114836632Y-142123475D01*
X115043475Y-141916632D01*
X115160000Y-141742240D01*
X115276525Y-141916632D01*
X115483368Y-142123475D01*
X115726589Y-142285990D01*
X115996842Y-142397932D01*
X116283740Y-142455000D01*
X116576260Y-142455000D01*
X116863158Y-142397932D01*
X117133411Y-142285990D01*
X117376632Y-142123475D01*
X117583475Y-141916632D01*
X117745990Y-141673411D01*
X117857932Y-141403158D01*
X117915000Y-141116260D01*
X117915000Y-140823740D01*
X117857932Y-140536842D01*
X117745990Y-140266589D01*
X117583475Y-140023368D01*
X117535802Y-139975695D01*
X146146520Y-139975695D01*
X146215822Y-140727938D01*
X146430548Y-141452208D01*
X146782445Y-142120670D01*
X146809452Y-142161088D01*
X147299119Y-142521276D01*
X149820395Y-140000000D01*
X150179605Y-140000000D01*
X152700881Y-142521276D01*
X153190548Y-142161088D01*
X153550849Y-141497118D01*
X153774694Y-140775615D01*
X153853480Y-140024305D01*
X153784178Y-139272062D01*
X153569452Y-138547792D01*
X153217555Y-137879330D01*
X153190548Y-137838912D01*
X152700881Y-137478724D01*
X150179605Y-140000000D01*
X149820395Y-140000000D01*
X147299119Y-137478724D01*
X146809452Y-137838912D01*
X146449151Y-138502882D01*
X146225306Y-139224385D01*
X146146520Y-139975695D01*
X117535802Y-139975695D01*
X117376632Y-139816525D01*
X117133411Y-139654010D01*
X116863158Y-139542068D01*
X116576260Y-139485000D01*
X116283740Y-139485000D01*
X115996842Y-139542068D01*
X115726589Y-139654010D01*
X115483368Y-139816525D01*
X115276525Y-140023368D01*
X115160000Y-140197760D01*
X115043475Y-140023368D01*
X114836632Y-139816525D01*
X114593411Y-139654010D01*
X114323158Y-139542068D01*
X114036260Y-139485000D01*
X113743740Y-139485000D01*
X113456842Y-139542068D01*
X113186589Y-139654010D01*
X112943368Y-139816525D01*
X112736525Y-140023368D01*
X112620000Y-140197760D01*
X112503475Y-140023368D01*
X112296632Y-139816525D01*
X112053411Y-139654010D01*
X111783158Y-139542068D01*
X111496260Y-139485000D01*
X111203740Y-139485000D01*
X110916842Y-139542068D01*
X110646589Y-139654010D01*
X110403368Y-139816525D01*
X110196525Y-140023368D01*
X110080000Y-140197760D01*
X109963475Y-140023368D01*
X109756632Y-139816525D01*
X109513411Y-139654010D01*
X109243158Y-139542068D01*
X108956260Y-139485000D01*
X108663740Y-139485000D01*
X108376842Y-139542068D01*
X108106589Y-139654010D01*
X107863368Y-139816525D01*
X107656525Y-140023368D01*
X107540000Y-140197760D01*
X107423475Y-140023368D01*
X107216632Y-139816525D01*
X106973411Y-139654010D01*
X106703158Y-139542068D01*
X106416260Y-139485000D01*
X106123740Y-139485000D01*
X105836842Y-139542068D01*
X105566589Y-139654010D01*
X105323368Y-139816525D01*
X105116525Y-140023368D01*
X105000000Y-140197760D01*
X104883475Y-140023368D01*
X104676632Y-139816525D01*
X104433411Y-139654010D01*
X104163158Y-139542068D01*
X103876260Y-139485000D01*
X103583740Y-139485000D01*
X103296842Y-139542068D01*
X103026589Y-139654010D01*
X102783368Y-139816525D01*
X102576525Y-140023368D01*
X102460000Y-140197760D01*
X102343475Y-140023368D01*
X102136632Y-139816525D01*
X101893411Y-139654010D01*
X101623158Y-139542068D01*
X101336260Y-139485000D01*
X101043740Y-139485000D01*
X100756842Y-139542068D01*
X100486589Y-139654010D01*
X100243368Y-139816525D01*
X100036525Y-140023368D01*
X99920000Y-140197760D01*
X99803475Y-140023368D01*
X99596632Y-139816525D01*
X99535000Y-139775344D01*
X99535000Y-137299119D01*
X147478724Y-137299119D01*
X150000000Y-139820395D01*
X152521276Y-137299119D01*
X152161088Y-136809452D01*
X151497118Y-136449151D01*
X150775615Y-136225306D01*
X150024305Y-136146520D01*
X149272062Y-136215822D01*
X148547792Y-136430548D01*
X147879330Y-136782445D01*
X147838912Y-136809452D01*
X147478724Y-137299119D01*
X99535000Y-137299119D01*
X99535000Y-125700881D01*
X147478724Y-125700881D01*
X147838912Y-126190548D01*
X148502882Y-126550849D01*
X149224385Y-126774694D01*
X149975695Y-126853480D01*
X150727938Y-126784178D01*
X151452208Y-126569452D01*
X152120670Y-126217555D01*
X152161088Y-126190548D01*
X152521276Y-125700881D01*
X150000000Y-123179605D01*
X147478724Y-125700881D01*
X99535000Y-125700881D01*
X99535000Y-122975695D01*
X146146520Y-122975695D01*
X146215822Y-123727938D01*
X146430548Y-124452208D01*
X146782445Y-125120670D01*
X146809452Y-125161088D01*
X147299119Y-125521276D01*
X149820395Y-123000000D01*
X150179605Y-123000000D01*
X152700881Y-125521276D01*
X153190548Y-125161088D01*
X153550849Y-124497118D01*
X153774694Y-123775615D01*
X153853480Y-123024305D01*
X153784178Y-122272062D01*
X153569452Y-121547792D01*
X153217555Y-120879330D01*
X153190548Y-120838912D01*
X152700881Y-120478724D01*
X150179605Y-123000000D01*
X149820395Y-123000000D01*
X147299119Y-120478724D01*
X146809452Y-120838912D01*
X146449151Y-121502882D01*
X146225306Y-122224385D01*
X146146520Y-122975695D01*
X99535000Y-122975695D01*
X99535000Y-122263465D01*
X99539281Y-122219999D01*
X99535000Y-122176533D01*
X99535000Y-122176523D01*
X99522195Y-122046510D01*
X99471589Y-121879687D01*
X99389411Y-121725941D01*
X99342912Y-121669282D01*
X99306532Y-121624953D01*
X99306530Y-121624951D01*
X99278817Y-121591183D01*
X99245049Y-121563470D01*
X98120539Y-120438960D01*
X98135000Y-120366260D01*
X98135000Y-120299119D01*
X147478724Y-120299119D01*
X150000000Y-122820395D01*
X152521276Y-120299119D01*
X152161088Y-119809452D01*
X151497118Y-119449151D01*
X150775615Y-119225306D01*
X150024305Y-119146520D01*
X149272062Y-119215822D01*
X148547792Y-119430548D01*
X147879330Y-119782445D01*
X147838912Y-119809452D01*
X147478724Y-120299119D01*
X98135000Y-120299119D01*
X98135000Y-120073740D01*
X98077932Y-119786842D01*
X97965990Y-119516589D01*
X97803475Y-119273368D01*
X97596632Y-119066525D01*
X97353411Y-118904010D01*
X97083158Y-118792068D01*
X96796260Y-118735000D01*
X96503740Y-118735000D01*
X96216842Y-118792068D01*
X95946589Y-118904010D01*
X95703368Y-119066525D01*
X95496525Y-119273368D01*
X95380000Y-119447760D01*
X95263475Y-119273368D01*
X95056632Y-119066525D01*
X94813411Y-118904010D01*
X94543158Y-118792068D01*
X94256260Y-118735000D01*
X93963740Y-118735000D01*
X93676842Y-118792068D01*
X93406589Y-118904010D01*
X93163368Y-119066525D01*
X92956525Y-119273368D01*
X92840000Y-119447760D01*
X92723475Y-119273368D01*
X92516632Y-119066525D01*
X92273411Y-118904010D01*
X92003158Y-118792068D01*
X91716260Y-118735000D01*
X91423740Y-118735000D01*
X91136842Y-118792068D01*
X90866589Y-118904010D01*
X90623368Y-119066525D01*
X90491513Y-119198380D01*
X90469502Y-119125820D01*
X90410537Y-119015506D01*
X90331185Y-118918815D01*
X90234494Y-118839463D01*
X90124180Y-118780498D01*
X90004482Y-118744188D01*
X89880000Y-118731928D01*
X88180000Y-118731928D01*
X88055518Y-118744188D01*
X87935820Y-118780498D01*
X87825506Y-118839463D01*
X87728815Y-118918815D01*
X87649463Y-119015506D01*
X87590498Y-119125820D01*
X87554188Y-119245518D01*
X87541928Y-119370000D01*
X82788043Y-119370000D01*
X82723475Y-119273368D01*
X82516632Y-119066525D01*
X82273411Y-118904010D01*
X82003158Y-118792068D01*
X81716260Y-118735000D01*
X81423740Y-118735000D01*
X81136842Y-118792068D01*
X80866589Y-118904010D01*
X80623368Y-119066525D01*
X80491513Y-119198380D01*
X80469502Y-119125820D01*
X80410537Y-119015506D01*
X80331185Y-118918815D01*
X80234494Y-118839463D01*
X80124180Y-118780498D01*
X80004482Y-118744188D01*
X79880000Y-118731928D01*
X78180000Y-118731928D01*
X78055518Y-118744188D01*
X77935820Y-118780498D01*
X77825506Y-118839463D01*
X77728815Y-118918815D01*
X77649463Y-119015506D01*
X77590498Y-119125820D01*
X77554188Y-119245518D01*
X77541928Y-119370000D01*
X61241997Y-119370000D01*
X60775615Y-119225306D01*
X60024305Y-119146520D01*
X59272062Y-119215822D01*
X58547792Y-119430548D01*
X57879330Y-119782445D01*
X57838912Y-119809452D01*
X57478724Y-120299119D01*
X56682447Y-120299119D01*
X56754628Y-120198669D01*
X57301988Y-119668239D01*
X57934639Y-119243116D01*
X58632561Y-118936749D01*
X59379183Y-118757501D01*
X60026030Y-118710000D01*
X149968382Y-118710000D01*
X150759192Y-118780578D01*
M02*
